<svg xmlns="http://www.w3.org/2000/svg" width="700" height="490" viewBox="0 0 700 490">
  <defs>
    <style>
      .cls-1 {
        fill-rule: evenodd;
      }
    </style>
  </defs>
  <path id="Color_Fill_3" data-name="Color Fill 3" class="cls-1" d="M0,6V2C35.784,5.524,62.066,16.349,82,38c9.217,10.011,17.2,21.749,26,32,5.094,5.937,7.231,14.814,17,16,1.545,0.707.135,0.129,3,0V75c-2.714-3.588-2.877-8.725-5-13-5.436-10.948-11.909-23.049-19-33A176.256,176.256,0,0,0,86,8c-2.871-2.86-6.784-4.464-9-8h5c4.89,6.681,12.663,11.694,18,18,8.373,9.894,13.049,21.575,20,33,5.838,9.595,13.712,22.121,11,37-2.991,1.354-5.051,1.98-10,2-6.188-8.026-15.077-15.454-22-23-4.564-4.975-6.541-11.924-11-17C67.66,26.841,43.2,6.152,0,6ZM134,0c5.369,1.8,11.31,9.573,13,15h-1C142.615,9.793,136.649,5.621,134,0Zm55,0c7.066,3.474,9.8,13.435,14,20,7.733,12.091,11.288,25.054,15,42,1.286,5.872-.074,15.687-1,20-3.709,17.273-3.524,60.767,2,74,5.311,12.722,15.229,24.053,20,37,1.313,3.563,1.99,12.726,0,16-0.759,2.631-1.2,2.385-2,5h-2v-2c12.03-8.388-8.984-40.232-13-48-7.407-14.324-13.492-39.548-8-64,2.186-9.731,4.951-29.655,2-42-3.174-13.278-6.37-24.986-12-36C200.1,14.361,193.032,7.876,189,0ZM0,152c32.438,4.37,32.289,37.221,55,50,28.144,15.836,50.624-13.894,75-8,26.771,6.473,42.188,23.452,64,35,8.67,4.59,23.29,11.763,38,7,11.111-3.6,31.3-17.225,28-34-5.53-28.127-21.156-42.422-28-69-6.733-26.145,7.676-57.011,2-82-5.113-22.512-10.093-34.564-20-51h4c9.992,17.569,13.687,27.471,19,51,5.472,24.234-8.648,49.418-3,74,2.5,10.889,4.349,21.876,9,31,5.9,11.575,15.073,21.77,19,36,6.754,24.471-10.306,40.2-26,46-36.1,13.337-68.195-25.148-90-36-31.881-15.867-58.435,18.4-87,6-15-6.51-25.795-25.37-35-38-2.312-3.173-4.673-8.07-8-10L0,155v-3ZM422,0h3c-0.435,25.921-.554,50.621,9,69,12.8,24.616,34,41.522,45,69,10.223,25.55,3.188,64.1,17,86,8.724,13.831,49.933,55.54,20,75-12.477,8.112-34.631,4.975-48,1l-5,1c-0.488-.227-9.433-7.959-11-9-24.967-16.585-41.323-45.434-54-74-7.8-17.572-14.242-40.049-29-50-28.963-19.53-83.322-20.376-100-52-5.611-10.64-6.04-24.482-9-38-2.314-10.567,1.5-22.5-1-32a162.385,162.385,0,0,0-13-34c-2.192-4.171-5.545-6.914-7-12h3c7.7,13.569,15.7,27.759,20,45q0.5,12,1,24c4.146,19.069,2.263,35.705,11,49,19.654,29.906,74.122,26.192,100,50,16.015,14.733,22.611,38.557,32,60,6.539,14.934,16.494,30.321,26,43,10.675,14.239,27.711,25.4,48,30,17.412,3.948,40.309-2.022,42-17,3.33-5.132.006-16.985-2-21-8.282-16.581-22.412-27.98-30-46-9.724-23.094-5.244-57.766-15-81-11.085-26.4-32.639-43.418-45-68C421.16,50.42,422.3,26.148,422,0ZM272,0h2c1.757,9.855,8.854,20.152,12,30,3.575,11.191,1.272,21.735,4,34,1.28,5.755,5.446,19.584,3,24l-4-20c-3.833-16.778-1.76-31.631-7-46C279.272,14.518,274.262,7.687,272,0Zm32,0h2c1.051,7.946,5.679,14.814,8,22,3.777,11.694,2.821,21.9,6,35,1.874,7.721,4.8,16.22,6,24h-1V80c-6.125-8.908-3.815-21.695-7-34C313.859,30,307.946,14.519,304,0Zm61,0h2c-3.025,8.606-.781,24.381,1,32,4.669,19.98,6.9,35.133,16,50,3.754,6.137,10.422,10.943,13,18h-1c-1.021-.8-0.274-0.355-2-1-1.567-4.84-5.488-7.219-8-11a192.4,192.4,0,0,1-12-22C365.037,47.384,365.218,24.491,365,0Zm26,0c2.151,3.677-.161,30.875,2,39,1.958,7.36,3.96,15.845,7,23,2.965,6.978,8.77,13.347,11,21h-1V82C396.721,68.834,385.637,28.541,391,0ZM170,490h-4v-2c11.786-13.611,1.695-63.9,0-82-1.25-13.352-1.9-33.263,8-36,10.591-6.478,26.136,10.249,31,14,13.469,10.388,21.632,25.5,33,38,4.683,5.149,10.824,8.3,16,13,5.715,5.193,18.665,13.42,33,9,14.009-4.32,22.385-18.9,30-30,6.9-10.063,15.208-20.6,23-30,11.624-14.022,19.271-30.172,35-40,29.216-18.254,73.728-1.238,105,6,27.048,6.261,57.2-9.315,64-24,6.051-13.068.895-30.09-2-42-2.453-10.092,1.388-21.77,3-28,17.594-10.108,43.891-13.234,57-28,15.826-17.826,21.35-61.344,12-92-13.467-44.155-44.458-68.072-80-90-19.4-11.972-44.063-21-50-46h3V1c6.837,8.487,10.285,18.509,19,25,8.7,6.477,18.78,12.329,28,18,3.141,1.932,7.07,1.8,10,4,36.215,27.16,56.3,38.994,72,88,6.6,20.588,8.374,54.023,0,74-6.585,15.708-18.515,29.185-34,36-11.632,5.119-30.546,2.964-35,15-5.684,7.576-1.345,22.64,1,31,4.576,16.313.747,36.943-8,46-23.565,24.4-79.146,12.984-111,4-10.241-2.888-25.1-5.978-37-2-31.868,10.651-55.3,52.513-74,78-10.016,13.651-16.934,25.147-36,30-13.849,3.525-25.959-6.642-32-12-18.164-16.112-31.8-35.992-50-52-8.5-7.479-14.371-13.638-27-11-1.638,3.272-2.721,3.893-3,9-2.793,4.483-.952,26.863,0,33,2.244,14.469,7.97,41.2,4,59C172.81,479.335,170.492,484.2,170,490ZM510,0c6.045,3.464,8.323,13.722,14,18,14.253,10.742,32.022,16.925,46,28,6.2,4.915,14.115,14.377,26,13,13.819-1.6,19.045-13.162,30-17v1h-1c-2.4,3.9-5.338,4.391-9,7-4.829,3.44-9.451,8.069-16,10-4.131,1.218-12.143.17-15-1-13.235-5.419-30.391-20.8-43-29C530.049,22.232,512.834,16.322,510,0Zm57,0c3.55,1.233,5.232,4.125,7,7h-2V6A22.61,22.61,0,0,1,567,0Zm56,0h2a6.1,6.1,0,0,1-2,2V3h-1Zm-2,3c0.566,0.713,1.442.042,1,2h-1a11.576,11.576,0,0,1-3,2V5C620.389,4.158,619.645,4.6,621,3ZM574,7a19.212,19.212,0,0,1,7,6h-2c-1.732-1.724-2.783-1.5-4-4C574.2,7.979,574.645,8.726,574,7Zm42,0h2V8h-1c-5.053,8.023-27.424,16.044-36,5h2C591.952,21.953,611.1,14.319,616,7ZM458,9c3.94,0.4,3.943-.442,5,2h1v1h-2c-1.3-.877-2.467-0.894-5-1-1.283,2.072-2.077,2.3-3,5-4,5.083-3.729,19.558-2,27,3.488,15.011,7.421,21.882,15,32,3.369,4.5,8.809,7.156,11,13h-2c-2.146-5.855-7.664-8.5-11-13-8.542-11.526-15.008-20.492-15-41q0.5-8.5,1-17C452.244,13.548,455.706,11.462,458,9Zm6,3c10.635,5.052,11.53,24.135,21,31,11.444,8.3,30.176,11.879,43,18v1h-3c-6.55-7.366-21.384-7.679-31-12C481.441,44.357,468.6,25.23,464,12ZM148,16c6.149,3.223,9.078,13.427,12,20,9.8,22.033,14.825,66.109,15,97-2.367,1.924-4.237,5.638-7,7-12.58,6.2-44.258-8.983-55-12-9.519-2.674-19.824-1.256-25-8h2c5.593,5.49,11.373,4.341,19,6,1.951,0.672,1.823-.009,3,1,14.187,0.982,38.5,16.211,51,13,2.142-.55,4.327-2.335,7-3,5.238-10.728,3.444-25.2-1-36q0.5-5,1-10c-2.2-10.152-1.087-23.686-4-35-2.377-9.233-5.683-19.032-10-27C153.607,24.584,149.65,21.545,148,16Zm540,3c3.872-.147,9.715-0.537,12,1-16.567-.163-29.871,4.723-44,6V25c0.8-1.021.355-.274,1-2C658.474,23.48,685.3,20.8,688,19Zm-36,7h4v1h-2c-4.468,3.492-11.017,3.927-16,7-4.026,2.482-6.916,6.3-12,8V41h1C632.847,32.985,644.778,32.6,652,26Zm-66,3h0ZM0,57c25.618,7.941,65.264,9.623,70,37H69V93c-2.544-2.566-2.853-5.885-5-9-5.823-8.45-19.889-13.938-30-18C27.666,63.455,2.705,61.174,0,57Zm528,5c3.033,0.983,2.988,1.966,6,3v2h-1C531.266,65.167,529.47,64.192,528,62Zm158,4h14v2H685c-2.8,1.844-6.108.793-10,2-8.58,2.66-17.7,8.9-21,17-6.723,16.471,4.462,48.558,8,64,7.755,33.849-3.823,72.294-15,92h-1v-2c13.883-16.8,19.589-74.056,12-103-2.674-10.2-10.929-32.387-7-47,3.374-12.547,13.823-19.334,26-23C680.828,66.848,683.378,67.826,686,66ZM534,67c10.213,7.143,4.089,17.558,9,29,2.635,6.138,9.434,8.806,13,14h-2c-2.9-3.778-8.372-6.019-11-10-3.614-5.474-.909-12.357-3-20C538.763,75.48,535.423,71.4,534,67ZM119,79c0.8,1.021.355,0.274,1,2h-1V79Zm506,5h0ZM326,81c2.267,1.749,3.177,3.766,4,7h-1V87C327.381,85.327,326.7,83.7,326,81Zm85,2a18.67,18.67,0,0,1,6,9h-1V91h-1C413.535,88.038,412,86.551,411,83ZM294,88c2.172,2.323,3.463,6.112,4,10h-1V97C294.911,94.788,294.249,92.162,294,88Zm36,0c2.006,1.4,2.066,1.346,3,4h-1V91h-1Zm148,0c12.814,6.379,22.965,34.463,26,52,1.015,5.863-1.836,16.57-3,22-4.854,22.645,4.932,48.191,19,53v1h-3c-4.652-6.674-12.214-10.047-15-19-6.818-21.909,4.58-47.225-1-68a95.419,95.419,0,0,0-14-29C484.1,95.883,479.894,93.417,478,88ZM333,92c2.006,1.4,2.066,1.346,3,4h-1V95h-1Zm84,0c2.006,1.4,2.066,1.346,3,4h-1V95h-1ZM70,94c4.161,3.338,8.5,12.358,10,18H78v-2C74.718,106.6,70.7,99.5,70,94Zm266,2c2.684,0.891,2.589,1.028,4,3h1v1C338.073,99.053,337.489,98.236,336,96Zm84,0a21.576,21.576,0,0,1,8,10h-1C424.706,102.5,421.505,100.35,420,96ZM298,98c1.262,1.359,1.365,1.768,2,4h-1v-1C298.248,99.927,298.4,100.054,298,98Zm43,2c18.241,5.786,34.446,23.639,60,19v1h-1c-3.989,3.226-13.68,1.932-19,0C370.778,116.287,346.238,107.984,341,100Zm56,0c5.41,3.588,7.629,11.257,6,19h-2v-2C404.667,111.434,398.381,104.357,397,100Zm-97,2c1.624,1.35,1.121.64,2,3h-1v-1C300.2,102.979,300.645,103.726,300,102Zm2,3c2.006,1.4,2.066,1.346,3,4h-1v-1h-1Zm126,1a13.817,13.817,0,0,1,6,8h-1C431.2,111.166,429.184,109.624,428,106Zm-123,3c2.94,1.681,9.867,7.678,7,9C309.72,114.606,306.505,113.222,305,109Zm251,1c4.285,1.437,5.744,4.485,10,6v2h-2C561.7,114.689,557.8,113.694,556,110Zm-42,75c-0.552-4.915-2.955-7.441-4-11-6.189-21.077,17.267-26.7,22-38,2.706-6.464-.414-16.737,1-24,20.319-2.467,31.683,16.693,37,32,2.231,6.423.468,11.539,2,19,0.774,3.767,1.537,11.517,0,17-1.281,4.569-4.618,7.377-6,12-4.554.774-7.1,3.037-11,4C537,200.441,525.363,187.438,514,185ZM80,112c2.8,1.747,6.58,4.895,8,8H86C83.954,116.946,81.365,115.839,80,112Zm354,2c14.08,10.063,25.5,53.987,31,75,2.715,10.382,2.183,27-6,30-3.243,2.774-11.62,2.629-15,0-2.684-.891-2.589-1.028-4-3h2c4.766,4.78,11.582,3.614,18,2,5.752-9.511,4.16-26.857,1-38-4.261-15.029-7.152-27.7-13-41C444.244,130.455,437.047,122.825,434,114Zm102,0c-1.293,6.744,1.86,16.282-1,23-4.092,9.613-31.166,22.706-20,40,4.659,14.27,29.809,17.534,47,13C577.633,167.23,565.832,114.87,536,114ZM0,118c8.689,2.672,40.763,32.5,44,40H42c-5.733-8.562-15.11-14.527-22-22-1.983-2.151-2.655-5.249-5-7C10.471,125.617,2.627,123.106,0,118Zm314,0c5.32,1.627,9.058,5.551,14,8v1h-2C322.309,123.56,316.95,122.211,314,118Zm252,0h2v2h-2v-2Zm2,2h2v2h-2v-2Zm2,2h2v2h-2v-2Zm2,2c3.081,1.038,2.918.967,4,4h-2C573.094,125.576,572.931,126.41,572,124Zm-244,3h2v1C328.246,127.369,329.029,127.807,328,127Zm2,1c7.575,0.839,12.113,5.451,18,8,11.606,5.025,23.39,7.782,34,13v1h-2C368.7,139.9,339.106,139.336,330,128Zm246,0c7.7,5.456,15.063,20.249,16,32h-1v-1c-2.913-4.229-2.516-10.246-5-15C583.255,138.745,578.06,134.132,576,128Zm-162,3c20.887,4.457,36.12,40.386,36,67-2.67,1.441-4.221,1.994-9,2-8.813-9.485-13.739-19.469-21-31-6.375-10.124-13.859-13.635-14-31,1.416-1.454,2.288-4.981,4-6C411.427,131.151,413.012,131.751,414,131Zm0,4c-0.771.682-2.232,1.311-3,2h-1c-0.541,4.326-1.7,8.254,0,13,1.9,5.306,7.028,8.852,10,13,8.667,12.1,12.708,24.608,24,34,1.754-.631.971-0.193,2-1,0.752-1.073.6-.946,1-3-3.064-4.823-.566-11.454-3-18C438.759,160.909,430.25,138.148,414,135Zm-32,15h3c4.276,5.3,12.5,6.956,15,14h-1C394.2,158.3,387.154,155.287,382,150ZM44,158c2.389,0.842,1.645.4,3,2a2.84,2.84,0,0,1,1,1H46C44.867,159.454,44.915,160.157,44,158Zm254,2c26.256-.646,52.8,11.037,63,27,9.836,15.4-4.079,35.413-13,42-29.08,21.473-48.662-4.052-61-24-4.4-7.122-15.646-21.081-7-32C283.065,163.435,288.851,164.46,298,160Zm294,0c7.017,8.9,3.447,29.946,1,40h-1v-3C598.562,187.9,592.5,171.2,592,160ZM48,161c10.061,4.818,18.816,9.081,32,12l56-1c11.17,3,19.914,8.247,28,14,4.611,3.281,11.464,4.734,14,10h-2c-9.837-12.174-29.507-18.952-48-23-9.431-2.064-23.165.335-31,2-14.73,3.13-29.42-3.142-38-7C54.4,165.929,49.959,165.7,48,161Zm248,1c-0.86.649-3.144,1.338-4,2a15.721,15.721,0,0,0-12,14c-6.118,9.383,8.605,27.4,12,32,7.172,9.708,13.76,20.547,26,25,18.642,6.782,40.3-15.372,44-27V192c-4.565-3.623-6.254-10.541-11-14C337.112,167.879,319.751,162.063,296,162Zm104,2a28.819,28.819,0,0,1,11,15h-1v-1C406.547,174.752,401.64,168.693,400,164Zm11,15c4.5,3.2,19.063,23.532,21,29h-1C424.979,198.624,414.728,190.213,411,179ZM178,196c2.69,0.8,3.707,1.841,6,3v1C180.131,199.368,179.7,198.567,178,196Zm6,4c4.566,1.522,6.525,4.7,10,7,14.458,9.579,25.248,14.5,41,7v2h-1C222.323,227.812,187.82,208.256,184,200Zm407,0c1.3,2.5-.014,4.024,0,7h-3v-2A9.975,9.975,0,0,0,591,200Zm97,2h0ZM0,202c31.459,4.184,35.646,36.549,64,44,6.156,1.618,13.157-1.067,17-2,6.107-1.483,9.365-.334,15-2,10.073-2.979,25.51-10.284,40-7,23.748,5.382,41.259,16.222,62,25,7.149,3.026,20.293,11.065,32,8,24.038-6.294,29.64-30.82,59-31,3.992,3.648,8.272,3.786,9,11,3.679,5.953-1.162,15.871-3,20-7.648,17.176-19.68,29.687-35,39-13.462,8.184-45.958,17.748-68,13H171c-9.911-2.165-34.555-5.911-47-3-26.36,6.165-34.254,29.554-53,43-17.237,12.364-44.481,11.9-71,10v-3c25.866,3.2,55.71,2.11,71-11,14.366-12.318,24.433-32.239,43-40,14.983-6.263,58.709-1.341,74,2,6.338,1.385,17.225.084,22-1l17-1c22.546-6.14,38.534-15.019,52-30,6.275-6.982,21.335-24.5,17-38-3.178-9.9-17.089-8.891-25-4-15.274,9.443-28.429,33.957-57,26-28.02-7.8-48.922-24.331-78-32-6.373-1.681-14.008.982-18,2-13.373,3.41-44.326,12.151-59,8-14.465-4.092-17.939-14.884-27-24-8.646-8.7-19.348-14.19-32-19v-3Zm587,5c0.566,0.713,1.442.042,1,2h-1a16.061,16.061,0,0,1-9,7v-1h1C581.371,211.942,584.784,210.335,587,207Zm-155,1c2.818,1.6,8.925,6.65,6,8C435.954,212.946,433.365,211.839,432,208Zm-55,3a30.439,30.439,0,0,1,7,1c10.575,18.6,14.468,42.53,28,58,8.689,9.934,24.415,24.065,35,32,8.871,6.651,19.441,12.084,20,27-0.8,1.021-.355.274-1,2-2.893,1-7.674,1.059-12,1-5.349-4.047-13.869-3.855-21-6-4.858-1.461-11.621-3.751-17-5-41.483-9.634-62.871,23.685-80,43-6.634,7.481-14.354,14.517-21,22-7.158,8.058-32.416,40.562-50,29-23.205-6.367-32.787-50.841-57-60-8.044-3.043-19.612,1.1-29-1-11.555-2.585-32.116-2.837-36-13-0.877-1.3-.894-2.467-1-5,1.623-1.254,2.007-2.1,3-4,42.112-6.117,95.976,4.877,128-12,13.451-7.089,26.007-21.414,32-36,8.828-21.486-4.757-35.018,28-35,6.079-4.061,13.672-4.407,19-9C361.274,232.005,368.647,219.979,377,211ZM251,397c0.372,2.076.242,1.924,1,3,6.834,16.145,27.361,15.272,40,6,33.354-24.468,51.672-76.8,97-88,29.051-7.177,48.887,10.532,74,11a15.7,15.7,0,0,0,1-5c-3.872-4.184-5.818-10.149-10-14-20.224-18.627-43.588-31.432-57-57-4.529-8.635-9.494-37.577-19-39-9.881,13.763-23.757,32.992-42,38-5.712,1.568-14.3.127-19,1-8.566,14.348-8.04,34.785-18,49-27.4,39.1-89.493,30.706-151,32-1.368,2.558-2.22,2.612-3,6,12.283,7.742,21.879,7.3,39,11l25,1c14.476,5.78,32.285,30.913,39,45h3ZM520,216c11.508,3.147,26.678,10.553,43,6,5.188-1.447,9.6-4.647,15-6v1c-0.8,1.021-.355.274-1,2-6.277.681-10.819,3.648-16,5C546.935,227.672,525.182,222.506,520,216Zm125,27c0.8,1.021.355,0.274,1,2-2.711,2.1-4.048,5.028-7,7v-2C641.7,248.223,643.356,245.8,645,243Zm-271,3h5c6.1,9.464,13.085,23.3,22,30,11.015,8.279,27.467,9.828,23,28-30.636,5.187-78.806-11.634-79-42,2.54-2.307,4.834-6.475,8-8C360.475,250.4,368.107,250.8,374,246Zm1,3c-6.736,5.05-22.7,5.8-26,14-0.877,1.3-.894,2.467-1,5,4.216,4.64,5.322,11.842,10,16,12.954,11.514,40.51,18.929,63,18a25.086,25.086,0,0,0,1-8c-0.8-1.021-.355-0.274-1-2-8.618-5.43-19.879-10.841-27-18C387.408,267.372,384.622,252.118,375,249Zm262,3h2q-0.5,1-1,2h1c-3.722,3.159-8.842,6.609-14,8v-1h1C629.431,257.589,634.222,256.12,637,252Zm-354,6c-14.294.034-16.614,10.4-27,14v-2c10.5-3.434,12.865-13.59,27-14,1.121,2.091,1.434,1.832,2,5-10.556,14.643-21.628,36.369-45,35-1.647-2.825-2.611-3.424-3-8,1.262-1.359,1.365-1.768,2-4h1v3c-0.961,1.418-.976,3.273-1,6l3,1c1.549,1.049,4.085,1.031,7,1C260.169,284.681,278.41,276.789,283,258Zm339,4c2.076,0.372,1.924.242,3,1h-1c-6.055,5.465-16.1,6.386-24,10-6.366,2.913-9.384,8.41-14,13-0.863,14.075,3.513,35.216-1,49-5.395,16.478-22.068,26.725-18,49h-2c-2.908-23.962,13.873-32.6,19-51,4.718-16.932-6.028-38.674,3-52C594.292,270.236,612.6,270.7,622,262Zm75,3c3.245,0.828,1.528-.49,3,2-29.453,1.3-48.272,35.438-59,57-4.646,9.338-10.722,19.09-8,33,22.3,13.761,45.763,9.259,61,32,2.608,3.892,5.546,4.469,6,11h-1v-1c-2.964-3.044-3.534-7.34-6-11-4.054-6.016-13.86-13.283-21-16-12.784-4.865-35.468-3.284-40-16-6.114-7.955,3.057-22.932,6-29,10.449-21.547,20.781-41.52,40-54C683.7,269.3,691.4,268.885,697,265ZM0,266c6.354,1.659,12.285,5.673,18,8,11.654,4.746,24.928,6.148,38,9,4.814,1.05,10.559-.682,14-1,25.392-2.345,57.368-9.369,81-4l3,9a19.54,19.54,0,0,0-2,4c-6.96,3.047-19.345,7.506-31,5-6.022-1.3-16.551-1.868-23,0-19.784,5.729-31.99,20.55-51,27-13.508,4.583-32.033.973-47,1v-2c17.563,0.25,34.284,3.97,50-2a37.439,37.439,0,0,0,6-3v-2c3.124-2.1,6.927-1.132,10-3,10.461-6.361,19.518-13.05,30-18h14c7.418-1.7,24.607-.821,34-1,3.231-3.837,6.341-4.126,7-11-2.874-1.551-2.728-2.454-7-3-7.749-4.667-35.242,1.377-42,3H89c-21.884,5.6-50.344.549-66-6C14.582,272.478,3.848,273.72,0,266Zm254,6h2v1h-1c-3.408,3.482-10.679,8.984-15,11v-2C244.22,279.355,250.389,275.555,254,272ZM112,305m588,8h-3c-5.248,7.747-12.826,9.678-13,23,5.58,3.14,8.47,7.2,16,9v2h-2c-6.7-5.19-15.79-5.091-16-17,5.261-6.736,8.975-16.264,17-20v-1h1v4ZM288,346c3.255,1.206,7.059,2.549,10,4v2h-1c-6.845-9.1-19.433.728-27,3v-2C273.941,352.138,282.664,348.456,288,346ZM0,403v-3c37.981,0.168,59.886-4.422,79-22,3.746-3.445,6.255-8.553,10-12,6.364-5.858,22.752-21.644,36-13,11.188,3.794,12.514,20.819,11,37-2.129,22.763-5.019,46.984,0,70,1.847,8.471.413,24.57-3,29-1.073.752-.946,0.6-3,1v-2c5.088-7.119,2.285-21.085,2-31-0.611-21.263-3.312-47.8,1-68,2.095-9.812-.158-24.22-4-29-5.718-6.647-18-7.762-26-2-14.066,10.127-23.652,27.229-39,36C47.826,403.243,25.294,402.668,0,403Zm298-51h2a34.1,34.1,0,0,1-3,16h-1v-3C298.242,362.19,298.136,357.285,298,352Zm-30,3h2c-3.156,4.9-4.537,6.922-6,15,4.391,4.615,7.088,8.791,12,13,2.045-.351,5.538-0.948,7-2,5.5-2.218,9.451-7.783,12-13h1v3c-7.59,6.113-7.263,13.106-22,13-1.073-.752-0.946-0.6-3-1-1.982-5.709-6.958-8.6-9-15C262.385,365.728,265.924,358.285,268,355ZM648,490h-3c0.055-36.681-18.187-65.61-43-78-10.347-5.167-23.435-5.075-36-8-22.559-5.251-50.193,8.245-73,2-22.53-6.169-41.371-13.974-61-20-12.655-3.885-28.531-1.048-36,6-20.432,19.281-29.468,53.056-46,76-5.392,7.483-11.53,21.124-23,22v-1h1c7.349-11.5,20.345-20.671,28-33,14.9-24.006,20.178-60.361,47-72,22.669-9.836,65.2,12.246,86,18,11.66,3.226,28.022,2.442,39,0h19c3.813-.817,12.629-2.178,18-1,10.063,2.207,21.134,1.435,30,5C626.275,418.577,648.069,446.7,648,490ZM567,384c19.092,11.334,65.3,11.141,77,28h1v1h-2c-10.181-13.326-35.1-13.37-53-19C580.4,390.98,570.32,392.989,567,384Zm81,32c13.767,9.578,25.6,50.354,26,74h-1v-2c-2.18-3.646-.781-9.221-2-14-2.31-9.056-3.648-18.956-7-28C659.978,435.15,651.615,426.166,648,416ZM86,422c6.513-.158,10.373,1.24,12,6,8.322,10.238-7.7,47.929-13,52v1H84v-2c5.462-4.56,19.546-40.9,13-50-1.595-4.473-4.75-5.181-11-5-3.035,3.3-7.051,7.746-11,10v-2A52.938,52.938,0,0,0,86,422Zm360,14c-7.613-1.16-14.226-3.023-23-2-1.561,2.522-4.473,3.749-6,6-4.651,6.858-2.889,16.056-7,24-1.514,2.926-4.607,7.741-6,11-2.539,5.939-2.614,13.885-10,15v-2c10.6-10.893,11.386-29.975,18-45,2.9-6.583,8.2-8.477,13-13,26.707-.421,42.4,12.407,65,18,24.674,6.107,69.845-7.374,89,4,12.185,7.235,14.947,21.351,18,38h-3v-2c-1.842-3.015-.684-8.307-2-12-2.97-8.332-8.387-18.407-16-22-9.555-4.509-24.748-2.381-36-2-24.514.83-50.052,0.386-67-6-7.388-2.784-21.651-10.04-27-7v-3ZM73,435c1.243,1.567.642,0.51,0,2-6.846,10.342-31.74,30.759-46,33v-1h1c4.174-4.006,11.025-4.74,16-8C53.9,454.513,65.95,444.455,73,435Zm134,8c2.328,0.195,2.826.193,4,1,6.091,1.971,14.641,10.216,17,16h-2c-4.14-6.991-10.648-10.36-16-16-1.754.631-.971,0.193-2,1-7.09,7.792,4.937,37.746,7,45h-2v-2C206.824,479.6,202.256,453.118,207,443Zm21,17c5.943,2.48,8.3,8.444,13,12,8.231,6.225,15.984,12.625,26,17v1h-4C255.03,480.121,232.534,472.529,228,460ZM23,470h4v1H26c-5.642,4.4-16.758,6.867-26,7v-2C8.449,476.245,18.6,474.2,23,470Zm60,11c1.243,1.567.642,0.51,0,2l-4,7H77v-1h1C79.528,485.931,81.419,484.04,83,481Zm371,0c12.345,0.381,23.24,4.347,34,7h14c11.72,0.329,31.726-2,46-1q0.5,1,1,2h1v1h-3c-2.5-3.668-13.589-2.169-18-1-13.319,3.529-38.727,2.315-51-1-8.127-2.195-16.925-5.955-27-4-1.228,3.334-.822,5.067-3,6v-4c1.5-1.552.777-1.838,3-3C451.771,482.318,453.232,481.689,454,481Z"/>
</svg>
