<svg id="svg" xmlns="http://www.w3.org/2000/svg" xmlns:xlink="http://www.w3.org/1999/xlink" width="400" height="111.11111111111111" viewBox="0, 0, 400,111.11111111111111"><g id="svgg"><path id="path0" d="M1.500 2.103 C 1.500 2.667,1.529 2.700,1.947 2.620 C 2.314 2.550,2.560 2.690,3.322 3.406 C 3.832 3.885,4.438 4.402,4.667 4.555 C 5.073 4.825,5.716 5.420,9.667 9.182 C 10.721 10.186,11.762 11.142,11.981 11.306 C 12.322 11.563,12.350 11.657,12.183 11.970 C 11.989 12.332,11.964 12.333,6.744 12.333 L 1.500 12.333 1.500 18.417 L 1.500 24.500 7.000 24.500 L 12.500 24.500 12.500 29.167 L 12.500 33.833 7.000 33.833 L 1.500 33.833 1.500 45.333 L 1.500 56.833 6.625 56.832 L 11.750 56.831 12.572 56.358 L 13.395 55.885 13.989 56.286 C 14.316 56.507,14.926 57.039,15.344 57.469 C 15.762 57.898,16.991 59.075,18.074 60.083 C 19.157 61.092,20.489 62.348,21.033 62.875 C 21.577 63.402,22.094 63.833,22.182 63.833 C 22.270 63.833,22.834 64.321,23.435 64.917 C 24.690 66.159,24.547 66.101,25.264 65.658 C 26.263 65.041,26.333 64.705,26.333 60.558 L 26.333 56.833 30.557 56.833 C 34.230 56.833,34.904 56.793,35.723 56.523 C 37.079 56.075,37.023 55.827,36.999 62.112 C 36.988 65.121,36.984 67.677,36.990 67.792 C 37.003 68.068,49.167 68.099,49.167 67.823 C 49.167 67.726,49.242 67.693,49.333 67.750 C 49.428 67.808,49.500 67.668,49.500 67.427 C 49.500 67.109,49.587 67.000,49.837 67.000 C 50.041 67.000,50.236 66.840,50.328 66.596 C 50.417 66.362,50.644 66.169,50.866 66.138 C 51.144 66.098,51.265 65.957,51.303 65.625 C 51.347 65.241,51.435 65.167,51.844 65.167 C 52.249 65.167,52.333 65.098,52.333 64.768 C 52.333 64.482,52.451 64.340,52.750 64.265 C 53.054 64.188,53.167 64.049,53.167 63.747 C 53.167 63.399,53.245 63.333,53.667 63.333 C 54.085 63.333,54.167 63.267,54.167 62.928 C 54.167 62.609,54.265 62.511,54.625 62.469 C 54.985 62.428,55.095 62.318,55.136 61.958 C 55.177 61.598,55.276 61.500,55.594 61.500 C 55.913 61.500,56.000 61.413,56.000 61.094 C 56.000 60.776,56.098 60.677,56.458 60.636 C 56.818 60.595,56.928 60.485,56.969 60.125 C 57.011 59.765,57.109 59.667,57.428 59.667 C 57.767 59.667,57.833 59.585,57.833 59.167 C 57.833 58.722,57.889 58.667,58.333 58.667 C 58.756 58.667,58.833 58.602,58.833 58.250 C 58.833 57.870,58.897 57.833,59.550 57.833 C 60.522 57.833,60.667 57.634,60.667 56.300 C 60.667 55.053,60.234 54.752,59.454 55.458 C 58.962 55.903,47.864 55.903,47.050 55.458 C 46.579 55.201,45.988 55.167,42.008 55.167 L 37.500 55.167 37.493 50.958 C 37.486 47.012,37.343 45.454,36.953 45.064 C 36.887 44.998,36.833 44.732,36.833 44.472 C 36.833 43.776,36.056 43.789,35.812 44.490 C 35.705 44.797,35.505 45.000,35.279 45.032 C 35.051 45.064,34.897 45.222,34.863 45.458 C 34.822 45.750,34.701 45.833,34.322 45.833 C 33.890 45.833,33.833 45.892,33.833 46.333 C 33.833 46.756,33.769 46.833,33.417 46.833 C 33.086 46.833,33.000 46.917,33.000 47.239 C 33.000 47.558,32.902 47.656,32.542 47.697 C 32.182 47.739,32.072 47.848,32.031 48.208 C 31.986 48.592,31.898 48.667,31.489 48.667 C 31.079 48.667,31.000 48.734,31.000 49.083 C 31.000 49.417,30.917 49.500,30.583 49.500 C 30.231 49.500,30.167 49.578,30.167 50.000 C 30.167 50.444,30.111 50.500,29.667 50.500 C 29.244 50.500,29.167 50.565,29.167 50.917 C 29.167 51.298,28.951 51.431,28.458 51.353 C 28.390 51.342,28.333 51.558,28.333 51.833 C 28.333 52.310,28.300 52.333,27.625 52.336 C 26.805 52.339,26.571 52.455,26.455 52.917 C 26.409 53.100,26.363 51.486,26.353 49.330 L 26.333 45.409 25.254 45.205 C 24.550 45.071,22.421 45.000,19.128 45.000 L 14.081 45.000 13.860 44.500 L 13.639 44.000 9.348 44.000 L 5.058 44.000 5.131 43.500 C 5.189 43.105,5.288 43.000,5.602 43.000 C 5.915 43.000,6.000 42.911,6.000 42.583 C 6.000 42.249,6.083 42.167,6.421 42.167 C 6.755 42.167,6.862 42.064,6.942 41.667 C 7.019 41.280,7.131 41.167,7.438 41.167 C 7.765 41.167,7.833 41.081,7.833 40.675 C 7.833 40.200,7.862 40.182,8.708 40.134 C 9.471 40.090,9.590 40.035,9.637 39.708 C 9.668 39.484,9.806 39.333,9.978 39.333 C 10.352 39.333,10.667 39.013,10.667 38.633 C 10.667 38.424,10.793 38.333,11.083 38.333 C 11.417 38.333,11.500 38.250,11.500 37.917 C 11.500 37.688,11.575 37.491,11.667 37.479 C 11.758 37.468,11.908 37.440,12.000 37.417 C 12.092 37.394,12.242 37.366,12.333 37.354 C 12.425 37.343,12.500 37.146,12.500 36.917 C 12.500 36.583,12.583 36.500,12.917 36.500 C 13.146 36.500,13.343 36.425,13.354 36.333 C 13.366 36.242,13.384 36.098,13.396 36.014 C 13.423 35.818,13.651 35.589,13.847 35.563 C 13.931 35.551,14.075 35.532,14.167 35.521 C 14.258 35.509,14.333 35.317,14.333 35.094 C 14.333 34.776,14.432 34.677,14.792 34.636 C 15.120 34.598,15.265 34.477,15.303 34.208 C 15.342 33.937,15.468 33.833,15.762 33.833 C 16.099 33.833,16.167 33.751,16.167 33.344 C 16.167 32.935,16.241 32.847,16.625 32.803 C 16.985 32.761,17.095 32.652,17.136 32.292 C 17.177 31.932,17.276 31.833,17.594 31.833 C 17.916 31.833,18.000 31.747,18.000 31.417 C 18.000 31.065,18.078 31.000,18.500 31.000 C 18.944 31.000,19.000 30.944,19.000 30.500 C 19.000 30.078,19.065 30.000,19.417 30.000 C 19.750 30.000,19.833 29.917,19.833 29.583 C 19.833 29.231,19.911 29.167,20.333 29.167 C 20.778 29.167,20.833 29.111,20.833 28.667 C 20.833 28.222,20.889 28.167,21.333 28.167 C 21.748 28.167,21.833 28.099,21.833 27.771 C 21.833 27.424,21.932 27.363,22.649 27.268 C 23.337 27.177,23.482 27.095,23.569 26.747 C 23.626 26.519,23.784 26.333,23.920 26.333 C 24.056 26.333,24.167 26.254,24.167 26.157 C 24.167 26.060,24.242 26.027,24.333 26.083 C 24.425 26.140,24.500 26.033,24.500 25.846 C 24.500 25.625,24.642 25.471,24.907 25.404 C 25.155 25.342,25.334 25.161,25.365 24.943 L 25.417 24.583 31.458 24.540 L 37.500 24.496 37.500 24.064 C 37.500 23.800,37.336 23.502,37.079 23.300 L 36.658 22.969 36.671 17.737 L 36.685 12.504 35.310 11.079 C 34.553 10.295,33.668 9.491,33.342 9.293 C 33.017 9.095,32.373 8.555,31.912 8.092 C 31.450 7.629,30.221 6.463,29.180 5.500 C 25.646 2.234,25.785 2.384,25.873 1.922 L 25.954 1.500 13.727 1.500 L 1.500 1.500 1.500 2.103 M47.733 1.734 C 47.483 2.386,47.752 11.420,48.037 11.941 C 48.311 12.441,48.309 12.509,47.993 13.444 C 47.687 14.349,47.665 14.808,47.706 19.421 L 47.750 24.417 54.000 24.460 L 60.250 24.504 60.192 18.637 C 60.138 13.153,60.153 12.755,60.432 12.551 C 60.662 12.383,61.866 12.333,65.689 12.333 C 70.449 12.333,70.672 12.319,71.249 11.978 C 72.012 11.528,72.042 10.784,71.302 10.698 C 70.988 10.662,70.838 10.537,70.802 10.282 C 70.765 10.024,70.616 9.901,70.292 9.864 C 69.908 9.820,69.833 9.732,69.833 9.322 C 69.833 8.912,69.766 8.833,69.417 8.833 C 69.083 8.833,69.000 8.750,69.000 8.417 C 69.000 8.065,68.922 8.000,68.500 8.000 C 68.058 8.000,68.000 7.943,68.000 7.511 C 68.000 7.102,67.926 7.014,67.542 6.969 C 67.220 6.932,67.068 6.809,67.032 6.557 C 67.001 6.339,66.822 6.158,66.574 6.096 C 66.309 6.029,66.167 5.875,66.167 5.654 C 66.167 5.467,66.092 5.360,66.000 5.417 C 65.908 5.473,65.833 5.440,65.833 5.343 C 65.833 5.246,65.722 5.167,65.587 5.167 C 65.451 5.167,65.293 4.981,65.236 4.753 C 65.149 4.405,65.003 4.323,64.316 4.232 C 63.599 4.137,63.500 4.076,63.500 3.729 C 63.500 3.401,63.415 3.333,63.000 3.333 C 62.556 3.333,62.500 3.278,62.500 2.833 C 62.500 2.389,62.444 2.333,62.000 2.333 C 61.578 2.333,61.500 2.269,61.500 1.917 L 61.500 1.500 54.661 1.500 C 48.943 1.500,47.808 1.538,47.733 1.734 M24.667 7.417 L 24.667 11.667 20.375 11.644 C 18.015 11.631,16.256 11.588,16.467 11.548 C 16.679 11.507,16.921 11.292,17.006 11.068 C 17.091 10.844,17.350 10.589,17.580 10.501 C 17.838 10.403,18.000 10.211,18.000 10.004 C 18.000 9.740,18.109 9.667,18.500 9.667 C 18.918 9.667,19.000 9.601,19.000 9.262 C 19.000 8.968,19.104 8.842,19.375 8.803 C 19.644 8.765,19.765 8.620,19.803 8.292 C 19.847 7.908,19.935 7.833,20.344 7.833 C 20.751 7.833,20.833 7.765,20.833 7.428 C 20.833 7.109,20.932 7.011,21.292 6.969 C 21.652 6.928,21.761 6.818,21.803 6.458 C 21.844 6.098,21.942 6.000,22.261 6.000 C 22.580 6.000,22.667 5.913,22.667 5.594 C 22.667 5.276,22.765 5.177,23.125 5.136 C 23.485 5.095,23.595 4.985,23.636 4.625 C 23.677 4.265,23.776 4.167,24.094 4.167 C 24.434 4.167,24.500 4.085,24.500 3.667 C 24.500 3.392,24.537 3.167,24.583 3.167 C 24.629 3.167,24.667 5.079,24.667 7.417 M58.833 8.333 L 58.833 11.667 54.625 11.642 C 52.310 11.628,50.623 11.585,50.875 11.547 C 51.223 11.495,51.333 11.385,51.333 11.093 C 51.333 10.799,51.451 10.685,51.833 10.608 C 52.230 10.529,52.333 10.422,52.333 10.087 C 52.333 9.695,52.388 9.667,53.150 9.667 C 53.908 9.667,53.980 9.631,54.142 9.167 C 54.255 8.842,54.430 8.667,54.640 8.667 C 54.844 8.667,55.001 8.517,55.066 8.262 C 55.129 8.009,55.308 7.836,55.542 7.803 C 55.783 7.769,55.936 7.616,55.970 7.375 C 56.002 7.151,56.139 7.000,56.312 7.000 C 56.685 7.000,57.000 6.680,57.000 6.300 C 57.000 6.091,57.127 6.000,57.417 6.000 C 57.747 6.000,57.833 5.916,57.833 5.594 C 57.833 5.280,57.936 5.173,58.292 5.119 C 58.544 5.081,58.769 5.039,58.792 5.025 C 58.815 5.011,58.833 6.500,58.833 8.333 M1.500 72.375 L 1.500 78.167 6.720 78.167 C 11.000 78.167,12.077 78.120,12.699 77.908 C 13.757 77.548,24.181 77.616,24.833 77.987 L 25.250 78.224 24.670 78.462 C 24.351 78.592,23.596 79.161,22.993 79.725 C 22.390 80.289,21.273 81.313,20.512 82.000 C 19.750 82.688,18.552 83.813,17.849 84.500 C 16.202 86.112,14.349 87.739,13.886 87.978 C 13.315 88.274,3.284 88.231,2.417 87.930 C 1.460 87.597,1.500 87.357,1.500 93.427 L 1.500 99.000 7.208 99.001 C 13.547 99.002,14.071 99.064,14.225 99.836 L 14.325 100.333 18.537 100.358 C 20.854 100.372,22.544 100.415,22.292 100.453 C 21.940 100.506,21.833 100.614,21.833 100.917 C 21.833 101.223,21.731 101.323,21.375 101.364 C 21.015 101.405,20.905 101.515,20.864 101.875 C 20.823 102.235,20.724 102.333,20.406 102.333 C 20.087 102.333,20.000 102.420,20.000 102.739 C 20.000 103.058,19.902 103.156,19.542 103.197 C 19.290 103.226,19.074 103.344,19.063 103.458 C 19.051 103.573,19.032 103.779,19.021 103.917 C 19.008 104.067,18.833 104.167,18.583 104.167 C 18.250 104.167,18.167 104.250,18.167 104.583 C 18.167 104.933,18.088 105.000,17.678 105.000 C 16.907 105.000,16.333 105.283,16.333 105.663 C 16.333 105.858,16.223 106.000,16.071 106.000 C 15.768 106.000,15.446 106.291,15.288 106.708 C 15.227 106.869,15.039 107.000,14.871 107.000 C 14.577 107.000,13.827 109.317,13.832 110.208 C 13.833 110.481,14.243 110.500,20.083 110.500 L 26.333 110.500 26.333 89.178 C 26.333 76.566,26.271 67.690,26.180 67.451 C 25.899 66.712,24.748 66.399,24.107 66.887 C 23.819 67.106,23.422 67.337,23.224 67.399 C 23.026 67.462,22.822 67.622,22.771 67.756 C 22.719 67.890,22.487 68.000,22.255 68.000 C 21.898 68.000,21.833 68.076,21.833 68.500 C 21.833 68.944,21.778 69.000,21.333 69.000 C 20.911 69.000,20.833 69.065,20.833 69.417 C 20.833 69.750,20.750 69.833,20.417 69.833 C 20.065 69.833,20.000 69.911,20.000 70.333 C 20.000 70.755,19.935 70.833,19.587 70.833 C 19.284 70.833,19.145 70.946,19.068 71.250 C 18.993 71.549,18.851 71.667,18.565 71.667 C 18.233 71.667,18.167 71.750,18.167 72.167 C 18.167 72.637,18.128 72.667,17.514 72.667 C 16.605 72.667,16.333 72.805,16.333 73.268 C 16.333 73.581,16.245 73.667,15.920 73.667 C 15.622 73.667,15.478 73.779,15.405 74.069 C 15.346 74.304,15.142 74.512,14.914 74.569 C 14.700 74.623,14.490 74.798,14.448 74.958 C 14.406 75.119,14.362 73.563,14.350 71.500 C 14.339 69.438,14.284 67.582,14.229 67.376 C 14.066 66.771,13.288 66.689,7.208 66.634 L 1.500 66.583 1.500 72.375 " stroke="none" fill="#ed7320" fill-rule="evenodd"></path><path id="path1" d="M26.000 1.974 C 26.000 2.359,26.292 2.718,27.542 3.871 C 28.390 4.653,29.646 5.813,30.333 6.449 C 31.021 7.085,32.028 8.013,32.572 8.511 C 33.116 9.009,34.241 10.092,35.072 10.917 L 36.583 12.417 42.125 12.469 C 45.954 12.504,47.667 12.466,47.667 12.344 C 47.667 12.246,47.770 12.167,47.897 12.167 C 48.092 12.167,48.093 12.067,47.906 11.523 C 47.784 11.169,47.656 10.663,47.621 10.398 C 47.576 10.065,47.450 9.901,47.211 9.866 C 47.014 9.836,46.779 9.605,46.664 9.326 C 46.552 9.057,46.410 8.869,46.348 8.908 C 46.153 9.028,45.813 8.732,45.765 8.400 C 45.729 8.145,45.557 8.074,44.879 8.034 C 44.097 7.987,44.032 7.950,43.940 7.492 C 43.863 7.107,43.752 7.000,43.432 7.000 C 43.109 7.000,43.011 6.903,42.969 6.542 C 42.932 6.213,42.810 6.068,42.542 6.030 C 42.214 5.984,42.078 5.728,42.147 5.292 C 42.158 5.223,41.942 5.167,41.667 5.167 C 41.222 5.167,41.167 5.111,41.167 4.667 C 41.167 4.244,41.102 4.167,40.750 4.167 C 40.369 4.167,40.236 3.951,40.314 3.458 C 40.324 3.390,40.108 3.333,39.833 3.333 C 39.417 3.333,39.333 3.267,39.333 2.933 C 39.333 2.638,39.202 2.487,38.833 2.358 C 38.499 2.242,38.333 2.240,38.333 2.353 C 38.333 2.446,38.127 2.498,37.875 2.469 C 37.490 2.425,37.422 2.344,37.448 1.958 L 37.479 1.500 31.740 1.500 L 26.000 1.500 26.000 1.974 M60.458 12.513 C 60.151 12.692,60.025 21.813,60.304 23.667 C 60.435 24.534,61.356 24.841,61.468 24.054 C 61.501 23.826,61.705 23.628,62.022 23.517 C 62.299 23.421,62.481 23.271,62.428 23.184 C 62.309 22.993,62.806 22.463,62.994 22.580 C 63.068 22.625,63.221 22.438,63.334 22.165 C 63.459 21.864,63.663 21.667,63.850 21.667 C 64.042 21.667,64.200 21.508,64.265 21.250 C 64.340 20.951,64.482 20.833,64.768 20.833 C 64.987 20.833,65.176 20.758,65.188 20.667 C 65.199 20.575,65.227 20.425,65.250 20.333 C 65.273 20.242,65.301 20.092,65.313 20.000 C 65.324 19.908,65.521 19.833,65.750 19.833 C 66.144 19.833,66.167 19.783,66.167 18.917 L 66.167 18.000 67.083 18.000 C 67.943 18.000,68.000 17.975,68.000 17.594 C 68.000 17.276,68.098 17.177,68.458 17.136 C 68.818 17.095,68.928 16.985,68.969 16.625 C 69.011 16.265,69.109 16.167,69.428 16.167 C 69.746 16.167,69.833 16.080,69.833 15.761 C 69.833 15.442,69.932 15.344,70.292 15.303 C 70.652 15.261,70.761 15.152,70.803 14.792 C 70.847 14.408,70.935 14.333,71.344 14.333 C 71.613 14.333,71.824 14.277,71.814 14.208 C 71.730 13.676,71.876 13.359,72.250 13.265 C 72.651 13.164,72.843 12.833,72.500 12.833 C 72.408 12.833,72.333 12.902,72.333 12.985 C 72.333 13.239,71.864 13.087,71.451 12.699 C 71.016 12.290,61.129 12.123,60.458 12.513 M47.042 15.172 C 46.835 15.255,46.667 15.394,46.667 15.481 C 46.667 15.568,46.616 15.770,46.555 15.930 C 46.479 16.129,46.505 16.183,46.638 16.101 C 46.746 16.035,46.833 15.835,46.833 15.657 C 46.833 15.448,46.948 15.333,47.157 15.333 C 47.335 15.333,47.527 15.258,47.583 15.167 C 47.707 14.967,47.547 14.969,47.042 15.172 M45.680 16.547 C 45.673 16.710,45.498 16.912,45.292 16.995 L 44.917 17.146 45.297 17.156 C 45.693 17.167,45.927 16.832,45.779 16.464 C 45.726 16.332,45.688 16.363,45.680 16.547 M43.975 17.125 C 43.961 17.194,43.932 17.325,43.911 17.417 C 43.889 17.508,43.863 17.677,43.853 17.792 C 43.842 17.906,43.646 18.000,43.417 18.000 C 43.086 18.000,43.000 18.084,43.000 18.406 C 43.000 18.724,42.902 18.823,42.542 18.864 C 42.182 18.905,42.072 19.015,42.031 19.375 C 41.990 19.731,41.890 19.833,41.583 19.833 C 41.278 19.833,41.177 19.936,41.136 20.285 C 41.098 20.608,40.965 20.764,40.667 20.834 C 40.403 20.895,40.230 21.066,40.197 21.298 C 40.159 21.557,40.028 21.667,39.757 21.667 C 39.456 21.667,39.355 21.776,39.298 22.162 C 39.198 22.846,39.896 22.821,40.182 22.131 C 40.294 21.858,40.502 21.667,40.684 21.667 C 40.875 21.667,41.034 21.508,41.098 21.250 C 41.194 20.869,41.356 20.756,41.716 20.816 C 41.789 20.828,41.925 20.620,42.018 20.353 C 42.111 20.085,42.338 19.827,42.523 19.779 C 42.707 19.731,42.899 19.536,42.948 19.346 C 42.998 19.156,43.105 18.991,43.186 18.979 C 43.267 18.968,43.408 18.940,43.500 18.917 C 43.592 18.894,43.742 18.866,43.833 18.854 C 43.925 18.843,44.000 18.646,44.000 18.417 C 44.000 18.083,44.083 18.000,44.417 18.000 C 44.769 18.000,44.833 17.922,44.833 17.500 C 44.833 17.033,44.062 16.696,43.975 17.125 M38.353 23.031 C 38.337 23.384,38.237 23.492,37.875 23.547 L 37.417 23.617 37.880 23.642 C 38.373 23.668,38.581 23.392,38.450 22.885 C 38.398 22.683,38.366 22.731,38.353 23.031 M25.051 34.281 L 25.083 34.750 23.917 34.750 C 22.768 34.750,22.749 34.757,22.697 35.208 C 22.656 35.568,22.558 35.667,22.239 35.667 C 21.899 35.667,21.833 35.748,21.833 36.167 C 21.833 36.611,21.778 36.667,21.333 36.667 C 20.915 36.667,20.833 36.733,20.833 37.072 C 20.833 37.365,20.730 37.492,20.458 37.530 C 20.192 37.568,20.068 37.714,20.032 38.032 C 19.992 38.378,19.878 38.492,19.532 38.532 C 19.220 38.568,19.068 38.693,19.032 38.943 C 19.001 39.161,18.822 39.342,18.574 39.404 C 18.279 39.478,18.167 39.620,18.167 39.920 C 18.167 40.290,18.098 40.333,17.514 40.333 C 16.657 40.333,16.333 40.470,16.333 40.831 C 16.333 41.002,16.123 41.213,15.835 41.332 C 15.562 41.446,15.369 41.590,15.408 41.652 C 15.538 41.863,15.223 42.183,14.860 42.210 C 14.662 42.225,14.491 42.297,14.479 42.369 C 14.468 42.441,14.449 42.569,14.437 42.653 C 14.411 42.849,14.182 43.077,13.986 43.104 C 13.902 43.116,13.774 43.134,13.702 43.146 C 13.440 43.187,13.525 43.895,13.839 44.296 C 14.017 44.521,14.121 44.772,14.071 44.853 C 14.020 44.937,16.319 45.009,19.407 45.021 C 24.399 45.040,25.088 45.057,25.208 45.161 C 25.231 45.181,25.495 45.232,25.794 45.275 L 26.338 45.352 26.294 39.642 L 26.250 33.933 25.634 33.873 C 25.049 33.816,25.019 33.837,25.051 34.281 M48.270 44.458 C 48.330 44.710,48.444 45.043,48.523 45.197 C 48.602 45.352,48.667 47.686,48.667 50.385 C 48.667 54.749,48.697 55.318,48.943 55.521 C 49.355 55.863,58.988 55.856,59.400 55.514 C 59.814 55.170,59.696 54.266,59.227 54.199 C 58.989 54.165,58.840 53.993,58.777 53.679 C 58.705 53.318,58.594 53.213,58.300 53.229 C 57.999 53.246,57.905 53.151,57.864 52.792 C 57.823 52.432,57.724 52.333,57.406 52.333 C 57.035 52.333,56.902 52.110,56.982 51.621 C 56.993 51.550,56.781 51.448,56.510 51.394 C 56.175 51.327,56.002 51.182,55.967 50.939 C 55.936 50.721,55.776 50.563,55.552 50.531 C 55.296 50.495,55.171 50.345,55.135 50.031 C 55.095 49.682,54.982 49.572,54.625 49.531 C 54.265 49.489,54.167 49.391,54.167 49.072 C 54.167 48.688,54.115 48.667,53.167 48.667 C 52.174 48.667,51.660 48.084,52.375 47.769 C 52.490 47.719,52.302 47.721,51.958 47.774 L 51.333 47.870 51.333 46.952 C 51.333 46.070,51.312 46.025,50.806 45.849 C 50.516 45.748,50.328 45.616,50.388 45.556 C 50.559 45.386,50.160 45.000,49.813 45.000 C 49.594 45.000,49.500 44.880,49.500 44.601 C 49.500 44.177,49.226 44.000,48.567 44.000 C 48.208 44.000,48.173 44.054,48.270 44.458 M37.177 45.361 C 37.239 46.650,37.626 47.583,38.097 47.583 C 38.732 47.583,38.847 46.621,38.223 46.532 C 37.962 46.495,37.822 46.313,37.719 45.878 C 37.584 45.304,37.155 44.895,37.177 45.361 M42.205 51.750 C 42.224 51.979,42.298 52.176,42.370 52.188 C 42.441 52.199,42.575 52.227,42.667 52.250 C 42.758 52.273,42.908 52.301,43.000 52.313 C 43.092 52.324,43.167 52.482,43.167 52.663 C 43.167 52.877,43.314 53.031,43.585 53.099 C 43.832 53.161,44.042 53.360,44.099 53.587 C 44.154 53.805,44.365 54.014,44.586 54.069 C 44.824 54.129,44.998 54.313,45.030 54.539 C 45.084 54.915,46.833 55.507,46.833 55.149 C 46.833 55.067,46.651 55.000,46.428 55.000 C 46.109 55.000,46.011 54.902,45.969 54.542 C 45.928 54.182,45.818 54.072,45.458 54.031 C 45.098 53.989,45.000 53.891,45.000 53.572 C 45.000 53.254,44.913 53.167,44.594 53.167 C 44.276 53.167,44.177 53.068,44.136 52.708 C 44.095 52.348,43.985 52.239,43.625 52.197 C 43.265 52.156,43.167 52.058,43.167 51.739 C 43.167 51.400,43.085 51.333,42.669 51.333 C 42.239 51.333,42.175 51.391,42.205 51.750 M13.236 56.022 C 13.109 56.228,11.752 56.866,11.167 56.994 C 10.902 57.052,10.731 57.219,10.698 57.449 C 10.666 57.675,10.508 57.832,10.281 57.865 C 10.024 57.901,9.901 58.051,9.864 58.375 C 9.822 58.736,9.725 58.833,9.401 58.833 C 9.077 58.833,8.970 58.940,8.888 59.349 C 8.796 59.813,8.737 59.856,8.308 59.770 C 7.832 59.675,6.951 59.952,7.078 60.157 C 7.180 60.324,6.943 60.633,6.666 60.695 C 6.530 60.725,6.288 60.957,6.128 61.209 C 5.968 61.461,5.780 61.659,5.710 61.648 C 5.428 61.602,5.168 61.674,5.186 61.792 C 5.264 62.284,5.131 62.500,4.750 62.500 C 4.521 62.500,4.324 62.575,4.313 62.667 C 4.301 62.758,4.273 62.908,4.250 63.000 C 4.227 63.092,4.199 63.242,4.188 63.333 C 4.176 63.425,3.979 63.500,3.750 63.500 C 3.356 63.500,3.333 63.550,3.333 64.417 L 3.333 65.333 2.417 65.333 L 1.500 65.333 1.500 65.917 C 1.500 66.636,0.597 66.529,7.683 66.648 C 14.214 66.757,14.333 66.774,14.333 67.604 L 14.333 68.000 18.494 68.000 C 22.484 68.000,22.662 67.986,22.833 67.667 C 22.931 67.483,23.127 67.333,23.267 67.333 C 23.407 67.333,23.775 67.140,24.085 66.904 L 24.647 66.476 25.384 66.802 C 25.913 67.036,26.152 67.254,26.233 67.575 L 26.345 68.023 31.492 67.970 C 34.323 67.941,36.702 67.854,36.778 67.778 C 36.993 67.563,37.056 56.686,36.844 56.430 C 36.674 56.225,35.206 56.572,34.886 56.892 C 34.826 56.951,34.565 57.000,34.306 57.000 C 33.917 57.000,33.833 57.071,33.833 57.405 C 33.833 57.698,33.730 57.825,33.458 57.863 C 33.190 57.902,33.068 58.047,33.031 58.375 C 32.986 58.759,32.898 58.833,32.489 58.833 C 32.084 58.833,32.000 58.902,32.000 59.232 C 32.000 59.518,31.882 59.660,31.583 59.735 C 31.279 59.812,31.167 59.951,31.167 60.253 C 31.167 60.647,30.727 60.770,29.730 60.655 C 29.674 60.648,29.487 60.873,29.316 61.155 C 29.035 61.617,28.829 61.745,28.458 61.686 C 28.390 61.676,28.342 61.723,28.353 61.792 C 28.431 62.284,28.298 62.500,27.917 62.500 C 27.688 62.500,27.491 62.575,27.479 62.667 C 27.468 62.758,27.440 62.908,27.417 63.000 C 27.394 63.092,27.366 63.242,27.354 63.333 C 27.343 63.425,27.146 63.500,26.917 63.500 C 26.523 63.500,26.500 63.550,26.500 64.417 C 26.500 65.256,26.468 65.333,26.125 65.334 C 25.919 65.335,25.525 65.485,25.250 65.667 C 24.584 66.108,24.677 66.146,23.435 64.917 C 22.834 64.321,22.270 63.833,22.182 63.833 C 22.094 63.833,21.577 63.402,21.033 62.875 C 20.489 62.348,19.157 61.092,18.074 60.083 C 16.991 59.075,15.762 57.898,15.344 57.469 C 14.381 56.480,13.379 55.792,13.236 56.022 M2.396 64.578 C 2.344 64.712,2.341 64.919,2.388 65.036 C 2.441 65.168,2.479 65.137,2.487 64.953 C 2.494 64.790,2.669 64.588,2.875 64.505 L 3.250 64.354 2.870 64.344 C 2.661 64.338,2.447 64.443,2.396 64.578 M12.463 78.093 C 12.432 78.124,12.085 78.168,11.693 78.191 C 10.914 78.237,10.768 78.354,10.688 79.000 C 10.676 79.092,10.479 79.167,10.250 79.167 C 9.920 79.167,9.833 79.251,9.833 79.572 C 9.833 79.891,9.735 79.989,9.375 80.031 C 9.015 80.072,8.905 80.182,8.864 80.542 C 8.823 80.902,8.724 81.000,8.406 81.000 C 8.066 81.000,8.000 81.081,8.000 81.500 C 8.000 81.944,7.944 82.000,7.500 82.000 C 7.078 82.000,7.000 82.065,7.000 82.417 C 7.000 82.764,6.921 82.833,6.523 82.833 C 6.109 82.833,6.048 82.894,6.065 83.292 C 6.080 83.673,6.007 83.759,5.625 83.803 C 5.269 83.844,5.167 83.944,5.167 84.249 C 5.167 84.531,5.060 84.659,4.792 84.697 C 4.523 84.735,4.402 84.880,4.364 85.208 C 4.314 85.642,3.595 85.840,2.625 85.686 C 2.556 85.676,2.500 85.820,2.500 86.008 C 2.500 86.221,2.327 86.425,2.042 86.550 C 1.365 86.845,1.265 87.832,1.924 87.706 C 2.202 87.653,2.422 87.708,2.511 87.852 C 2.781 88.288,12.723 88.277,13.160 87.840 C 13.511 87.489,13.705 78.894,13.372 78.402 C 13.249 78.220,12.568 77.988,12.463 78.093 M1.500 104.750 L 1.500 110.500 7.667 110.500 L 13.833 110.500 13.836 109.958 C 13.837 109.660,13.946 109.117,14.079 108.750 C 14.359 107.972,14.443 100.476,14.179 99.781 C 13.906 99.064,13.340 99.000,7.225 99.000 L 1.500 99.000 1.500 104.750 " stroke="none" fill="#5cbcbb" fill-rule="evenodd"></path><path id="path2" d="M37.420 1.822 C 37.361 2.010,37.359 2.239,37.416 2.332 C 37.550 2.550,38.327 2.551,38.354 2.333 C 38.437 1.670,38.395 1.581,37.973 1.532 C 37.645 1.494,37.500 1.570,37.420 1.822 M1.875 2.628 L 1.500 2.690 1.500 7.512 L 1.500 12.333 6.744 12.333 C 11.964 12.333,11.989 12.332,12.183 11.970 C 12.350 11.657,12.322 11.563,11.981 11.306 C 11.762 11.142,10.721 10.186,9.667 9.182 C 5.864 5.561,5.073 4.834,4.417 4.359 C 4.050 4.094,3.525 3.635,3.250 3.340 C 2.644 2.691,2.365 2.547,1.875 2.628 M71.288 11.931 L 70.825 12.181 71.361 12.632 C 71.656 12.880,71.939 13.084,71.990 13.086 C 72.041 13.087,72.176 13.147,72.290 13.220 C 72.432 13.310,72.465 13.270,72.397 13.092 C 72.342 12.950,72.373 12.833,72.466 12.833 C 72.558 12.833,72.633 12.586,72.633 12.284 C 72.633 11.638,72.091 11.496,71.288 11.931 M47.667 12.342 C 47.667 12.462,45.933 12.501,42.175 12.467 L 36.684 12.417 36.671 17.649 C 36.657 23.491,36.658 23.500,37.776 23.500 C 38.255 23.500,38.333 23.443,38.333 23.094 C 38.333 22.776,38.432 22.677,38.792 22.636 C 39.152 22.595,39.261 22.485,39.303 22.125 C 39.344 21.769,39.444 21.667,39.749 21.667 C 40.029 21.667,40.159 21.559,40.197 21.298 C 40.230 21.066,40.403 20.895,40.667 20.834 C 40.965 20.764,41.098 20.608,41.136 20.285 C 41.177 19.936,41.278 19.833,41.583 19.833 C 41.890 19.833,41.990 19.731,42.031 19.375 C 42.072 19.015,42.182 18.905,42.542 18.864 C 42.902 18.823,43.000 18.724,43.000 18.406 C 43.000 18.084,43.086 18.000,43.417 18.000 C 43.646 18.000,43.842 17.906,43.853 17.792 C 43.863 17.677,43.882 17.471,43.894 17.333 C 43.908 17.178,44.107 17.073,44.417 17.057 C 44.692 17.042,45.050 17.024,45.212 17.015 C 45.375 17.007,45.580 16.813,45.667 16.583 C 45.763 16.330,45.956 16.167,46.159 16.167 C 46.380 16.167,46.531 16.020,46.602 15.734 C 46.671 15.458,46.885 15.240,47.189 15.134 C 47.469 15.036,47.667 14.847,47.667 14.676 C 47.667 14.516,47.816 13.952,47.998 13.423 C 48.180 12.894,48.288 12.395,48.238 12.314 C 48.111 12.108,47.667 12.130,47.667 12.342 M66.167 18.477 C 66.167 19.105,66.922 19.039,67.044 18.400 C 67.110 18.053,67.057 18.000,66.644 18.000 C 66.230 18.000,66.167 18.063,66.167 18.477 M23.852 34.122 C 23.474 34.525,23.763 34.826,24.532 34.831 C 25.055 34.834,25.229 34.626,25.085 34.173 C 24.968 33.804,24.179 33.771,23.852 34.122 M36.944 44.111 C 36.675 44.380,36.847 45.014,37.229 45.159 C 37.503 45.263,37.659 45.489,37.735 45.894 C 37.816 46.328,37.939 46.492,38.214 46.531 C 38.554 46.579,38.579 46.660,38.532 47.545 C 38.504 48.074,38.541 48.496,38.615 48.483 C 39.097 48.401,39.370 48.556,39.525 49.000 C 39.636 49.319,39.814 49.500,40.016 49.500 C 40.235 49.500,40.333 49.618,40.333 49.880 C 40.333 50.172,40.437 50.269,40.778 50.297 C 41.325 50.343,41.324 50.342,41.369 50.888 C 41.404 51.310,41.453 51.333,42.286 51.333 C 43.108 51.333,43.167 51.360,43.167 51.739 C 43.167 52.058,43.265 52.156,43.625 52.197 C 43.985 52.239,44.095 52.348,44.136 52.708 C 44.177 53.068,44.276 53.167,44.594 53.167 C 44.913 53.167,45.000 53.254,45.000 53.572 C 45.000 53.891,45.098 53.989,45.458 54.031 C 45.818 54.072,45.928 54.182,45.969 54.542 C 46.011 54.902,46.109 55.000,46.428 55.000 C 46.651 55.000,46.833 55.072,46.833 55.161 C 46.833 55.440,47.398 55.639,48.508 55.750 C 49.472 55.846,49.540 55.834,49.167 55.632 L 48.750 55.407 48.661 50.329 C 48.601 46.897,48.504 45.047,48.362 44.625 L 48.151 44.000 42.603 44.000 C 39.552 44.000,37.006 44.050,36.944 44.111 M51.333 47.344 C 51.333 47.655,51.419 47.833,51.570 47.833 C 52.447 47.833,52.704 46.895,51.833 46.870 C 51.388 46.857,51.333 46.909,51.333 47.344 M52.375 47.788 C 51.900 47.955,52.140 48.667,52.672 48.667 C 53.124 48.667,53.172 48.619,53.119 48.222 C 53.061 47.791,52.801 47.639,52.375 47.788 M2.898 64.497 C 2.301 64.738,2.266 65.333,2.849 65.333 C 3.276 65.333,3.333 65.274,3.333 64.833 C 3.333 64.558,3.315 64.338,3.292 64.344 C 3.269 64.350,3.092 64.418,2.898 64.497 M26.213 64.542 C 25.852 65.008,25.835 65.333,26.172 65.333 C 26.425 65.333,26.500 65.220,26.500 64.833 C 26.500 64.281,26.452 64.233,26.213 64.542 M12.958 77.777 C 12.568 77.885,12.585 78.167,12.982 78.167 C 13.474 78.167,13.500 78.415,13.500 83.097 C 13.500 87.278,13.483 87.517,13.167 87.833 L 12.833 88.167 13.178 88.167 C 13.857 88.167,15.099 87.192,17.849 84.500 C 18.552 83.813,19.750 82.688,20.512 82.000 C 21.273 81.313,22.390 80.289,22.993 79.725 C 23.596 79.161,24.351 78.592,24.670 78.462 L 25.250 78.224 24.833 77.987 C 24.423 77.754,13.730 77.565,12.958 77.777 " stroke="none" fill="#a3d0d6" fill-rule="evenodd"></path><path id="path3" d="M213.938 1.909 C 213.602 2.272,213.398 2.324,212.154 2.368 C 210.760 2.416,210.750 2.420,210.697 2.875 C 210.645 3.332,210.641 3.333,209.322 3.333 C 208.023 3.333,208.000 3.341,208.000 3.750 C 208.000 4.132,207.938 4.167,207.262 4.167 C 206.508 4.167,206.000 4.473,206.000 4.929 C 206.000 5.067,205.837 5.167,205.608 5.167 C 205.392 5.167,205.020 5.347,204.782 5.568 C 204.543 5.789,204.120 6.020,203.841 6.082 C 203.451 6.167,203.333 6.284,203.333 6.586 C 203.333 6.890,203.230 6.990,202.875 7.031 C 202.515 7.072,202.405 7.182,202.364 7.542 C 202.323 7.902,202.224 8.000,201.906 8.000 C 201.584 8.000,201.500 8.086,201.500 8.417 C 201.500 8.769,201.422 8.833,201.000 8.833 C 200.556 8.833,200.500 8.889,200.500 9.333 C 200.500 9.752,200.434 9.833,200.094 9.833 C 199.776 9.833,199.677 9.932,199.636 10.290 C 199.601 10.591,199.469 10.768,199.250 10.810 C 198.804 10.893,198.672 11.131,198.669 11.864 C 198.667 12.409,198.615 12.484,198.208 12.531 C 197.859 12.571,197.738 12.684,197.701 13.005 C 197.672 13.249,197.497 13.495,197.284 13.589 C 196.991 13.717,196.906 13.913,196.866 14.549 C 196.824 15.206,196.746 15.375,196.431 15.495 C 196.011 15.654,195.833 16.227,195.833 17.419 C 195.833 18.037,195.779 18.144,195.421 18.234 C 195.013 18.337,195.009 18.353,194.963 20.544 C 194.919 22.650,194.901 22.752,194.562 22.801 C 193.711 22.922,193.766 29.537,194.621 29.912 C 194.971 30.066,194.993 30.188,195.037 32.162 C 195.081 34.133,195.104 34.259,195.451 34.411 C 195.756 34.545,195.827 34.729,195.868 35.495 C 195.914 36.363,195.944 36.420,196.375 36.469 C 196.812 36.520,196.833 36.564,196.833 37.428 C 196.833 38.277,196.859 38.333,197.241 38.333 C 197.616 38.333,197.653 38.405,197.700 39.208 C 197.747 40.024,197.781 40.087,198.208 40.136 C 198.592 40.180,198.667 40.268,198.667 40.678 C 198.667 41.108,198.726 41.167,199.158 41.167 C 199.625 41.167,199.651 41.205,199.699 41.958 C 199.740 42.593,199.825 42.783,200.125 42.915 C 200.331 43.005,200.500 43.218,200.500 43.387 C 200.500 43.573,200.688 43.767,200.972 43.874 C 201.231 43.972,201.512 44.209,201.597 44.401 C 201.681 44.593,201.902 44.772,202.088 44.798 C 202.275 44.825,202.500 45.013,202.588 45.215 C 202.697 45.464,202.980 45.634,203.458 45.740 C 204.042 45.870,204.167 45.965,204.167 46.282 C 204.167 46.598,204.256 46.667,204.667 46.667 C 205.053 46.667,205.167 46.741,205.167 46.994 C 205.167 47.408,205.642 47.667,206.406 47.667 C 206.929 47.667,207.000 47.717,207.000 48.083 C 207.000 48.477,207.050 48.500,207.917 48.500 C 208.772 48.500,208.833 48.527,208.833 48.899 C 208.833 49.407,209.094 49.500,210.514 49.500 C 211.534 49.500,211.667 49.536,211.667 49.816 C 211.667 50.321,211.849 50.333,219.264 50.333 L 226.333 50.333 226.333 49.923 C 226.333 49.525,226.372 49.512,227.708 49.465 C 229.071 49.417,229.084 49.412,229.136 48.958 C 229.186 48.521,229.230 48.500,230.094 48.500 C 230.949 48.500,231.000 48.477,231.000 48.083 C 231.000 47.710,231.068 47.667,231.653 47.667 C 232.561 47.667,232.833 47.528,232.833 47.066 C 232.833 46.733,232.917 46.667,233.335 46.667 C 233.665 46.667,234.015 46.496,234.360 46.167 C 234.647 45.892,235.020 45.667,235.188 45.667 C 235.372 45.667,235.534 45.507,235.594 45.266 C 235.650 45.045,235.838 44.827,236.012 44.782 C 236.187 44.736,236.403 44.504,236.494 44.266 C 236.592 44.007,236.787 43.833,236.980 43.833 C 237.187 43.833,237.363 43.656,237.475 43.333 C 237.571 43.058,237.768 42.833,237.912 42.833 C 238.204 42.833,238.500 42.198,238.500 41.572 C 238.500 41.251,238.586 41.167,238.917 41.167 C 239.326 41.167,239.333 41.144,239.333 39.833 C 239.333 38.532,239.324 38.500,238.928 38.500 C 238.609 38.500,238.511 38.402,238.469 38.042 C 238.428 37.685,238.318 37.572,237.969 37.532 C 237.655 37.495,237.505 37.370,237.469 37.115 C 237.424 36.800,237.296 36.743,236.542 36.700 C 235.695 36.651,235.667 36.633,235.667 36.158 C 235.667 35.726,235.608 35.667,235.178 35.667 C 234.768 35.667,234.680 35.592,234.636 35.208 C 234.595 34.848,234.485 34.739,234.125 34.697 C 233.859 34.667,233.667 34.543,233.667 34.401 C 233.667 34.129,233.016 33.833,232.417 33.833 C 232.110 33.833,232.010 33.731,231.969 33.375 C 231.928 33.018,231.818 32.905,231.469 32.865 C 231.155 32.829,231.005 32.704,230.969 32.448 C 230.882 31.842,228.333 31.794,228.333 32.399 C 228.333 32.725,228.237 32.822,227.875 32.864 C 227.515 32.905,227.405 33.015,227.364 33.375 C 227.323 33.735,227.224 33.833,226.906 33.833 C 226.587 33.833,226.500 33.920,226.500 34.239 C 226.500 34.558,226.402 34.656,226.042 34.697 C 225.684 34.738,225.572 34.849,225.531 35.200 C 225.483 35.617,225.416 35.654,224.615 35.700 C 223.810 35.747,223.746 35.782,223.697 36.208 C 223.647 36.646,223.604 36.667,222.731 36.667 C 221.980 36.667,221.745 36.740,221.402 37.083 C 220.784 37.701,217.057 37.736,216.970 37.125 C 216.924 36.803,216.801 36.743,216.102 36.698 C 215.463 36.658,215.182 36.541,214.798 36.157 C 214.525 35.884,214.128 35.667,213.904 35.667 C 213.626 35.667,213.500 35.573,213.500 35.367 C 213.500 34.987,213.185 34.667,212.812 34.667 C 212.639 34.667,212.502 34.516,212.470 34.292 C 212.432 34.026,212.286 33.902,211.968 33.865 C 211.622 33.825,211.508 33.711,211.468 33.365 C 211.432 33.047,211.308 32.901,211.042 32.863 C 210.710 32.816,210.667 32.714,210.667 31.984 C 210.667 31.200,210.642 31.153,210.167 31.058 L 209.667 30.958 209.667 29.718 C 209.667 28.484,209.489 27.871,209.059 27.617 C 208.660 27.381,208.744 24.333,209.149 24.333 C 209.565 24.333,209.667 24.021,209.667 22.738 C 209.667 21.768,209.713 21.625,210.167 21.192 C 210.475 20.897,210.667 20.546,210.667 20.274 C 210.667 20.031,210.736 19.833,210.821 19.833 C 211.177 19.833,211.500 19.272,211.500 18.655 C 211.500 18.038,211.529 18.000,212.000 18.000 C 212.422 18.000,212.500 17.935,212.500 17.583 C 212.500 17.255,212.585 17.167,212.899 17.167 C 213.119 17.167,213.534 16.946,213.822 16.677 C 214.110 16.408,214.550 16.164,214.798 16.135 C 215.120 16.098,215.265 15.975,215.303 15.708 L 215.357 15.333 218.985 15.333 L 222.613 15.333 222.803 15.750 C 222.968 16.113,223.100 16.167,223.819 16.167 C 224.596 16.167,224.648 16.194,224.697 16.625 C 224.735 16.949,224.857 17.099,225.115 17.135 C 225.342 17.168,225.499 17.325,225.531 17.552 C 225.568 17.810,225.718 17.932,226.042 17.969 C 226.401 18.011,226.500 18.109,226.500 18.425 C 226.500 18.712,226.616 18.856,226.907 18.929 C 227.155 18.991,227.334 19.172,227.365 19.391 C 227.446 19.958,230.665 19.944,230.915 19.375 C 231.005 19.169,231.196 19.000,231.340 19.000 C 231.688 19.000,232.000 18.669,232.000 18.300 C 232.000 18.091,232.127 18.000,232.417 18.000 C 232.750 18.000,232.833 17.917,232.833 17.583 C 232.833 17.253,232.917 17.167,233.239 17.167 C 233.875 17.167,234.524 16.859,234.614 16.516 C 234.662 16.334,234.900 16.162,235.181 16.105 C 235.519 16.038,235.667 15.909,235.667 15.682 C 235.667 15.471,235.799 15.338,236.042 15.303 C 236.310 15.265,236.432 15.120,236.469 14.792 C 236.513 14.411,236.603 14.333,236.998 14.333 C 237.302 14.333,237.650 14.158,237.959 13.849 C 238.226 13.582,238.625 13.338,238.847 13.307 C 239.451 13.222,239.477 10.782,238.875 10.697 C 238.604 10.658,238.500 10.532,238.500 10.238 C 238.500 9.899,238.418 9.833,238.000 9.833 C 237.566 9.833,237.500 9.773,237.498 9.375 C 237.494 8.583,237.307 8.166,236.911 8.067 C 236.698 8.014,236.486 7.802,236.433 7.589 C 236.334 7.193,235.917 7.006,235.125 7.002 C 234.727 7.000,234.667 6.934,234.667 6.500 C 234.667 6.084,234.600 6.000,234.268 6.000 C 233.982 6.000,233.840 5.882,233.765 5.583 C 233.690 5.285,233.548 5.167,233.264 5.167 C 233.047 5.167,232.628 4.942,232.333 4.667 C 232.017 4.371,231.617 4.167,231.355 4.167 C 231.056 4.167,230.859 4.045,230.748 3.792 C 230.602 3.460,230.444 3.411,229.385 3.368 C 228.221 3.321,228.186 3.306,228.135 2.868 L 228.083 2.417 226.292 2.369 C 224.511 2.322,224.500 2.320,224.500 1.911 L 224.500 1.500 219.409 1.500 L 214.317 1.500 213.938 1.909 M310.944 1.611 C 310.883 1.672,310.833 1.860,310.833 2.028 C 310.833 2.298,310.682 2.333,309.521 2.333 C 307.685 2.333,307.184 2.457,307.063 2.938 C 306.974 3.291,306.871 3.333,306.090 3.333 C 305.388 3.333,305.127 3.416,304.766 3.750 C 304.518 3.979,304.130 4.167,303.902 4.167 C 303.396 4.167,302.667 4.621,302.667 4.936 C 302.667 5.089,302.469 5.167,302.083 5.167 C 301.572 5.167,301.500 5.218,301.500 5.583 C 301.500 5.914,301.416 6.000,301.094 6.000 C 300.458 6.000,299.872 6.283,299.756 6.647 C 299.692 6.849,299.475 7.000,299.200 7.031 C 298.852 7.072,298.738 7.185,298.698 7.532 C 298.658 7.878,298.545 7.992,298.198 8.032 C 297.884 8.068,297.734 8.193,297.698 8.448 C 297.666 8.675,297.509 8.832,297.281 8.865 C 297.024 8.901,296.901 9.051,296.864 9.375 C 296.822 9.736,296.725 9.833,296.401 9.833 C 296.086 9.833,295.970 9.941,295.898 10.300 C 295.847 10.558,295.644 10.837,295.444 10.925 C 295.172 11.045,295.071 11.254,295.033 11.781 C 294.988 12.401,294.931 12.485,294.533 12.531 C 294.161 12.574,294.074 12.677,294.031 13.125 C 293.993 13.520,293.896 13.667,293.674 13.667 C 293.313 13.667,293.167 13.984,293.167 14.768 C 293.167 15.218,293.082 15.374,292.773 15.491 C 292.313 15.666,292.172 16.086,292.169 17.292 C 292.167 18.113,292.141 18.167,291.750 18.167 L 291.333 18.167 291.333 20.072 C 291.333 21.795,291.303 21.987,291.018 22.078 C 290.421 22.267,290.324 22.931,290.371 26.501 L 290.417 29.917 290.875 29.969 L 291.333 30.022 291.336 32.053 C 291.339 34.154,291.385 34.368,291.875 34.549 C 292.105 34.633,292.167 34.852,292.167 35.578 C 292.167 36.491,292.171 36.500,292.667 36.500 C 293.162 36.500,293.167 36.509,293.167 37.417 C 293.167 38.283,293.189 38.333,293.583 38.333 C 293.957 38.333,294.000 38.401,294.000 38.986 C 294.000 39.895,294.139 40.167,294.601 40.167 C 294.933 40.167,295.000 40.250,295.000 40.667 C 295.000 41.089,295.065 41.167,295.417 41.167 C 295.746 41.167,295.833 41.251,295.833 41.571 C 295.833 41.797,296.053 42.194,296.332 42.473 C 296.606 42.747,296.905 43.166,296.995 43.403 C 297.085 43.640,297.259 43.833,297.383 43.833 C 297.506 43.833,297.859 44.058,298.167 44.333 C 298.508 44.638,298.910 44.833,299.197 44.833 C 299.608 44.833,299.667 44.896,299.667 45.333 C 299.667 45.756,299.731 45.833,300.083 45.833 C 300.417 45.833,300.500 45.917,300.500 46.250 C 300.500 46.598,300.579 46.667,300.982 46.667 C 301.288 46.667,301.661 46.850,302.000 47.167 C 302.294 47.442,302.715 47.667,302.934 47.667 C 303.154 47.667,303.333 47.736,303.333 47.821 C 303.333 48.259,303.896 48.500,304.918 48.500 C 305.950 48.500,305.979 48.512,306.031 48.958 C 306.083 49.412,306.097 49.417,307.448 49.465 C 308.711 49.510,308.816 49.540,308.864 49.882 L 308.917 50.250 315.750 50.250 L 322.583 50.250 322.637 49.875 C 322.687 49.522,322.767 49.500,324.024 49.500 C 325.280 49.500,325.388 49.471,325.850 49.009 C 326.248 48.611,326.508 48.508,327.213 48.467 C 327.971 48.423,328.090 48.368,328.137 48.042 C 328.175 47.773,328.302 47.667,328.584 47.667 C 329.221 47.667,329.859 47.355,329.952 46.998 C 330.013 46.764,330.180 46.667,330.519 46.667 C 330.921 46.667,331.000 46.598,331.000 46.250 C 331.000 45.920,331.084 45.833,331.406 45.833 C 332.044 45.833,332.691 45.526,332.782 45.179 C 332.827 45.004,333.045 44.816,333.266 44.761 C 333.509 44.700,333.667 44.539,333.667 44.351 C 333.667 44.141,333.827 44.010,334.167 43.942 C 334.549 43.865,334.667 43.751,334.667 43.457 C 334.667 43.183,334.810 43.019,335.167 42.884 C 335.502 42.758,335.667 42.581,335.667 42.348 C 335.667 42.157,335.736 42.000,335.821 42.000 C 336.177 42.000,336.500 41.439,336.500 40.821 C 336.500 40.205,336.529 40.167,337.000 40.167 C 337.416 40.167,337.500 40.100,337.500 39.768 C 337.500 39.483,337.617 39.340,337.911 39.266 C 338.257 39.180,338.340 39.033,338.430 38.350 C 338.515 37.711,338.624 37.497,338.936 37.355 C 339.285 37.196,339.333 37.062,339.333 36.254 C 339.333 35.568,339.394 35.333,339.571 35.333 C 340.004 35.333,340.333 34.351,340.333 33.058 C 340.333 31.863,340.343 31.833,340.750 31.833 L 341.167 31.833 341.167 25.917 L 341.167 20.000 340.757 20.000 C 340.358 20.000,340.345 19.961,340.298 18.625 C 340.250 17.263,340.246 17.250,339.792 17.197 C 339.355 17.147,339.333 17.102,339.333 16.250 C 339.333 15.188,339.106 14.500,338.754 14.500 C 338.592 14.500,338.500 14.344,338.500 14.071 C 338.500 13.816,338.297 13.438,338.000 13.141 C 337.673 12.814,337.500 12.473,337.500 12.154 C 337.500 11.724,337.442 11.667,337.000 11.667 C 336.556 11.667,336.500 11.611,336.500 11.167 C 336.500 10.744,336.435 10.667,336.083 10.667 C 335.750 10.667,335.667 10.583,335.667 10.250 C 335.667 9.898,335.589 9.833,335.167 9.833 C 334.721 9.833,334.667 9.779,334.667 9.326 C 334.667 8.652,334.014 8.000,333.341 8.000 C 332.888 8.000,332.833 7.946,332.833 7.500 C 332.833 7.081,332.767 7.000,332.428 7.000 C 332.109 7.000,332.011 6.902,331.969 6.542 C 331.929 6.193,331.816 6.072,331.495 6.034 C 331.251 6.006,331.005 5.830,330.911 5.617 C 330.783 5.326,330.587 5.240,329.958 5.199 C 329.254 5.154,329.167 5.105,329.167 4.759 C 329.167 4.305,328.891 4.167,327.986 4.167 C 327.401 4.167,327.333 4.124,327.333 3.750 C 327.333 3.352,327.289 3.333,326.328 3.333 C 325.578 3.333,325.298 3.268,325.225 3.077 C 325.041 2.598,324.226 2.333,322.933 2.333 C 321.821 2.333,321.636 2.287,321.265 1.917 L 320.848 1.500 315.952 1.500 C 313.259 1.500,311.006 1.550,310.944 1.611 M102.520 2.559 C 102.382 2.725,102.343 8.965,102.374 26.101 L 102.417 49.417 109.750 49.417 L 117.083 49.417 117.127 41.625 L 117.170 33.833 127.648 33.833 C 136.414 33.833,138.157 33.795,138.319 33.601 C 138.677 33.169,138.490 21.585,138.119 21.214 C 137.841 20.936,137.145 20.913,127.494 20.866 L 117.167 20.815 117.167 18.075 L 117.167 15.336 128.708 15.293 L 140.250 15.250 140.250 8.833 L 140.250 2.417 121.479 2.374 C 105.812 2.339,102.678 2.369,102.520 2.559 M158.950 2.439 C 158.886 2.503,158.833 2.741,158.833 2.967 C 158.833 3.193,158.646 3.552,158.417 3.765 C 158.071 4.085,158.000 4.305,158.000 5.055 C 158.000 5.925,157.982 5.962,157.500 6.058 C 157.018 6.155,157.000 6.191,157.000 7.068 C 157.000 7.878,156.960 7.983,156.632 8.030 C 156.200 8.093,156.040 8.547,156.017 9.780 C 156.002 10.543,155.956 10.650,155.625 10.697 C 155.298 10.743,155.244 10.863,155.200 11.625 C 155.165 12.232,155.079 12.500,154.920 12.500 C 154.483 12.500,154.167 13.013,154.167 13.722 C 154.167 14.287,154.095 14.453,153.792 14.585 C 153.460 14.731,153.411 14.890,153.368 15.948 C 153.321 17.112,153.306 17.147,152.868 17.198 C 152.450 17.246,152.413 17.313,152.367 18.115 C 152.324 18.860,152.266 18.986,151.950 19.031 C 151.628 19.077,151.577 19.200,151.533 20.042 C 151.498 20.726,151.417 21.000,151.251 21.000 C 150.812 21.000,150.500 21.708,150.500 22.704 C 150.500 23.620,150.480 23.667,150.083 23.667 C 149.689 23.667,149.667 23.717,149.667 24.583 C 149.667 25.355,149.619 25.500,149.367 25.500 C 148.880 25.500,148.667 25.851,148.662 26.658 C 148.658 27.276,148.565 27.507,148.162 27.903 C 147.735 28.321,147.667 28.512,147.667 29.278 C 147.667 30.115,147.642 30.167,147.250 30.167 C 146.857 30.167,146.833 30.218,146.833 31.065 C 146.833 31.872,146.793 31.974,146.438 32.063 C 146.047 32.161,145.838 32.679,145.830 33.563 C 145.829 33.757,145.641 34.093,145.414 34.309 C 145.065 34.640,145.000 34.855,145.000 35.673 C 145.000 36.609,144.983 36.646,144.542 36.697 C 144.115 36.746,144.080 36.810,144.033 37.615 C 143.990 38.360,143.933 38.486,143.617 38.531 C 143.280 38.579,143.246 38.689,143.202 39.865 C 143.154 41.120,143.144 41.147,142.702 41.198 C 142.283 41.246,142.246 41.314,142.200 42.109 C 142.156 42.862,142.100 42.981,141.742 43.070 C 141.372 43.163,141.333 43.257,141.333 44.068 C 141.333 44.873,141.293 44.974,140.937 45.063 C 140.476 45.179,140.339 45.573,140.336 46.792 C 140.334 47.522,140.284 47.667,140.033 47.667 C 139.590 47.667,139.333 48.001,139.336 48.575 C 139.341 49.549,138.958 49.507,147.344 49.460 L 155.083 49.417 155.133 48.458 C 155.175 47.656,155.233 47.500,155.490 47.500 C 155.899 47.500,156.000 47.182,156.000 45.903 C 156.000 44.886,156.020 44.833,156.399 44.833 C 156.867 44.833,157.000 44.562,157.000 43.609 C 157.000 43.046,157.072 42.881,157.375 42.748 C 157.706 42.602,157.756 42.444,157.799 41.385 C 157.846 40.221,157.860 40.186,158.299 40.135 C 158.718 40.087,158.754 40.021,158.800 39.208 C 158.828 38.727,158.916 38.333,158.997 38.333 C 159.422 38.333,159.667 37.764,159.667 36.775 C 159.667 35.778,159.685 35.733,160.167 35.551 C 160.631 35.376,160.667 35.303,160.667 34.522 C 160.667 33.848,160.749 33.599,161.083 33.265 C 161.428 32.920,161.500 32.688,161.500 31.920 C 161.500 31.098,161.545 30.975,161.894 30.842 C 162.354 30.667,162.495 30.248,162.498 29.042 C 162.500 28.231,162.529 28.167,162.897 28.167 C 163.335 28.167,163.492 27.820,163.501 26.833 C 163.504 26.433,163.636 26.127,163.920 25.858 C 164.261 25.534,164.333 25.307,164.333 24.566 C 164.333 23.898,164.395 23.667,164.571 23.667 C 165.025 23.667,165.333 23.159,165.333 22.413 C 165.333 21.877,165.438 21.571,165.727 21.259 C 166.288 20.654,166.314 20.689,166.368 22.125 C 166.413 23.312,166.447 23.421,166.784 23.469 C 167.106 23.515,167.157 23.637,167.200 24.469 C 167.247 25.361,167.277 25.420,167.702 25.469 C 168.144 25.520,168.154 25.547,168.202 26.802 C 168.246 27.978,168.280 28.088,168.617 28.135 C 168.933 28.180,168.990 28.307,169.033 29.052 C 169.080 29.854,169.116 29.920,169.535 29.969 C 169.981 30.020,169.988 30.039,170.035 31.385 C 170.080 32.657,170.109 32.754,170.458 32.803 C 170.780 32.849,170.833 32.957,170.833 33.569 C 170.833 34.384,171.244 35.333,171.596 35.333 C 171.775 35.333,171.833 35.578,171.833 36.330 C 171.833 37.254,171.864 37.335,172.250 37.432 C 172.624 37.525,172.668 37.624,172.683 38.393 C 172.707 39.612,172.868 40.074,173.290 40.136 C 173.604 40.181,173.657 40.310,173.700 41.136 C 173.747 42.028,173.777 42.086,174.202 42.135 C 174.644 42.186,174.654 42.214,174.702 43.469 C 174.746 44.653,174.778 44.754,175.125 44.803 C 175.461 44.851,175.500 44.950,175.500 45.749 C 175.500 46.518,175.569 46.710,176.000 47.141 C 176.436 47.577,176.500 47.760,176.500 48.571 L 176.500 49.500 184.340 49.500 L 192.181 49.500 192.132 48.208 C 192.084 46.942,192.074 46.916,191.632 46.865 C 191.194 46.814,191.179 46.779,191.132 45.615 C 191.089 44.556,191.040 44.398,190.708 44.252 C 190.413 44.123,190.333 43.951,190.333 43.450 C 190.333 42.645,190.082 42.167,189.661 42.167 C 189.375 42.167,189.333 42.050,189.333 41.250 C 189.333 40.395,189.306 40.333,188.936 40.333 C 188.564 40.333,188.534 40.262,188.468 39.227 C 188.408 38.276,188.336 38.071,187.959 37.768 C 187.609 37.488,187.510 37.248,187.468 36.583 C 187.421 35.813,187.382 35.746,186.958 35.697 C 186.521 35.647,186.500 35.604,186.500 34.731 C 186.500 33.980,186.426 33.745,186.083 33.402 C 185.772 33.090,185.666 32.807,185.664 32.284 C 185.661 31.466,185.540 31.228,185.083 31.143 C 184.811 31.092,184.735 30.913,184.667 30.165 C 184.595 29.373,184.533 29.243,184.208 29.197 C 183.879 29.150,183.833 29.046,183.833 28.339 C 183.833 27.676,183.746 27.442,183.333 27.000 C 182.908 26.545,182.833 26.333,182.833 25.584 C 182.833 24.788,182.794 24.693,182.425 24.600 C 182.066 24.510,182.011 24.393,181.967 23.624 C 181.920 22.809,181.886 22.746,181.458 22.697 C 181.037 22.649,181.000 22.586,181.000 21.926 C 181.000 20.807,180.826 20.187,180.480 20.077 C 180.245 20.002,180.167 19.818,180.167 19.336 C 180.167 18.439,180.027 18.167,179.566 18.167 C 179.199 18.167,179.167 18.101,179.167 17.341 C 179.167 16.381,178.908 15.713,178.483 15.578 C 178.255 15.506,178.172 15.276,178.133 14.616 C 178.092 13.904,178.017 13.721,177.708 13.585 C 177.388 13.445,177.333 13.294,177.333 12.544 C 177.333 11.680,177.326 11.667,176.833 11.667 C 176.344 11.667,176.333 11.649,176.333 10.822 C 176.333 9.951,176.119 9.349,175.726 9.117 C 175.595 9.040,175.500 8.700,175.500 8.314 C 175.500 7.480,175.254 7.000,174.827 7.000 C 174.542 7.000,174.500 6.883,174.500 6.083 C 174.500 5.229,174.473 5.167,174.103 5.167 C 173.732 5.167,173.701 5.094,173.636 4.081 C 173.523 2.298,174.081 2.424,166.027 2.370 C 162.198 2.344,159.014 2.375,158.950 2.439 M245.000 8.833 L 245.000 15.333 251.917 15.333 L 258.833 15.333 258.833 32.417 L 258.833 49.500 265.750 49.500 L 272.667 49.500 272.667 32.419 L 272.667 15.337 279.542 15.294 L 286.417 15.250 286.417 8.833 L 286.417 2.417 265.708 2.374 L 245.000 2.332 245.000 8.833 M350.167 2.549 L 349.750 2.760 349.708 25.904 C 349.677 42.870,349.716 49.108,349.853 49.274 C 350.006 49.458,351.374 49.500,357.187 49.500 L 364.333 49.500 364.333 32.417 L 364.333 15.333 369.500 15.333 L 374.667 15.333 374.667 15.750 C 374.667 16.115,374.739 16.167,375.250 16.167 C 375.651 16.167,375.833 16.243,375.833 16.411 C 375.833 16.545,375.973 16.730,376.145 16.822 C 376.316 16.913,376.501 17.216,376.557 17.494 C 376.630 17.858,376.753 18.000,376.996 18.000 C 377.315 18.000,377.333 18.103,377.333 19.917 L 377.333 21.833 376.917 21.833 C 376.586 21.833,376.500 21.917,376.500 22.239 C 376.500 22.558,376.402 22.656,376.042 22.697 C 375.682 22.739,375.572 22.848,375.531 23.208 C 375.480 23.645,375.435 23.667,374.583 23.667 C 373.521 23.667,372.833 23.894,372.833 24.246 C 372.833 24.461,372.480 24.500,370.500 24.500 L 368.167 24.500 368.167 30.500 L 368.167 36.500 368.553 36.500 C 368.888 36.500,368.960 36.616,369.095 37.375 C 369.223 38.098,369.315 38.259,369.625 38.303 C 369.916 38.345,370.000 38.465,370.000 38.845 C 370.000 39.248,370.069 39.333,370.395 39.333 C 370.743 39.333,370.803 39.432,370.901 40.165 C 370.993 40.860,371.077 41.013,371.413 41.097 C 371.691 41.167,371.830 41.334,371.865 41.641 C 371.901 41.947,372.028 42.099,372.277 42.135 C 372.573 42.177,372.659 42.335,372.751 43.010 C 372.851 43.737,372.911 43.833,373.266 43.833 C 373.600 43.833,373.667 43.916,373.667 44.333 C 373.667 44.776,373.723 44.833,374.158 44.833 C 374.633 44.833,374.651 44.862,374.700 45.708 C 374.743 46.463,374.800 46.590,375.115 46.635 C 375.370 46.672,375.495 46.822,375.532 47.135 C 375.572 47.484,375.685 47.595,376.042 47.636 C 376.461 47.684,376.500 47.749,376.500 48.394 C 376.500 49.557,376.065 49.500,384.950 49.500 L 393.000 49.500 393.000 48.167 C 393.000 46.856,392.993 46.833,392.583 46.833 C 392.244 46.833,392.167 46.752,392.167 46.393 C 392.167 46.121,391.975 45.770,391.667 45.475 C 391.329 45.152,391.167 44.835,391.167 44.499 C 391.167 44.078,391.102 44.000,390.750 44.000 C 390.420 44.000,390.333 43.916,390.333 43.596 C 390.333 43.370,390.114 42.973,389.833 42.692 C 389.558 42.417,389.333 42.035,389.333 41.843 C 389.333 41.631,389.168 41.418,388.917 41.303 C 388.645 41.179,388.500 40.977,388.500 40.723 C 388.500 40.403,388.413 40.333,388.009 40.333 C 387.534 40.333,387.516 40.305,387.467 39.458 C 387.420 38.642,387.386 38.580,386.958 38.531 C 386.574 38.486,386.500 38.398,386.500 37.989 C 386.500 37.579,386.433 37.500,386.083 37.500 C 385.694 37.500,385.667 37.445,385.667 36.663 C 385.667 35.865,385.643 35.820,385.167 35.725 C 384.750 35.642,384.667 35.545,384.667 35.146 C 384.667 34.746,384.598 34.667,384.250 34.667 C 383.857 34.667,383.833 34.616,383.833 33.759 L 383.833 32.851 384.708 32.800 C 385.524 32.753,385.587 32.719,385.636 32.292 C 385.677 31.932,385.776 31.833,386.094 31.833 C 386.416 31.833,386.500 31.747,386.500 31.417 C 386.500 31.071,386.580 31.000,386.967 31.000 C 387.529 31.000,388.500 30.078,388.500 29.545 C 388.500 29.304,388.620 29.173,388.875 29.137 C 389.141 29.099,389.265 28.953,389.302 28.635 C 389.342 28.289,389.455 28.175,389.802 28.135 C 390.217 28.087,390.254 28.019,390.300 27.208 C 390.347 26.405,390.384 26.333,390.759 26.333 C 391.146 26.333,391.167 26.283,391.167 25.333 C 391.167 24.768,391.240 24.333,391.336 24.333 C 392.018 24.333,392.165 23.383,392.166 18.979 C 392.167 14.108,392.122 13.704,391.569 13.565 C 391.214 13.476,391.176 13.366,391.132 12.275 C 391.089 11.231,391.038 11.063,390.716 10.922 C 390.503 10.829,390.328 10.583,390.299 10.339 C 390.262 10.017,390.141 9.904,389.792 9.864 C 389.419 9.821,389.333 9.727,389.331 9.364 C 389.327 8.603,389.155 8.215,388.736 8.024 C 388.505 7.919,388.333 7.698,388.333 7.507 C 388.333 7.287,388.187 7.136,387.905 7.065 C 387.669 7.006,387.410 6.785,387.330 6.574 C 387.218 6.279,387.006 6.163,386.425 6.076 C 385.769 5.977,385.667 5.909,385.667 5.564 C 385.667 5.237,385.582 5.167,385.184 5.167 C 384.878 5.167,384.506 4.984,384.167 4.667 C 383.726 4.255,383.490 4.167,382.834 4.167 C 382.122 4.167,382.025 4.122,381.932 3.750 C 381.828 3.337,381.810 3.333,379.997 3.333 C 378.178 3.333,378.167 3.331,378.167 2.934 C 378.167 2.715,378.048 2.490,377.903 2.434 C 377.336 2.217,350.605 2.327,350.167 2.549 M62.500 3.000 C 62.500 3.250,62.611 3.333,62.942 3.333 C 63.374 3.333,63.378 3.325,63.083 3.000 C 62.917 2.817,62.718 2.667,62.641 2.667 C 62.563 2.667,62.500 2.817,62.500 3.000 M63.500 3.839 C 63.500 4.054,63.613 4.167,63.828 4.167 C 64.043 4.167,64.125 4.085,64.065 3.930 C 63.914 3.535,63.500 3.469,63.500 3.839 M42.167 5.661 C 42.167 5.889,42.276 6.000,42.500 6.000 C 42.683 6.000,42.833 5.928,42.833 5.839 C 42.833 5.751,42.683 5.598,42.500 5.500 C 42.217 5.349,42.167 5.373,42.167 5.661 M43.000 6.558 C 43.000 6.889,43.084 7.000,43.333 7.000 C 43.517 7.000,43.667 6.937,43.667 6.859 C 43.667 6.782,43.517 6.583,43.333 6.417 C 43.008 6.122,43.000 6.126,43.000 6.558 M44.000 7.505 C 44.000 7.922,44.066 8.000,44.417 8.000 C 45.026 8.000,44.935 7.355,44.292 7.118 C 44.055 7.031,44.000 7.104,44.000 7.505 M52.333 10.087 C 52.333 10.422,52.230 10.529,51.833 10.608 C 51.491 10.677,51.333 10.807,51.333 11.021 C 51.333 11.419,51.585 11.422,51.866 11.027 C 51.985 10.859,52.307 10.614,52.581 10.484 C 53.240 10.171,53.351 9.667,52.762 9.667 C 52.415 9.667,52.333 9.747,52.333 10.087 M71.833 13.750 C 71.833 14.237,71.885 14.257,72.238 13.905 C 72.594 13.549,72.567 13.333,72.167 13.333 C 71.922 13.333,71.833 13.444,71.833 13.750 M316.500 14.502 C 316.500 14.937,317.589 15.332,318.792 15.333 C 319.969 15.333,320.000 15.344,320.000 15.750 C 320.000 16.143,320.051 16.167,320.906 16.167 C 321.770 16.167,321.814 16.188,321.864 16.625 C 321.901 16.949,322.024 17.099,322.281 17.135 C 322.509 17.168,322.666 17.325,322.698 17.552 C 322.734 17.807,322.884 17.932,323.198 17.968 C 323.545 18.008,323.658 18.122,323.698 18.468 C 323.738 18.815,323.852 18.928,324.200 18.969 C 324.617 19.017,324.654 19.084,324.700 19.885 C 324.743 20.631,324.801 20.757,325.117 20.802 C 325.433 20.847,325.490 20.974,325.533 21.719 C 325.580 22.524,325.615 22.587,326.042 22.636 L 326.500 22.689 326.500 25.941 L 326.500 29.192 326.000 29.692 C 325.567 30.125,325.500 30.314,325.500 31.096 C 325.500 31.943,325.474 32.000,325.094 32.000 C 324.776 32.000,324.677 32.098,324.636 32.458 C 324.599 32.781,324.476 32.932,324.221 32.968 C 323.995 33.000,323.795 33.203,323.688 33.510 C 323.594 33.779,323.399 34.000,323.255 34.000 C 323.110 34.000,322.923 34.181,322.839 34.402 C 322.755 34.624,322.540 34.851,322.361 34.908 C 322.182 34.965,321.997 35.159,321.950 35.339 C 321.893 35.560,321.722 35.667,321.428 35.667 C 321.077 35.667,320.972 35.764,320.892 36.167 C 320.795 36.648,320.759 36.667,319.888 36.667 C 319.147 36.667,318.910 36.741,318.568 37.083 C 318.164 37.488,318.083 37.500,315.844 37.500 L 313.536 37.500 313.432 37.083 C 313.336 36.704,313.248 36.667,312.432 36.667 C 311.627 36.667,311.526 36.626,311.437 36.270 C 311.334 35.862,310.925 35.673,310.136 35.669 C 309.773 35.667,309.679 35.581,309.636 35.208 C 309.599 34.885,309.476 34.735,309.219 34.698 C 308.991 34.666,308.834 34.509,308.802 34.281 C 308.765 34.024,308.615 33.901,308.292 33.864 C 307.908 33.820,307.833 33.732,307.833 33.322 C 307.833 32.912,307.766 32.833,307.417 32.833 C 307.037 32.833,307.000 32.770,307.000 32.117 C 307.000 31.352,306.781 31.000,306.307 31.000 C 306.057 31.000,306.007 30.811,305.965 29.708 C 305.920 28.513,305.889 28.413,305.542 28.363 C 305.081 28.298,304.944 24.482,305.392 24.217 C 305.823 23.962,306.000 23.348,306.000 22.105 C 306.000 20.866,306.004 20.855,306.458 20.803 C 306.818 20.761,306.928 20.652,306.969 20.292 C 306.998 20.040,307.087 19.833,307.166 19.833 C 307.511 19.833,307.833 19.264,307.833 18.655 C 307.833 18.038,307.863 18.000,308.333 18.000 C 308.748 18.000,308.833 17.933,308.833 17.605 C 308.833 17.273,308.940 17.192,309.497 17.103 C 309.947 17.031,310.249 16.863,310.433 16.582 C 310.597 16.331,310.863 16.167,311.103 16.167 C 311.415 16.167,311.500 16.078,311.500 15.750 C 311.500 15.343,311.529 15.333,312.792 15.317 C 314.406 15.296,314.873 15.171,315.081 14.703 C 315.254 14.315,316.500 14.139,316.500 14.502 M38.500 23.000 C 38.500 23.183,38.572 23.333,38.661 23.333 C 38.749 23.333,38.902 23.183,39.000 23.000 C 39.151 22.717,39.127 22.667,38.839 22.667 C 38.611 22.667,38.500 22.776,38.500 23.000 M37.500 24.006 C 37.500 24.293,37.551 24.318,37.833 24.167 C 38.017 24.069,38.167 23.916,38.167 23.827 C 38.167 23.739,38.017 23.667,37.833 23.667 C 37.609 23.667,37.500 23.778,37.500 24.006 M21.833 27.667 C 21.833 27.850,21.906 28.000,21.994 28.000 C 22.083 28.000,22.235 27.850,22.333 27.667 C 22.485 27.384,22.460 27.333,22.173 27.333 C 21.944 27.333,21.833 27.443,21.833 27.667 M20.833 28.500 C 20.833 28.683,20.897 28.833,20.974 28.833 C 21.052 28.833,21.251 28.683,21.417 28.500 C 21.711 28.175,21.708 28.167,21.276 28.167 C 20.944 28.167,20.833 28.250,20.833 28.500 M19.833 29.500 C 19.833 29.683,19.943 29.833,20.077 29.833 C 20.212 29.833,20.402 29.683,20.500 29.500 C 20.657 29.207,20.627 29.167,20.256 29.167 C 19.944 29.167,19.833 29.254,19.833 29.500 M19.500 38.000 L 19.083 38.417 19.473 38.472 C 19.960 38.541,20.041 38.460,19.972 37.973 L 19.917 37.583 19.500 38.000 M18.533 38.867 C 18.240 39.160,18.289 39.333,18.667 39.333 C 18.889 39.333,19.000 39.222,19.000 39.000 C 19.000 38.622,18.827 38.573,18.533 38.867 M17.546 39.708 C 17.131 40.245,17.147 40.333,17.657 40.333 C 18.090 40.333,18.167 40.270,18.167 39.917 C 18.167 39.471,17.820 39.355,17.546 39.708 M7.833 40.661 C 7.833 41.104,7.873 41.141,8.208 41.018 C 8.771 40.811,8.812 40.167,8.262 40.167 C 7.898 40.167,7.833 40.241,7.833 40.661 M6.962 41.568 C 6.871 42.043,7.241 41.984,7.510 41.480 C 7.648 41.224,7.620 41.167,7.359 41.167 C 7.153 41.167,7.011 41.310,6.962 41.568 M34.537 45.259 C 34.084 45.577,34.059 45.833,34.481 45.833 C 34.683 45.833,34.823 45.685,34.874 45.417 C 34.918 45.188,34.943 45.000,34.931 45.000 C 34.918 45.000,34.741 45.117,34.537 45.259 M28.762 50.929 C 28.402 51.288,28.434 51.486,28.833 51.382 C 29.018 51.333,29.167 51.154,29.167 50.981 C 29.167 50.599,29.100 50.590,28.762 50.929 M27.700 51.700 C 27.369 52.031,27.473 52.333,27.917 52.333 C 28.250 52.333,28.333 52.250,28.333 51.917 C 28.333 51.473,28.031 51.369,27.700 51.700 M57.000 52.000 C 57.000 52.224,57.111 52.333,57.339 52.333 C 57.627 52.333,57.651 52.283,57.500 52.000 C 57.402 51.817,57.249 51.667,57.161 51.667 C 57.072 51.667,57.000 51.817,57.000 52.000 M57.833 52.833 C 57.833 53.056,57.944 53.167,58.167 53.167 C 58.544 53.167,58.594 52.994,58.300 52.700 C 58.006 52.406,57.833 52.456,57.833 52.833 M58.833 53.833 C 58.833 54.056,58.944 54.167,59.167 54.167 C 59.544 54.167,59.594 53.994,59.300 53.700 C 59.006 53.406,58.833 53.456,58.833 53.833 M59.667 54.672 C 59.667 55.109,59.724 55.167,60.161 55.167 C 60.756 55.167,60.659 54.544,60.028 54.311 C 59.709 54.193,59.667 54.235,59.667 54.672 M10.200 57.367 C 9.906 57.660,9.956 57.833,10.333 57.833 C 10.556 57.833,10.667 57.722,10.667 57.500 C 10.667 57.122,10.494 57.073,10.200 57.367 M58.833 58.167 C 58.833 58.544,59.006 58.594,59.300 58.300 C 59.594 58.006,59.544 57.833,59.167 57.833 C 58.944 57.833,58.833 57.944,58.833 58.167 M9.333 58.333 L 8.917 58.750 9.306 58.805 C 9.794 58.874,9.874 58.794,9.805 58.306 L 9.750 57.917 9.333 58.333 M32.537 58.259 C 32.049 58.601,32.068 58.833,32.583 58.833 C 32.917 58.833,33.000 58.750,33.000 58.417 C 33.000 57.925,33.010 57.928,32.537 58.259 M57.833 59.097 C 57.833 59.597,58.108 59.569,58.464 59.033 C 58.694 58.687,58.683 58.667,58.270 58.667 C 57.912 58.667,57.833 58.744,57.833 59.097 M8.262 59.095 C 7.886 59.472,7.938 59.667,8.417 59.667 C 8.750 59.667,8.833 59.583,8.833 59.250 C 8.833 58.772,8.638 58.719,8.262 59.095 M31.625 59.180 C 31.233 59.408,31.256 59.667,31.667 59.667 C 31.889 59.667,32.000 59.556,32.000 59.333 C 32.000 58.951,32.011 58.955,31.625 59.180 M30.731 59.830 C 30.203 60.043,30.090 60.667,30.580 60.667 C 30.877 60.667,30.978 60.556,31.036 60.167 C 31.076 59.892,31.103 59.671,31.096 59.677 C 31.089 59.683,30.925 59.752,30.731 59.830 M102.444 63.611 C 102.383 63.672,102.333 74.247,102.333 87.111 L 102.333 110.500 115.163 110.500 L 127.994 110.500 128.098 110.083 C 128.198 109.688,128.263 109.667,129.393 109.665 C 131.285 109.662,131.833 109.528,131.833 109.070 C 131.833 108.716,131.915 108.679,132.792 108.633 C 133.634 108.589,133.756 108.539,133.802 108.217 C 133.847 107.901,133.974 107.843,134.719 107.800 C 135.519 107.754,135.587 107.717,135.635 107.300 C 135.683 106.883,135.751 106.846,136.552 106.800 C 137.357 106.753,137.420 106.718,137.469 106.292 C 137.514 105.906,137.601 105.833,138.019 105.833 C 138.325 105.833,138.657 105.683,138.883 105.443 C 139.085 105.228,139.451 105.003,139.697 104.942 C 139.990 104.870,140.162 104.704,140.197 104.458 C 140.235 104.190,140.380 104.068,140.708 104.031 C 141.062 103.990,141.167 103.889,141.167 103.590 C 141.167 103.317,141.288 103.172,141.581 103.099 C 141.836 103.035,142.035 102.836,142.099 102.581 C 142.156 102.353,142.264 102.167,142.339 102.167 C 142.678 102.167,143.000 101.593,143.000 100.988 C 143.000 100.372,143.029 100.333,143.500 100.333 C 143.935 100.333,144.000 100.273,144.000 99.873 C 144.000 99.555,144.116 99.361,144.375 99.248 C 144.674 99.117,144.760 98.926,144.800 98.308 C 144.842 97.655,144.912 97.516,145.239 97.434 C 145.690 97.321,145.828 96.920,145.831 95.708 C 145.833 94.950,145.877 94.833,146.161 94.833 C 146.696 94.833,146.833 94.297,146.833 92.217 C 146.833 90.333,146.850 90.238,147.208 90.081 C 147.577 89.920,147.583 89.865,147.583 87.000 C 147.583 84.135,147.577 84.080,147.208 83.919 C 146.849 83.761,146.833 83.670,146.833 81.724 C 146.833 79.397,146.779 79.167,146.232 79.167 C 145.847 79.167,145.833 79.125,145.833 77.902 C 145.833 76.655,145.827 76.635,145.341 76.452 C 144.896 76.284,144.844 76.184,144.799 75.425 C 144.757 74.697,144.699 74.576,144.375 74.530 C 144.109 74.492,144.000 74.364,144.000 74.089 C 144.000 73.876,143.775 73.461,143.500 73.167 C 143.225 72.872,143.000 72.453,143.000 72.236 C 143.000 71.956,142.882 71.810,142.598 71.739 C 142.358 71.679,142.155 71.475,142.095 71.236 C 142.022 70.946,141.878 70.833,141.580 70.833 C 141.251 70.833,141.167 70.749,141.167 70.420 C 141.167 70.124,141.054 69.978,140.771 69.907 C 140.553 69.852,140.292 69.626,140.191 69.404 C 140.090 69.181,139.864 69.000,139.688 69.000 C 139.488 69.000,139.331 68.847,139.266 68.589 C 139.179 68.242,139.033 68.160,138.332 68.067 C 137.599 67.970,137.500 67.910,137.500 67.562 C 137.500 67.237,137.414 67.167,137.018 67.167 C 136.712 67.167,136.339 66.984,136.000 66.667 C 135.706 66.392,135.289 66.167,135.073 66.167 C 134.858 66.167,134.494 65.979,134.265 65.750 C 133.913 65.397,133.693 65.333,132.841 65.333 C 131.940 65.333,131.833 65.297,131.833 64.996 C 131.833 64.516,131.214 64.333,129.580 64.333 C 128.311 64.333,128.143 64.295,127.765 63.917 L 127.348 63.500 114.952 63.500 C 108.134 63.500,102.506 63.550,102.444 63.611 M168.167 64.417 C 168.167 65.188,168.119 65.333,167.867 65.333 C 167.387 65.333,167.167 65.682,167.167 66.442 C 167.167 66.977,167.064 67.254,166.750 67.568 C 166.410 67.908,166.333 68.148,166.333 68.873 C 166.333 69.706,166.303 69.772,165.833 69.949 C 165.369 70.124,165.333 70.198,165.333 70.974 C 165.333 71.672,165.277 71.829,164.990 71.920 C 164.551 72.059,164.333 72.642,164.333 73.678 C 164.333 74.444,164.305 74.500,163.917 74.500 C 163.523 74.500,163.500 74.550,163.500 75.417 C 163.500 76.100,163.439 76.333,163.262 76.333 C 162.808 76.333,162.500 76.841,162.500 77.588 C 162.500 78.145,162.401 78.417,162.083 78.735 C 161.739 79.079,161.667 79.312,161.667 80.076 C 161.667 80.939,161.641 81.000,161.268 81.000 C 160.810 81.000,160.667 81.273,160.667 82.141 C 160.667 82.617,160.583 82.791,160.292 82.919 C 159.989 83.052,159.907 83.240,159.865 83.898 C 159.824 84.537,159.708 84.818,159.323 85.202 C 158.903 85.622,158.833 85.819,158.833 86.585 C 158.833 87.383,158.794 87.482,158.458 87.530 C 158.131 87.577,158.077 87.696,158.033 88.466 C 157.990 89.210,157.922 89.371,157.597 89.495 C 157.147 89.666,157.005 90.091,157.002 91.281 C 157.000 92.099,156.976 92.147,156.542 92.197 C 156.115 92.246,156.080 92.310,156.033 93.115 C 155.990 93.860,155.933 93.986,155.617 94.031 C 155.298 94.076,155.243 94.202,155.199 94.981 C 155.157 95.714,155.058 95.968,154.657 96.368 C 154.250 96.776,154.167 96.995,154.167 97.661 C 154.167 98.378,154.122 98.475,153.750 98.568 C 153.370 98.664,153.333 98.752,153.333 99.575 C 153.333 100.378,153.293 100.483,152.965 100.530 C 152.533 100.593,152.374 101.047,152.350 102.280 C 152.335 103.043,152.290 103.150,151.958 103.197 C 151.634 103.243,151.577 103.364,151.534 104.091 C 151.490 104.851,151.437 104.951,150.992 105.118 C 150.540 105.289,150.500 105.370,150.500 106.113 C 150.500 106.791,150.440 106.947,150.125 107.085 C 149.778 107.238,149.746 107.372,149.702 108.875 L 149.655 110.500 156.994 110.500 L 164.333 110.500 164.333 110.019 C 164.333 109.680,164.431 109.513,164.665 109.452 C 165.090 109.341,165.333 108.691,165.333 107.667 C 165.333 106.953,165.378 106.850,165.708 106.803 C 166.041 106.756,166.089 106.641,166.133 105.792 C 166.161 105.265,166.256 104.833,166.344 104.833 C 166.684 104.833,167.165 103.742,167.166 102.970 C 167.167 102.288,167.214 102.183,167.542 102.137 C 167.888 102.087,167.920 101.987,167.965 100.802 C 168.013 99.547,168.023 99.520,168.465 99.469 C 168.890 99.420,168.920 99.361,168.966 98.469 C 169.010 97.637,169.061 97.515,169.383 97.469 C 169.720 97.421,169.754 97.311,169.798 96.135 C 169.846 94.880,169.856 94.853,170.298 94.802 C 170.744 94.751,170.751 94.732,170.798 93.375 C 170.845 92.056,170.863 92.000,171.239 92.000 C 171.705 92.000,171.833 91.726,171.833 90.736 C 171.833 90.188,171.898 90.000,172.087 90.000 C 172.439 90.000,172.667 89.312,172.667 88.250 C 172.667 87.398,172.688 87.353,173.125 87.303 C 173.552 87.254,173.587 87.191,173.634 86.375 C 173.661 85.894,173.750 85.500,173.830 85.500 C 174.261 85.500,174.500 84.930,174.500 83.905 C 174.500 83.087,174.556 82.833,174.738 82.833 C 174.869 82.833,175.094 82.715,175.238 82.571 C 175.476 82.333,175.500 82.353,175.500 82.788 C 175.500 83.335,175.764 83.667,176.200 83.667 C 176.453 83.667,176.500 83.812,176.500 84.583 C 176.500 85.450,176.523 85.500,176.917 85.500 C 177.319 85.500,177.333 85.538,177.333 86.594 C 177.333 87.830,177.528 88.333,178.006 88.333 C 178.292 88.333,178.333 88.450,178.333 89.258 C 178.333 90.021,178.406 90.254,178.750 90.598 C 179.068 90.916,179.167 91.189,179.167 91.746 C 179.167 92.492,179.475 93.000,179.929 93.000 C 180.104 93.000,180.167 93.229,180.169 93.875 C 180.172 95.032,180.303 95.468,180.685 95.589 C 180.935 95.669,181.000 95.851,181.000 96.478 C 181.000 97.313,181.208 97.667,181.700 97.667 C 181.959 97.667,182.000 97.820,182.000 98.800 C 182.000 99.971,182.165 100.333,182.700 100.333 C 182.953 100.333,183.000 100.479,183.000 101.258 C 183.000 102.021,183.072 102.254,183.417 102.598 C 183.760 102.942,183.833 103.176,183.833 103.928 C 183.833 104.810,183.851 104.845,184.333 104.942 C 184.822 105.039,184.833 105.065,184.833 106.032 C 184.833 107.095,185.036 107.667,185.414 107.667 C 185.584 107.667,185.664 107.933,185.700 108.625 C 185.747 109.532,185.774 109.586,186.208 109.636 C 186.568 109.677,186.667 109.776,186.667 110.094 L 186.667 110.500 193.963 110.500 C 200.297 110.500,201.308 110.466,201.630 110.241 C 202.090 109.918,202.107 109.403,201.667 109.128 C 201.396 108.959,201.333 108.739,201.333 107.963 C 201.333 107.087,201.299 106.998,200.925 106.904 C 200.567 106.814,200.510 106.696,200.466 105.942 C 200.420 105.144,200.385 105.080,199.958 105.031 C 199.512 104.979,199.500 104.950,199.500 103.918 C 199.500 102.896,199.259 102.333,198.821 102.333 C 198.736 102.333,198.667 102.039,198.667 101.680 C 198.667 100.772,198.528 100.500,198.066 100.500 C 197.690 100.500,197.667 100.442,197.667 99.523 C 197.667 98.721,197.596 98.474,197.275 98.148 C 197.025 97.893,196.845 97.460,196.776 96.945 C 196.646 95.966,196.572 95.833,196.157 95.833 C 195.876 95.833,195.833 95.713,195.833 94.917 C 195.833 94.009,195.828 94.000,195.333 94.000 L 194.833 94.000 194.831 92.875 C 194.828 91.676,194.753 91.455,194.292 91.285 C 194.067 91.202,194.000 90.985,194.000 90.334 C 194.000 89.531,193.976 89.487,193.500 89.392 C 193.019 89.295,193.000 89.258,193.000 88.396 C 193.000 87.551,192.976 87.500,192.583 87.500 C 192.195 87.500,192.167 87.444,192.167 86.678 C 192.167 85.643,191.925 84.993,191.498 84.881 C 191.215 84.807,191.167 84.652,191.167 83.814 C 191.167 82.879,191.147 82.833,190.750 82.833 C 190.362 82.833,190.333 82.777,190.333 82.018 C 190.333 81.341,190.248 81.110,189.833 80.667 C 189.459 80.266,189.333 79.972,189.333 79.496 C 189.333 78.645,189.194 78.333,188.816 78.333 C 188.550 78.333,188.500 78.207,188.500 77.533 C 188.500 76.688,188.293 76.333,187.800 76.333 C 187.549 76.333,187.500 76.189,187.498 75.458 C 187.495 74.240,187.358 73.846,186.897 73.730 C 186.540 73.641,186.500 73.539,186.500 72.735 C 186.500 71.924,186.462 71.830,186.091 71.737 C 185.733 71.647,185.677 71.529,185.633 70.776 C 185.587 69.980,185.550 69.913,185.132 69.865 C 184.689 69.814,184.679 69.786,184.632 68.531 C 184.587 67.356,184.553 67.246,184.217 67.198 C 183.901 67.153,183.843 67.026,183.800 66.281 C 183.753 65.476,183.718 65.413,183.292 65.364 C 182.854 65.314,182.833 65.270,182.833 64.406 L 182.833 63.500 175.500 63.500 L 168.167 63.500 168.167 64.417 M208.833 87.000 L 208.833 110.500 215.750 110.500 L 222.667 110.500 222.667 87.000 L 222.667 63.500 215.750 63.500 L 208.833 63.500 208.833 87.000 M233.833 87.000 L 233.833 110.500 251.835 110.500 L 269.837 110.500 269.794 104.125 L 269.750 97.750 258.708 97.707 L 247.667 97.664 247.667 80.582 L 247.667 63.500 240.750 63.500 L 233.833 63.500 233.833 87.000 M265.368 64.792 C 265.416 66.063,265.424 66.084,265.875 66.136 C 266.312 66.186,266.333 66.230,266.333 67.094 C 266.333 67.949,266.357 68.000,266.750 68.000 C 267.070 68.000,267.167 68.087,267.169 68.375 C 267.173 69.077,267.378 69.525,267.761 69.671 C 268.010 69.765,268.162 69.979,268.196 70.283 C 268.235 70.620,268.354 70.765,268.625 70.803 C 268.946 70.849,269.000 70.957,269.000 71.562 C 269.000 72.314,269.220 72.667,269.690 72.667 C 269.913 72.667,269.993 72.832,270.032 73.375 C 270.071 73.917,270.170 74.121,270.451 74.245 C 270.663 74.338,270.839 74.584,270.867 74.828 C 270.905 75.147,271.026 75.263,271.367 75.302 C 271.783 75.350,271.820 75.418,271.867 76.219 C 271.910 76.970,271.966 77.090,272.292 77.137 C 272.560 77.175,272.667 77.302,272.667 77.584 C 272.667 78.216,272.954 78.796,273.324 78.914 C 273.567 78.991,273.667 79.164,273.667 79.511 C 273.667 79.941,273.726 80.000,274.158 80.000 C 274.633 80.000,274.651 80.029,274.700 80.875 C 274.744 81.637,274.798 81.757,275.125 81.803 C 275.393 81.841,275.500 81.969,275.500 82.251 C 275.500 82.882,275.811 83.525,276.159 83.616 C 276.355 83.668,276.501 83.873,276.532 84.142 C 276.568 84.453,276.694 84.599,276.958 84.637 C 277.266 84.680,277.333 84.795,277.333 85.273 C 277.333 86.019,277.593 86.500,277.996 86.500 C 278.251 86.500,278.324 86.640,278.365 87.208 C 278.405 87.750,278.503 87.955,278.784 88.078 C 279.025 88.183,279.168 88.413,279.200 88.744 C 279.241 89.157,279.334 89.260,279.708 89.303 C 280.132 89.351,280.167 89.412,280.167 90.098 C 280.167 90.728,280.230 90.869,280.583 91.030 C 280.848 91.151,281.000 91.357,281.000 91.595 C 281.000 91.807,281.217 92.153,281.500 92.391 L 282.000 92.812 282.000 101.656 L 282.000 110.500 289.417 110.500 L 296.833 110.500 296.833 101.674 L 296.833 92.848 297.250 92.432 C 297.479 92.203,297.667 91.824,297.667 91.591 C 297.667 91.334,297.761 91.167,297.905 91.167 C 298.335 91.167,298.667 90.658,298.667 90.000 C 298.667 89.460,298.727 89.348,299.042 89.303 C 299.312 89.265,299.432 89.120,299.470 88.783 C 299.506 88.474,299.657 88.265,299.917 88.167 C 300.221 88.051,300.336 87.846,300.423 87.268 C 300.512 86.672,300.608 86.508,300.893 86.468 C 301.198 86.424,301.257 86.290,301.300 85.552 C 301.346 84.751,301.383 84.683,301.800 84.635 C 302.148 84.595,302.262 84.482,302.302 84.135 C 302.338 83.822,302.463 83.672,302.718 83.635 C 303.032 83.591,303.090 83.463,303.133 82.719 C 303.180 81.918,303.217 81.850,303.633 81.802 C 304.050 81.754,304.087 81.686,304.133 80.885 C 304.180 80.084,304.217 80.017,304.633 79.969 C 304.974 79.929,305.095 79.814,305.133 79.495 C 305.161 79.251,305.337 79.005,305.549 78.911 C 305.840 78.784,305.927 78.587,305.967 77.969 C 306.013 77.259,306.059 77.182,306.467 77.135 C 306.819 77.095,306.928 76.983,306.970 76.621 C 306.999 76.367,307.205 75.977,307.428 75.754 C 307.651 75.531,307.833 75.158,307.833 74.924 C 307.833 74.668,307.927 74.500,308.071 74.500 C 308.502 74.500,308.833 73.992,308.833 73.333 C 308.833 72.793,308.893 72.681,309.208 72.637 C 309.481 72.598,309.598 72.453,309.638 72.106 C 309.673 71.797,309.810 71.598,310.026 71.542 C 310.386 71.447,310.667 70.882,310.667 70.251 C 310.667 69.969,310.773 69.841,311.042 69.803 C 311.368 69.757,311.423 69.637,311.467 68.875 C 311.516 68.029,311.534 68.000,312.009 68.000 C 312.441 68.000,312.500 67.941,312.500 67.512 C 312.500 67.132,312.584 67.011,312.875 66.970 C 313.185 66.926,313.277 66.765,313.405 66.043 C 313.513 65.433,313.652 65.141,313.863 65.074 C 314.279 64.942,314.336 63.881,313.942 63.627 C 313.836 63.559,310.150 63.521,305.750 63.543 L 297.750 63.583 297.700 64.458 C 297.653 65.262,297.616 65.333,297.241 65.333 C 296.903 65.333,296.833 65.415,296.833 65.814 C 296.833 66.153,296.736 66.320,296.502 66.381 C 296.145 66.474,295.833 67.113,295.833 67.749 C 295.833 68.031,295.727 68.159,295.458 68.197 C 295.138 68.242,295.076 68.366,295.033 69.042 C 294.993 69.664,294.920 69.833,294.691 69.833 C 294.220 69.833,294.000 70.186,294.000 70.938 C 294.000 71.543,293.946 71.651,293.625 71.697 C 293.358 71.735,293.235 71.880,293.198 72.202 C 293.169 72.450,292.925 72.890,292.656 73.178 C 292.387 73.466,292.167 73.864,292.167 74.061 C 292.167 74.274,292.014 74.488,291.792 74.585 C 291.495 74.716,291.406 74.908,291.367 75.508 C 291.324 76.175,291.259 76.288,290.826 76.452 C 290.381 76.620,290.333 76.711,290.333 77.383 C 290.333 78.084,290.303 78.133,289.833 78.202 C 289.378 78.269,289.333 78.233,289.333 77.804 C 289.333 77.423,289.260 77.333,288.947 77.333 C 288.612 77.333,288.540 77.217,288.405 76.458 C 288.277 75.735,288.185 75.574,287.875 75.530 C 287.593 75.490,287.499 75.366,287.498 75.030 C 287.494 74.241,287.305 73.833,286.897 73.730 C 286.593 73.654,286.500 73.517,286.500 73.149 C 286.500 72.748,286.431 72.667,286.092 72.667 C 285.717 72.667,285.680 72.595,285.634 71.792 C 285.587 70.980,285.551 70.913,285.133 70.865 C 284.717 70.817,284.680 70.749,284.633 69.948 C 284.590 69.196,284.534 69.076,284.208 69.030 C 283.940 68.992,283.833 68.865,283.833 68.583 C 283.833 67.946,283.521 67.308,283.165 67.214 C 282.936 67.155,282.833 66.987,282.833 66.672 C 282.833 66.419,282.652 66.020,282.428 65.778 C 282.205 65.538,281.999 65.133,281.970 64.879 C 281.928 64.515,281.819 64.405,281.458 64.364 C 281.098 64.323,281.000 64.224,281.000 63.906 L 281.000 63.500 273.160 63.500 L 265.319 63.500 265.368 64.792 M36.000 68.133 C 36.000 68.673,36.902 68.828,37.167 68.333 C 37.331 68.026,37.293 68.000,36.673 68.000 C 36.303 68.000,36.000 68.060,36.000 68.133 M19.625 70.180 C 19.229 70.411,19.256 70.833,19.667 70.833 C 19.911 70.833,20.000 70.722,20.000 70.417 C 20.000 69.944,20.015 69.953,19.625 70.180 M18.708 71.122 C 18.251 71.429,18.225 71.667,18.647 71.667 C 18.831 71.667,19.001 71.514,19.057 71.299 C 19.180 70.829,19.160 70.819,18.708 71.122 M17.546 72.042 C 17.131 72.578,17.147 72.667,17.657 72.667 C 18.090 72.667,18.167 72.604,18.167 72.250 C 18.167 71.805,17.820 71.688,17.546 72.042 M123.785 76.625 C 123.955 77.085,124.176 77.161,125.357 77.164 C 126.394 77.167,126.470 77.193,126.567 77.578 C 126.654 77.925,126.800 78.006,127.502 78.099 C 128.225 78.195,128.333 78.259,128.333 78.592 C 128.333 78.880,128.455 79.000,128.833 79.083 C 129.175 79.158,129.333 79.293,129.333 79.510 C 129.333 79.709,129.488 79.866,129.750 79.932 C 130.013 79.998,130.167 80.154,130.167 80.355 C 130.167 80.532,130.349 80.757,130.575 80.860 C 130.799 80.962,131.005 81.204,131.033 81.398 C 131.068 81.642,131.224 81.766,131.542 81.803 C 131.999 81.855,132.000 81.859,132.000 83.182 L 132.000 84.508 132.500 84.608 L 133.000 84.708 133.000 87.021 C 133.000 89.137,132.974 89.333,132.700 89.333 C 132.157 89.333,132.000 89.694,132.000 90.939 C 132.000 92.130,131.995 92.145,131.542 92.197 C 131.181 92.239,131.072 92.348,131.030 92.712 C 131.001 92.966,130.795 93.357,130.572 93.580 C 130.349 93.802,130.167 94.176,130.167 94.409 C 130.167 94.746,130.084 94.833,129.768 94.833 C 129.548 94.833,129.128 95.058,128.833 95.333 C 128.539 95.608,128.120 95.833,127.902 95.833 C 127.619 95.833,127.477 95.952,127.402 96.250 C 127.308 96.622,127.211 96.667,126.500 96.667 C 125.843 96.667,125.607 96.755,125.167 97.167 L 124.631 97.667 120.899 97.667 L 117.167 97.667 117.167 87.000 L 117.167 76.333 120.422 76.333 C 123.370 76.333,123.687 76.361,123.785 76.625 M5.595 83.262 C 5.239 83.618,5.266 83.833,5.667 83.833 C 5.911 83.833,6.000 83.722,6.000 83.417 C 6.000 82.929,5.948 82.909,5.595 83.262 M4.700 84.200 C 4.406 84.494,4.456 84.667,4.833 84.667 C 5.056 84.667,5.167 84.556,5.167 84.333 C 5.167 83.956,4.994 83.906,4.700 84.200 M3.835 84.882 C 3.256 85.174,3.184 85.667,3.719 85.667 C 4.047 85.667,4.143 85.567,4.202 85.167 C 4.243 84.892,4.270 84.668,4.263 84.669 C 4.256 84.670,4.063 84.766,3.835 84.882 M18.533 103.700 C 18.244 103.989,18.287 104.167,18.647 104.167 C 18.821 104.167,19.000 104.018,19.048 103.833 C 19.146 103.460,18.850 103.384,18.533 103.700 M17.700 104.533 C 17.406 104.827,17.456 105.000,17.833 105.000 C 18.056 105.000,18.167 104.889,18.167 104.667 C 18.167 104.289,17.994 104.240,17.700 104.533 " stroke="none" fill="#040404" fill-rule="evenodd"></path><path id="path4" d="M25.856 2.021 C 25.844 2.263,25.964 2.562,26.125 2.688 C 26.379 2.887,26.392 2.884,26.224 2.667 C 26.119 2.529,25.997 2.229,25.955 2.000 L 25.879 1.583 25.856 2.021 M28.833 5.192 C 29.755 6.111,31.171 7.323,30.583 6.690 C 30.217 6.295,29.617 5.740,29.250 5.457 C 28.883 5.174,28.696 5.055,28.833 5.192 M31.667 7.833 C 31.862 8.108,32.060 8.333,32.106 8.333 C 32.152 8.333,32.029 8.108,31.833 7.833 C 31.638 7.558,31.440 7.333,31.394 7.333 C 31.348 7.333,31.471 7.558,31.667 7.833 M31.064 59.907 C 31.013 60.039,31.007 60.283,31.050 60.449 C 31.103 60.652,31.134 60.605,31.147 60.306 C 31.158 60.061,31.260 59.823,31.375 59.777 C 31.538 59.711,31.537 59.690,31.370 59.680 C 31.252 59.673,31.115 59.775,31.064 59.907 M36.500 67.833 L 36.083 67.967 36.542 67.983 C 36.794 67.993,37.000 67.925,37.000 67.833 C 37.000 67.742,36.981 67.674,36.958 67.683 C 36.935 67.692,36.729 67.760,36.500 67.833 M4.231 84.907 C 4.180 85.039,4.168 85.283,4.204 85.449 C 4.245 85.637,4.302 85.547,4.356 85.208 C 4.446 84.641,4.387 84.498,4.231 84.907 " stroke="none" fill="#407038" fill-rule="evenodd"></path></g></svg>