<svg id="svg" xmlns="http://www.w3.org/2000/svg" xmlns:xlink="http://www.w3.org/1999/xlink" width="400" height="119" viewBox="0, 0, 400,119"><g id="svgg"><path id="path0" d="M288.167 4.645 C 288.167 4.723,287.773 5.369,287.292 6.080 C 286.810 6.791,286.340 7.496,286.245 7.645 C 286.151 7.794,285.701 8.472,285.245 9.152 C 284.790 9.831,284.340 10.506,284.245 10.652 C 284.151 10.797,283.701 11.472,283.245 12.152 C 282.790 12.831,282.340 13.506,282.245 13.652 C 282.151 13.797,281.701 14.472,281.245 15.152 C 280.790 15.831,280.340 16.506,280.245 16.652 C 280.151 16.797,279.701 17.472,279.245 18.152 C 278.790 18.831,278.340 19.506,278.245 19.652 C 278.151 19.797,277.701 20.472,277.245 21.152 C 276.790 21.831,276.340 22.506,276.245 22.652 C 276.151 22.797,275.701 23.472,275.245 24.152 C 274.790 24.831,274.340 25.506,274.245 25.652 C 274.151 25.797,273.701 26.472,273.245 27.152 C 272.790 27.831,272.340 28.506,272.245 28.652 C 272.151 28.797,271.701 29.472,271.245 30.152 C 270.790 30.831,270.340 31.506,270.245 31.652 C 270.151 31.797,269.701 32.472,269.245 33.152 C 268.790 33.831,268.340 34.506,268.245 34.652 C 268.151 34.797,267.701 35.472,267.245 36.152 C 266.790 36.831,266.340 37.506,266.245 37.652 C 266.151 37.797,265.701 38.472,265.245 39.152 C 264.790 39.831,264.340 40.506,264.245 40.652 C 264.151 40.797,263.701 41.472,263.245 42.152 C 262.790 42.831,262.340 43.506,262.245 43.652 C 262.151 43.797,261.701 44.472,261.245 45.152 C 260.790 45.831,260.340 46.506,260.245 46.652 C 260.151 46.797,259.701 47.472,259.245 48.152 C 258.790 48.831,258.340 49.506,258.245 49.652 C 258.151 49.797,257.701 50.472,257.245 51.152 C 256.790 51.831,256.340 52.506,256.245 52.652 C 256.151 52.797,255.701 53.472,255.245 54.152 C 254.790 54.831,254.340 55.506,254.245 55.652 C 254.151 55.797,253.701 56.472,253.245 57.152 C 252.790 57.831,252.340 58.506,252.245 58.652 C 252.151 58.797,251.701 59.472,251.245 60.152 C 250.790 60.831,250.340 61.506,250.245 61.652 C 250.151 61.797,249.701 62.472,249.245 63.152 C 248.790 63.831,248.324 64.543,248.211 64.735 C 248.052 65.003,248.004 68.095,248.002 78.208 L 248.000 91.333 269.751 91.333 L 291.503 91.333 291.460 82.542 L 291.417 73.750 280.042 73.707 C 273.785 73.684,268.667 73.627,268.667 73.582 C 268.667 73.537,269.256 72.619,269.976 71.542 C 270.696 70.465,271.615 69.057,272.018 68.413 C 273.185 66.547,273.235 66.470,275.357 63.284 C 276.077 62.203,276.667 61.260,276.667 61.189 C 276.667 61.118,276.948 60.675,277.292 60.204 C 277.635 59.733,278.592 58.292,279.417 57.003 C 280.242 55.714,281.592 53.628,282.417 52.368 C 283.242 51.108,284.342 49.403,284.862 48.580 C 285.383 47.757,285.926 46.952,286.071 46.792 C 286.215 46.631,286.333 46.456,286.333 46.403 C 286.333 46.350,286.585 45.919,286.892 45.445 C 287.734 44.146,289.289 41.737,290.192 40.333 C 290.634 39.646,291.053 39.007,291.123 38.914 C 291.278 38.707,292.191 37.317,293.200 35.750 C 293.613 35.108,294.244 34.142,294.601 33.603 C 295.344 32.480,295.369 32.440,296.202 31.088 C 296.543 30.535,296.901 29.991,296.998 29.878 C 297.095 29.765,297.339 29.390,297.541 29.044 C 297.742 28.699,298.451 27.611,299.115 26.626 C 299.780 25.641,300.449 24.591,300.602 24.293 C 300.755 23.994,300.926 23.712,300.983 23.667 C 301.040 23.621,301.273 23.303,301.501 22.959 C 301.730 22.616,302.048 22.335,302.208 22.334 C 302.485 22.333,302.500 24.629,302.500 68.217 C 302.500 103.681,302.545 114.145,302.700 114.300 C 302.996 114.596,320.659 114.587,321.032 114.292 C 321.251 114.118,321.312 113.469,321.399 110.417 C 321.490 107.251,321.960 102.083,322.158 102.083 C 322.197 102.083,322.214 101.992,322.583 99.833 C 322.732 98.962,322.921 98.100,323.004 97.917 C 323.087 97.733,323.276 97.096,323.424 96.500 C 323.786 95.040,324.899 91.703,325.231 91.083 C 325.378 90.808,325.498 90.520,325.499 90.442 C 325.500 90.365,325.754 89.765,326.065 89.109 C 326.375 88.453,326.751 87.654,326.899 87.333 C 327.047 87.013,327.390 86.412,327.661 86.000 C 327.932 85.587,328.258 85.025,328.385 84.750 C 328.641 84.195,330.645 81.272,331.127 80.750 C 331.297 80.567,331.631 80.149,331.870 79.822 C 333.315 77.843,337.327 74.050,340.358 71.796 C 342.706 70.050,343.005 69.833,343.065 69.833 C 343.100 69.833,344.205 69.176,345.522 68.372 C 347.949 66.890,356.261 62.667,356.750 62.667 C 356.807 62.667,357.243 62.486,357.719 62.265 C 358.194 62.043,359.333 61.548,360.250 61.164 C 361.167 60.780,362.179 60.326,362.500 60.156 C 362.821 59.986,363.346 59.730,363.667 59.587 C 363.988 59.443,364.813 58.993,365.500 58.586 C 366.188 58.179,366.994 57.722,367.292 57.571 C 367.590 57.419,367.833 57.229,367.833 57.148 C 367.833 57.066,367.927 57.000,368.042 56.999 C 368.271 56.999,370.910 54.907,371.833 53.993 C 373.438 52.407,375.505 49.116,375.763 47.737 C 375.822 47.423,375.925 47.167,375.991 47.167 C 376.057 47.167,376.121 47.073,376.134 46.958 C 376.146 46.844,376.284 46.188,376.440 45.500 C 376.937 43.309,376.760 35.677,376.191 34.750 C 376.135 34.658,376.081 34.471,376.071 34.333 C 376.062 34.196,376.010 33.971,375.955 33.833 C 375.901 33.696,375.738 33.157,375.593 32.636 C 375.448 32.114,375.143 31.316,374.915 30.861 C 374.687 30.407,374.500 29.999,374.500 29.955 C 374.500 29.263,372.083 26.274,370.487 24.991 C 363.820 19.635,350.984 21.594,346.405 28.667 C 346.138 29.079,345.872 29.454,345.815 29.500 C 345.682 29.605,344.167 32.582,344.167 32.737 C 344.167 32.800,344.025 33.166,343.853 33.551 C 342.843 35.801,342.142 43.288,342.710 45.750 C 342.774 46.025,342.972 47.000,343.150 47.917 C 343.329 48.833,343.528 49.827,343.592 50.125 L 343.708 50.667 334.553 50.667 L 325.397 50.667 325.127 50.042 C 323.993 47.427,324.012 36.301,325.158 32.333 C 325.330 31.738,325.566 30.800,325.683 30.250 C 325.800 29.700,325.963 29.204,326.046 29.148 C 326.128 29.092,326.191 28.999,326.185 28.941 C 326.180 28.884,326.205 28.742,326.242 28.627 C 326.278 28.511,326.436 28.004,326.592 27.500 C 326.749 26.996,326.979 26.396,327.104 26.167 C 327.229 25.938,327.482 25.412,327.667 25.000 C 328.328 23.524,330.060 20.640,330.355 20.528 C 330.435 20.497,330.500 20.393,330.500 20.296 C 330.500 20.112,331.943 18.276,333.083 17.009 C 334.449 15.492,335.898 14.124,337.240 13.083 C 337.595 12.808,338.089 12.416,338.338 12.211 C 338.908 11.743,340.503 10.667,340.626 10.667 C 340.677 10.667,340.951 10.494,341.234 10.282 C 341.518 10.071,342.157 9.688,342.655 9.432 C 343.152 9.175,343.677 8.901,343.821 8.823 C 345.484 7.917,350.273 6.152,351.250 6.086 C 351.342 6.080,351.493 6.026,351.587 5.968 C 351.864 5.793,356.117 5.201,357.917 5.086 C 359.748 4.970,360.167 4.889,360.167 4.655 C 360.167 4.558,346.445 4.499,324.167 4.501 C 304.367 4.502,288.167 4.567,288.167 4.645 M395.745 41.042 C 395.720 44.233,394.746 50.893,394.044 52.667 C 393.990 52.804,393.933 52.954,393.917 53.000 C 393.901 53.046,393.844 53.196,393.790 53.333 C 393.736 53.471,393.564 53.996,393.408 54.500 C 391.173 61.690,384.820 69.053,375.833 74.869 C 373.295 76.512,372.885 76.762,372.000 77.212 C 371.587 77.422,370.950 77.794,370.583 78.040 C 369.658 78.659,366.436 80.313,359.000 83.985 C 356.938 85.003,355.102 85.930,354.921 86.043 C 352.463 87.586,350.167 89.379,350.167 89.757 C 350.167 89.810,349.946 90.130,349.677 90.468 C 348.415 92.053,347.155 96.574,347.852 97.015 C 348.194 97.232,395.439 97.211,395.844 96.994 C 396.336 96.731,396.343 40.333,395.851 40.333 C 395.796 40.333,395.748 40.652,395.745 41.042 " stroke="none" fill="#ec243b" fill-rule="evenodd"></path><path id="path1" d="M6.167 13.417 L 6.167 22.333 10.917 22.333 L 15.667 22.333 15.667 59.500 L 15.667 96.667 9.917 96.667 L 4.167 96.667 4.167 105.583 L 4.167 114.500 26.417 114.500 L 48.667 114.500 48.667 105.583 L 48.667 96.667 42.917 96.667 L 37.167 96.667 37.167 59.500 L 37.167 22.333 41.917 22.333 L 46.667 22.333 46.667 13.417 L 46.667 4.500 26.417 4.500 L 6.167 4.500 6.167 13.417 M106.917 33.436 C 105.086 33.540,102.251 33.868,102.167 33.986 C 102.121 34.051,101.296 34.237,100.333 34.400 C 99.371 34.563,98.368 34.801,98.105 34.929 C 97.842 35.057,97.129 35.283,96.522 35.431 C 95.914 35.580,95.267 35.793,95.083 35.906 C 94.900 36.018,94.206 36.286,93.542 36.502 C 92.877 36.718,92.333 36.944,92.333 37.004 C 92.333 37.064,92.015 37.208,91.625 37.323 C 91.235 37.438,90.654 37.673,90.333 37.845 C 90.013 38.016,89.325 38.339,88.806 38.563 L 87.861 38.969 87.493 38.110 C 87.291 37.637,87.074 37.212,87.013 37.167 C 86.951 37.121,86.741 36.708,86.545 36.250 L 86.190 35.417 72.012 35.374 L 57.833 35.331 57.833 44.082 L 57.833 52.833 63.583 52.833 L 69.333 52.833 69.333 74.750 L 69.333 96.667 64.500 96.667 L 59.667 96.667 59.667 105.583 L 59.667 114.500 80.083 114.500 L 100.500 114.500 100.500 105.583 L 100.500 96.667 95.667 96.667 L 90.833 96.667 90.833 74.780 L 90.833 52.893 92.542 52.500 C 93.481 52.284,94.327 52.050,94.420 51.981 C 95.711 51.030,108.791 51.017,109.494 51.966 C 109.543 52.032,109.973 52.266,110.450 52.485 C 110.927 52.703,111.356 52.985,111.404 53.110 C 111.452 53.236,111.682 53.411,111.915 53.500 C 112.149 53.588,112.412 53.851,112.500 54.085 C 112.589 54.318,112.772 54.551,112.907 54.602 C 113.041 54.654,113.318 55.046,113.523 55.473 C 113.727 55.900,113.944 56.288,114.006 56.333 C 114.159 56.447,114.625 57.935,114.764 58.750 C 114.826 59.117,114.939 59.495,115.015 59.592 C 115.415 60.101,115.500 65.293,115.500 89.274 L 115.500 114.500 132.000 114.500 L 148.500 114.500 148.500 105.583 L 148.500 96.667 142.674 96.667 L 136.847 96.667 136.792 76.875 C 136.734 56.551,136.613 52.924,135.986 52.694 C 135.902 52.664,135.833 52.501,135.833 52.333 C 135.833 51.895,135.161 49.116,135.007 48.917 C 134.936 48.825,134.707 48.225,134.497 47.583 C 134.288 46.942,134.066 46.379,134.004 46.333 C 133.942 46.288,133.714 45.819,133.498 45.292 C 133.282 44.765,133.049 44.333,132.981 44.333 C 132.913 44.333,132.688 43.996,132.482 43.583 C 132.276 43.171,132.058 42.833,131.997 42.833 C 131.936 42.833,131.743 42.567,131.568 42.242 C 131.393 41.917,131.081 41.540,130.875 41.405 C 130.669 41.270,130.500 41.080,130.500 40.983 C 130.500 40.763,129.084 39.333,128.866 39.333 C 128.777 39.333,128.582 39.146,128.432 38.917 C 128.282 38.688,128.087 38.500,128.000 38.500 C 127.912 38.500,127.445 38.200,126.962 37.834 C 126.479 37.468,125.990 37.168,125.875 37.167 C 125.760 37.167,125.667 37.103,125.667 37.025 C 125.667 36.947,125.217 36.705,124.667 36.486 C 124.117 36.268,123.667 36.038,123.667 35.975 C 123.667 35.912,123.123 35.695,122.458 35.492 C 121.794 35.289,121.172 35.062,121.077 34.987 C 120.852 34.811,117.899 34.167,117.313 34.167 C 117.065 34.167,116.836 34.098,116.806 34.014 C 116.693 33.705,109.544 33.288,106.917 33.436 M192.167 33.437 C 189.212 33.534,185.251 33.856,185.092 34.012 C 185.005 34.097,184.705 34.167,184.425 34.167 C 183.680 34.167,179.877 34.808,179.539 34.990 C 179.380 35.076,178.556 35.309,177.708 35.508 C 176.860 35.708,176.167 35.937,176.167 36.019 C 176.167 36.100,176.054 36.167,175.917 36.167 C 175.599 36.167,173.610 36.847,173.500 36.994 C 173.454 37.055,172.948 37.278,172.375 37.489 C 171.802 37.701,171.333 37.931,171.333 38.000 C 171.333 38.069,171.114 38.217,170.846 38.328 C 170.349 38.534,168.851 39.441,168.250 39.900 C 165.999 41.621,164.496 43.124,162.905 45.250 C 162.083 46.347,160.853 48.567,160.412 49.750 C 160.240 50.208,160.040 50.625,159.967 50.676 C 159.893 50.728,159.675 51.403,159.481 52.176 C 159.287 52.950,159.063 53.665,158.983 53.765 C 158.797 53.996,158.167 57.658,158.167 58.503 C 158.167 58.863,158.076 59.169,157.958 59.208 C 157.672 59.304,157.652 89.407,157.938 90.016 C 158.041 90.237,158.285 91.504,158.480 92.833 C 158.675 94.162,158.909 95.275,159.001 95.306 C 159.092 95.336,159.167 95.478,159.167 95.621 C 159.167 95.987,159.846 98.233,159.988 98.333 C 160.052 98.379,160.278 98.885,160.489 99.458 C 160.701 100.031,160.925 100.500,160.988 100.500 C 161.051 100.500,161.230 100.789,161.386 101.142 C 161.542 101.495,161.856 102.002,162.084 102.267 C 162.313 102.533,162.500 102.822,162.500 102.911 C 162.500 103.100,162.644 103.257,164.693 105.306 C 166.737 107.350,168.404 108.665,168.950 108.666 C 169.060 108.666,169.210 108.770,169.283 108.896 C 169.357 109.023,169.829 109.300,170.333 109.513 C 170.838 109.725,171.292 109.960,171.344 110.035 C 171.396 110.109,171.884 110.326,172.428 110.517 C 172.972 110.708,173.492 110.925,173.583 111.000 C 173.675 111.075,174.350 111.307,175.083 111.517 C 175.817 111.727,176.454 111.943,176.500 111.998 C 176.597 112.113,178.739 112.611,179.833 112.773 C 180.246 112.834,180.621 112.941,180.668 113.011 C 180.768 113.162,185.866 113.833,186.913 113.833 C 187.312 113.833,187.664 113.907,187.694 113.998 C 187.849 114.455,208.315 114.453,208.472 113.995 C 208.503 113.906,208.915 113.835,209.389 113.836 C 210.696 113.840,218.238 113.135,218.333 113.000 C 218.379 112.935,218.904 112.830,219.500 112.768 C 221.708 112.536,224.586 112.105,224.667 111.994 C 224.713 111.931,225.125 111.826,225.583 111.761 C 226.042 111.696,226.585 111.602,226.792 111.553 L 227.167 111.464 227.167 103.149 L 227.167 94.833 226.533 94.833 C 226.185 94.833,225.829 94.900,225.742 94.981 C 225.586 95.127,222.436 95.560,220.000 95.771 C 219.313 95.830,218.675 95.935,218.583 96.004 C 217.549 96.782,193.968 96.779,192.250 96.001 C 192.067 95.918,191.317 95.688,190.583 95.490 C 189.850 95.293,189.174 95.069,189.081 94.995 C 188.989 94.920,188.479 94.696,187.949 94.498 C 187.419 94.300,186.790 93.956,186.552 93.735 C 186.313 93.514,186.048 93.333,185.962 93.333 C 185.508 93.333,182.438 90.426,182.243 89.811 C 182.189 89.640,182.072 89.500,181.985 89.500 C 181.897 89.500,181.755 89.315,181.669 89.090 C 181.583 88.864,181.329 88.395,181.104 88.048 C 180.880 87.701,180.560 86.967,180.394 86.417 C 180.228 85.867,180.039 85.378,179.975 85.331 C 178.920 84.561,178.946 64.322,180.005 62.350 C 180.084 62.203,180.309 61.558,180.506 60.917 C 180.703 60.275,180.915 59.713,180.976 59.667 C 181.037 59.621,181.274 59.172,181.502 58.670 C 181.730 58.168,182.048 57.624,182.208 57.462 C 182.369 57.300,182.500 57.098,182.500 57.014 C 182.500 56.874,184.528 54.800,185.310 54.139 C 185.834 53.696,188.167 52.513,188.907 52.314 C 189.279 52.214,189.622 52.070,189.669 51.995 C 190.049 51.387,199.071 50.962,202.542 51.388 L 203.667 51.527 203.667 57.513 L 203.667 63.500 214.500 63.500 L 225.333 63.500 225.333 50.093 C 225.333 42.719,225.277 36.653,225.208 36.611 C 225.140 36.570,224.371 36.438,223.500 36.318 C 222.629 36.199,221.879 36.053,221.833 35.995 C 221.762 35.904,219.072 35.506,216.667 35.230 C 216.254 35.182,215.767 35.076,215.583 34.993 C 215.246 34.841,208.917 34.166,207.825 34.167 C 207.500 34.167,207.162 34.099,207.075 34.016 C 206.776 33.733,195.955 33.312,192.167 33.437 " stroke="none" fill="#040404" fill-rule="evenodd"></path><path id="path2" d="" stroke="none" fill="#040c0c" fill-rule="evenodd"></path><path id="path3" d="M358.542 5.119 C 358.794 5.158,359.206 5.158,359.458 5.119 C 359.710 5.081,359.504 5.050,359.000 5.050 C 358.496 5.050,358.290 5.081,358.542 5.119 M357.942 21.958 C 357.899 22.027,358.438 22.063,359.140 22.038 C 361.380 21.959,361.636 21.890,359.802 21.861 C 358.821 21.846,357.985 21.890,357.942 21.958 M361.960 21.951 C 362.168 21.991,362.468 21.990,362.627 21.948 C 362.786 21.906,362.617 21.874,362.250 21.875 C 361.883 21.877,361.753 21.911,361.960 21.951 M349.002 25.659 C 348.775 25.834,348.631 26.020,348.682 26.071 C 348.734 26.123,348.952 25.978,349.167 25.749 C 349.632 25.255,349.572 25.222,349.002 25.659 M344.750 31.167 C 344.608 31.442,344.529 31.667,344.575 31.667 C 344.621 31.667,344.774 31.442,344.917 31.167 C 345.059 30.892,345.138 30.667,345.092 30.667 C 345.046 30.667,344.892 30.892,344.750 31.167 M324.959 32.917 C 324.915 33.146,324.944 33.333,325.023 33.333 C 325.102 33.333,325.167 33.146,325.167 32.917 C 325.167 32.688,325.138 32.500,325.103 32.500 C 325.068 32.500,325.003 32.688,324.959 32.917 M395.779 40.296 C 395.887 40.365,396.006 40.720,396.043 41.085 C 396.110 41.744,396.111 41.742,396.139 40.958 C 396.162 40.304,396.116 40.167,395.875 40.169 C 395.682 40.171,395.650 40.214,395.779 40.296 M395.709 41.083 C 395.711 41.450,395.745 41.580,395.785 41.373 C 395.824 41.166,395.823 40.866,395.781 40.706 C 395.739 40.547,395.707 40.717,395.709 41.083 M342.872 47.000 C 342.872 47.321,342.906 47.452,342.948 47.292 C 342.990 47.131,342.990 46.869,342.948 46.708 C 342.906 46.548,342.872 46.679,342.872 47.000 M394.926 48.375 C 394.780 48.853,394.671 49.718,394.769 49.619 C 394.893 49.496,395.155 48.167,395.056 48.167 C 395.019 48.167,394.961 48.260,394.926 48.375 M277.117 60.433 C 276.953 60.653,276.878 60.833,276.952 60.833 C 277.097 60.833,277.557 60.167,277.470 60.083 C 277.441 60.055,277.282 60.213,277.117 60.433 M388.666 63.208 C 388.421 63.544,388.381 63.660,388.561 63.514 C 388.834 63.292,389.247 62.667,389.121 62.667 C 389.089 62.667,388.884 62.910,388.666 63.208 M247.910 65.042 C 247.866 65.156,247.850 71.137,247.874 78.333 L 247.917 91.417 248.000 78.125 C 248.046 70.815,248.062 64.833,248.036 64.833 C 248.011 64.833,247.954 64.927,247.910 65.042 M386.713 65.542 C 386.387 65.963,386.276 66.222,386.473 66.100 C 386.671 65.978,387.066 65.333,386.943 65.333 C 386.905 65.333,386.802 65.427,386.713 65.542 M273.082 66.668 C 272.916 66.852,272.819 67.041,272.867 67.090 C 272.915 67.138,273.079 66.987,273.231 66.755 C 273.563 66.248,273.497 66.209,273.082 66.668 M347.500 67.180 L 347.083 67.520 347.625 67.256 C 347.923 67.110,348.167 66.956,348.167 66.912 C 348.167 66.747,347.901 66.853,347.500 67.180 M342.567 70.192 L 342.250 70.552 342.708 70.257 C 343.181 69.952,343.270 69.833,343.026 69.833 C 342.948 69.833,342.742 69.995,342.567 70.192 M380.083 71.771 C 379.784 72.026,379.722 72.127,379.930 72.024 C 380.236 71.872,380.809 71.324,380.645 71.339 C 380.611 71.343,380.358 71.537,380.083 71.771 M369.208 78.686 C 368.456 79.168,368.526 79.278,369.292 78.818 C 370.066 78.352,370.091 78.333,369.903 78.336 C 369.819 78.338,369.506 78.495,369.208 78.686 M361.125 82.762 C 360.502 83.100,360.540 83.241,361.167 82.917 C 361.442 82.774,361.667 82.623,361.667 82.579 C 361.667 82.472,361.649 82.478,361.125 82.762 M327.213 86.708 C 326.914 87.095,326.813 87.333,326.948 87.332 C 327.023 87.331,327.170 87.144,327.276 86.915 C 327.487 86.461,327.464 86.384,327.213 86.708 M347.924 94.042 C 347.785 94.487,347.642 95.578,347.735 95.486 C 347.853 95.369,348.152 93.833,348.057 93.833 C 348.020 93.833,347.960 93.927,347.924 94.042 " stroke="none" fill="#f01820" fill-rule="evenodd"></path><path id="path4" d="" stroke="none" fill="#401820" fill-rule="evenodd"></path></g></svg>