<svg xmlns="http://www.w3.org/2000/svg" width="89.031" height="90.312" viewBox="0 0 89.031 90.312">
  <metadata><?xpacket begin="﻿" id="W5M0MpCehiHzreSzNTczkc9d"?>
<x:xmpmeta xmlns:x="adobe:ns:meta/" x:xmptk="Adobe XMP Core 5.6-c142 79.160924, 2017/07/13-01:06:39        ">
   <rdf:RDF xmlns:rdf="http://www.w3.org/1999/02/22-rdf-syntax-ns#">
      <rdf:Description rdf:about=""/>
   </rdf:RDF>
</x:xmpmeta>
                                                                                                    
                                                                                                    
                                                                                                    
                                                                                                    
                                                                                                    
                                                                                                    
                                                                                                    
                                                                                                    
                                                                                                    
                                                                                                    
                                                                                                    
                                                                                                    
                                                                                                    
                                                                                                    
                                                                                                    
                                                                                                    
                                                                                                    
                                                                                                    
                                                                                                    
                                                                                                    
                           
<?xpacket end="w"?></metadata>
<defs>
    <style>
      .cls-1 {
        fill: none;
        stroke: #fff;
        stroke-width: 2px;
        fill-rule: evenodd;
      }
    </style>
  </defs>
  <path id="Color_Fill_1" data-name="Color Fill 1" class="cls-1" d="M193.739,130.16H177.793v16.023c-1.749-.274-3.266-1.64-4.493-2.549-4.071-3.018-6.248-7-7.4-13.11a41.756,41.756,0,0,0,4.757-3.368,21.537,21.537,0,0,0,3.436-2.367,2.741,2.741,0,0,0,3.26-.182c0.417-.431.3-1.276,1.057-1.366,0.735-.462,2.628-0.225,3.612-0.455,1.394-.326,2.918-0.2,4.405-0.546a25.27,25.27,0,0,1,5.11-.637c0.366,0.614,1.905,1.831,3,1,1.346-.346,1.98-2.5,1.057-3.824-1.284-1.837-3.686-.766-4.317.911a17.619,17.619,0,0,0-3.347.455c-1.005.238-2.01,0.152-2.908,0.364l-3.7.364a18.828,18.828,0,0,1-3.7.456c-0.286-.2-0.5-0.55-0.793-0.729a2.652,2.652,0,0,0-3.171.637c-0.386.555-.244,1.419-0.529,1.912a6.546,6.546,0,0,1-.969.638c-1.27.919-2.555,1.822-3.876,2.731a11.478,11.478,0,0,1-2.467,1.729v-1.274a4.253,4.253,0,0,0,.088-0.91q0.309-1.548.617-3.1a22.461,22.461,0,0,1,2.907-6.008,18.932,18.932,0,0,1,9.691-6.919c4.33-1.44,10.632-.495,13.743,1.456,0.92,0.577,1.8,1.27,2.643,1.912a11.164,11.164,0,0,1,2.291,2,23.8,23.8,0,0,1,4.581,9.377c1.181,4.889-.635,10.7-2.379,13.565-0.6.991-1.451,1.823-2.114,2.731-0.822,1.124-2.765,3.1-4.141,3.55V130.16Zm-59.29-1.638h1.85V128.43a14.128,14.128,0,0,1-1.233-2.275c-0.591-1-1.25-2-1.762-3.1h-0.088v0.091a12.46,12.46,0,0,0-1.146,2.094,15.265,15.265,0,0,0-1.85,3.278h1.85v52.164h50.481a7.34,7.34,0,0,1,.088,1.912h0.088a11.9,11.9,0,0,1,2.026-1.183c1-.631,2.057-1.285,3.084-1.912a13.052,13.052,0,0,0-2.467-1.457,12.242,12.242,0,0,0-2.731-1.638v1.82h-48.19V144.635a27.759,27.759,0,0,0,3.26-2.094c1.371-.9,2.768-1.565,4.14-2.458,0.829-.539,2.568-1.992,3.524-2.185a1.585,1.585,0,0,0,2.026-.182c2.223,0.969,4.432,2.108,6.608,3.1,0.575,0.261,1.75.448,2.026,1l0.264,0.819a1.631,1.631,0,0,0,2.027.547c1.058-.35.581-1.021,1.057-1.821a29.525,29.525,0,0,1,4.317-3,10.029,10.029,0,0,1,2.2-1.548v0.182q0.264,0.819.529,1.639A24.282,24.282,0,0,0,168.1,142a17.346,17.346,0,0,0,1.938,2.549l1.233,1.184v32.045h10.572V150.644a2.124,2.124,0,0,1,.7-0.091,3.827,3.827,0,0,0,1.585.091,14.7,14.7,0,0,0,3.789-.637,21.126,21.126,0,0,0,7.488-3.915c1.463-1.14,2.591-3.449,4.053-4.461a45.035,45.035,0,0,0,1.057,4.916q0.22,2.139.44,4.279v3.915a33.967,33.967,0,0,1-1.409,10.014c-0.819,2.595-1.394,4.878-2.379,7.192-3.881,9.112-10.583,15.409-18.5,20.392a30.841,30.841,0,0,1-4.14,1.912,61.964,61.964,0,0,1-8.9,2.731c-1.492.4-2.968,0.1-4.581,0.456a20.832,20.832,0,0,1-6.52-.092c-1.521-.358-2.975-0.16-4.405-0.546-4.743-1.278-9.151-2.572-12.862-4.916-1.713-1.082-3.417-2.242-5.022-3.459-0.434-.33-0.805-0.851-1.233-1.184a28.467,28.467,0,0,1-3-2.822l-0.969-.91c-1.244-1.7-2.683-3.252-3.877-5.007a47.368,47.368,0,0,1-5.638-12.109,40.66,40.66,0,0,1-1.762-12.472,29.581,29.581,0,0,1,.264-6.008c0.459-2.013.546-4.109,1.146-6.009,0.764-2.42,1.635-4.764,2.554-6.919a42.65,42.65,0,0,1,21.408-21.849,59.324,59.324,0,0,1,5.727-2,35.039,35.039,0,0,1,11.188-1.638,23.54,23.54,0,0,1,4.934.182c1.733,0.41,3.53.421,5.2,0.91,1.37,0.4,2.784.941,4.14,1.275v0.091h-0.088c-0.621.955-1.88,1.446-2.555,2.367a27.322,27.322,0,0,0-4.493,8.011c-0.3.938-.286,1.783-0.528,2.822a14.966,14.966,0,0,0-.265,4.916l0.441,3a19.677,19.677,0,0,1,.705,2.458,5.265,5.265,0,0,0-1.41,1c-1.082.786-2.188,1.536-3.26,2.276a9.069,9.069,0,0,0-2.2,1.548,3.2,3.2,0,0,0-1.057-.365c-0.476-.017-0.939.567-1.234,0.456l-8.457-3.824c-0.07-.961-1.208-2.4-2.291-1.548-0.9.3-.606,0.989-1.057,1.73a21.16,21.16,0,0,1-3.259,2c-2.237,1.454-4.492,3.108-6.872,4.37V128.522Zm24.667,20.392v28.859h10.572V148.914H159.116Zm-12.069,12.654v16.2h10.572v-16.2H147.047Zm-12.158,5.918v10.287h10.572V167.486H134.889Z" transform="translate(-114.75 -108.344)"/>
</svg>
