<svg xmlns="http://www.w3.org/2000/svg" width="87" height="88.313" viewBox="0 0 87 88.313">
  <metadata><?xpacket begin="﻿" id="W5M0MpCehiHzreSzNTczkc9d"?>
<x:xmpmeta xmlns:x="adobe:ns:meta/" x:xmptk="Adobe XMP Core 5.6-c142 79.160924, 2017/07/13-01:06:39        ">
   <rdf:RDF xmlns:rdf="http://www.w3.org/1999/02/22-rdf-syntax-ns#">
      <rdf:Description rdf:about=""/>
   </rdf:RDF>
</x:xmpmeta>
                                                                                                    
                                                                                                    
                                                                                                    
                                                                                                    
                                                                                                    
                                                                                                    
                                                                                                    
                                                                                                    
                                                                                                    
                                                                                                    
                                                                                                    
                                                                                                    
                                                                                                    
                                                                                                    
                                                                                                    
                                                                                                    
                                                                                                    
                                                                                                    
                                                                                                    
                                                                                                    
                           
<?xpacket end="w"?></metadata>
<defs>
    <style>
      .cls-1 {
        fill: #fff;
        fill-rule: evenodd;
      }
    </style>
  </defs>
  <path id="Color_Fill_1" data-name="Color Fill 1" class="cls-1" d="M60.133,41a1.922,1.922,0,0,1,1.208.2c0.663,0.243.8,0.453,0.863,1.434a3.17,3.17,0,0,1,.173,1.434c-1.5,1.26-2.175,4.445-2.761,6.147-1.018,2.957-2.88,5.285-3.969,8.4-0.887,2.54-2.706,5.642-3.969,8.4-0.374.817-.284,2.049-0.863,3.074-0.8,1.417-2.591,3.95-2.933,5.737a3.5,3.5,0,0,1-.173,1.434c-0.9,1.781-2,3.713-2.933,5.532-0.6,1.166-.326,2.008-0.863,3.073-0.352.7-1.02,1.408-1.38,2.049a34.555,34.555,0,0,0-2.071,5.532c-1.366,3.95-4.987,7.607-5,12.5a20.009,20.009,0,0,1,2.933,6.761l-0.173,1.64a10.07,10.07,0,0,1,.345,2.253,37.423,37.423,0,0,1-1.553,4.918,4.056,4.056,0,0,1-.172,1.434c-1.494,2.8-3.278,3.761-5.694,4.918a32.334,32.334,0,0,1-2.933,1.434l-2.416-.205-1.208.205a14.023,14.023,0,0,1-1.381-1.024l-1.38-.205-0.345-.82a12.961,12.961,0,0,0-1.38-.615,2.765,2.765,0,0,1-.345-0.819c-0.386-.6-1.436-1.012-1.726-1.639l0.173-.615a13.777,13.777,0,0,1-1.38-2.049c-0.183-.59.055-1.612-0.345-2.459l-0.345.2c-1.529-5.33,1.637-12.447,4.314-14.752,1.513-1.3,5.942-1.749,6.557-3.893,1.221-2.028.657-9.859,1.208-12.7,0.631-3.258,3.355-5.63,4.486-8.4l-0.173-.615c0.678-1.786,2.346-3.192,3.279-4.713,1.151-1.877,2.225-3.863,3.279-5.737a20.737,20.737,0,0,0,1.035-1.844L39.944,66c0.721-1.914,2.492-3.431,3.451-5.122,2.672-4.711,4.379-9.088,7.765-12.908C53.309,45.542,58.483,43.94,60.133,41Zm21.742,64.952a3.379,3.379,0,0,1-.863,1.844c-0.557,1.013-.574,2.183-1.38,2.869-2.478,2.107-4.711-.69-6.557-1.025a12.994,12.994,0,0,1-2.416,5.532c-0.541-.023-2.253.573-3.106,0.41v-0.2a15.64,15.64,0,0,1-3.278-1.844c0.251,2.568-2.049,6.168-4.659,6.147-0.7-.887-1.689-0.347-2.416-0.82-0.441-.287-0.983-0.9-1.553-1.229-0.7,3.527-2.511,6.517-6.039,6.147-0.376-.887-1.444-1.35-1.553-1.844-0.439-.637-0.183-1.664-0.69-2.664a0.517,0.517,0,0,1-.518-0.41c-0.252-.924.015-1.525-0.345-2.254l-0.518-.2c-0.345-.6.105-0.933,0-1.435a5.517,5.517,0,0,0-.863-1.434,7.2,7.2,0,0,1-.173-1.639,5.972,5.972,0,0,0-.863-1.434c-0.476-.88.074-1.858-0.518-2.869l-0.518-.2c-0.369-.79.039-1.455-0.345-2.459a33.942,33.942,0,0,1-1.725-4.712c-0.192-1.253,1.731-5.923,2.588-6.147a0.545,0.545,0,0,0,.173.2c0,1.769.72,1.977,1.035,3.073,0.167,0.583-.083,1.476.345,2.254a3.541,3.541,0,0,1,.69.82,2.132,2.132,0,0,0-.172.819c0.081,0.31.568,1.725,0.863,1.23l0.173,1.844c0.185,0.637.877,1.284,1.035,1.844l-0.172.819a10.776,10.776,0,0,0,1.035,1.844c0.277,0.652-.187.511,0,1.23a6.376,6.376,0,0,0,.863,1.434,1.457,1.457,0,0,1,0,1.229c0.251,0.76,1.023,1.59,1.208,2.254,0.217,0.777-.291,1.664.69,2.254v-0.2c0.945-1.273.948-4.095,2.416-4.712,2.041-1.674,4.752,2.559,6.039,1.844,1.214-1.652.689-4.81,2.416-5.942,2.008-1.316,4.915,2.291,6.212,1.639,0.858-1.138,1.684-4.851,2.761-5.327a3.755,3.755,0,0,1,2.243-.615c0.343,0.51,3.352,2.317,3.8,2.049,1.4-1.887.668-6.023,3.451-6.352,1.133-.669,3.405,1.625,4.659,1.844-0.122-1.233-.763-1.651-1.035-2.459a1.06,1.06,0,0,1,.173-0.82,18.861,18.861,0,0,0-1.035-1.844l-0.173-1.844c-0.1-.3-0.4-1.245-0.69-0.82L82.048,90.79l-0.518-.2-0.173-1.844c-0.4-1.216-1.9-3.946-1.725-5.122,0.107-.7-0.851-1.632-1.035-2.049-0.383-.868.039-1.829-0.518-2.868l-0.345.2-0.345-2.254c-0.328-.927-1.82-4.016-1.726-4.713,0.083-.616-0.552-2.328-0.863-1.844l-0.172-1.844c-0.183-.64-0.875-1.283-1.035-1.844l0.173-.82a14.6,14.6,0,0,0-1.035-1.844L72.557,61.9a4.394,4.394,0,0,0-.69-0.82c-0.485-.859.071-1.865-0.518-2.869l-0.518-.2c-0.3-.63.111-0.713,0-1.229-0.083-.386-0.57-1.86-0.863-1.434a13.336,13.336,0,0,0-.345-1.844,0.8,0.8,0,0,0-.518-0.2c-1.58,1.44-3.2,1.376-5,2.254-1.612.786-3.025,1.978-4.659,2.254v-0.41c1.372-1.781,1.735-4.233,2.588-6.352,2.3-.41,6.805-3.966,9.318-2.049a7.193,7.193,0,0,1,1.9,1.844c0.715,1.36.809,3.089,1.208,4.3,0.209,0.635.863,1.239,1.035,1.844a2.193,2.193,0,0,0-.172.819c0.267,1.046,1.112,1.5.863,2.664,0.428,1.286,2.055,4.678,1.9,5.737-0.1.706,0.851,1.629,1.035,2.049,0.109,0.247.353,3.415,0.863,2.664l0.172,1.844c0.243,0.948.839,1.96,1.035,2.664,0.14,0.5.264,1.977,0.69,1.434,0.555,1.326,1.266,6.065,1.725,5.942,0.308-.387.537,2.553,0.69,2.868,0.378,0.779,2.53,6.327,2.416,7.171-0.131.969,1.022,1.97,1.208,2.664a2.2,2.2,0,0,0-.173.82c0.274,1.1,1.992,4.624,1.9,5.327-0.171,1.278.472,2.609,0,3.483C88.486,109.793,83.892,106.219,81.875,105.952ZM65.827,59.646h0.518c-0.064,1.272,1.335,2.782.863,3.893C66.054,64.75,62.71,66.08,61,66.407a12.277,12.277,0,0,1-1.208-3.893C61.44,62.1,64.492,61.153,65.827,59.646Zm-28.3,3.073a0.758,0.758,0,0,1,.518.2c-0.776,1-1.212,2.9-2.071,4.3-1.16,1.9-2.671,3.508-3.624,5.737a0.545,0.545,0,0,1-.172-0.2c-0.663-.8-1.523-3.966-0.69-5.327C32.373,63.615,35.69,64.689,37.528,62.719Zm-23.813.615c5.569-.051,9.138,3.831,11.044,7.581a11.79,11.79,0,0,1,.173,1.844,9.988,9.988,0,0,0,.345,1.434l0.345-.2c0.6,1.785-.474,1.925.863,3.483,0.44,0.513,0,.584.518,0.82,0.757,0.809,1.48.346,2.243,1.025-1.93,2.36-2.539,5.679-3.8,8.4-0.42.91-.1,2.355-0.863,2.868-0.082-.149-2.059-2.044-2.071-2.049-1.013-.823-1.859.586-2.933,0.82-0.216-.179-3.4,1.449-4.141,1.639-1.087.278-5.884-.977-6.212-1.229l-0.173-.615c-0.643-.643-1.423-0.394-1.9-0.82s-0.665-1.5-1.208-1.844c-0.157-.1-0.452.272-0.69-0.2-0.362-.725-0.23-1.487-0.69-2.049H4.053C3.78,83.878,4.041,83.328,3.88,82.8c-1.627-5.356-1.533-9.666,1.208-14.138,0.818-1.335,3.924-4.209,5.349-4.713C11.3,63.642,12.785,64.057,13.716,63.334Zm55.045,4.917a9.361,9.361,0,0,1,1.208,3.893L53.4,79.725c-0.206-.931-1.333-3.1-1.035-3.688,1-1.009,2.683-1.2,3.969-1.844,2.848-1.428,5.954-2.88,8.8-4.3C66.338,69.29,67.822,69.17,68.761,68.251Zm-54.872.41a3.047,3.047,0,0,1-1.553.2c-1.838.446-3.824,2.825-4.486,4.713-0.655,1.865-.4,6.613.518,7.991,0.228,0.344.565,0.019,0.863,0.615a3.58,3.58,0,0,0,.863,1.639l0.518-.2c0.286,0.188.442,0.825,0.69,1.024a7.276,7.276,0,0,0,4.486.615,15.477,15.477,0,0,0,4.141-2.868,9.968,9.968,0,0,1,.863-2.869l0.518-.41a5.127,5.127,0,0,0-.172-3.074c-0.318-1.054.257-1.421-.173-2.459A7.444,7.444,0,0,0,13.888,68.661ZM65.31,103.083c-3.491.126-6.344-.432-6.557-4.1l3.106-1.229,0.173,1.229c1.18,1.009,3.572,2.1,4.314-.41a2.315,2.315,0,0,0,.345-1.639c-0.477-.584-0.917-1.256-1.38-1.844-4.623.055-7.627,0.009-8.8-4.3a7.851,7.851,0,0,1,0-3.483c0.469-1.444,1.877-2.254,2.588-3.483a2.359,2.359,0,0,1-.518-1.434h0.345a2.276,2.276,0,0,1,1.553-.615L61,83.413c2.89-1.259,5.58,1.258,5.867,3.893a29.376,29.376,0,0,1-3.279,1.229,2.377,2.377,0,0,0-2.071-2.049c-1.212.967-1.954,0.709-1.9,3.278a0.792,0.792,0,0,1,.173.41L60.823,91.2l6.212,0.41c1.774,0.793,2.282,2.5,2.761,4.918a5.241,5.241,0,0,1-.172,2.664c-0.531,1.41-2.034,1.986-2.588,3.279a2.4,2.4,0,0,1,.345,1.229H67.208V103.9c-0.624.121-1.249,0.621-1.553,0.41A2.4,2.4,0,0,1,65.31,103.083Zm-31.75-16.8c-1.164,1.88-2.451,1.744-2.416,5.327,0.772,0.351.542,0.828,0.69,1.434,1.113,0.855,1.722,1.425,3.279,1.434,0.337-.318.828-0.309,1.208-0.615,0.71-.571.972-1.727,1.553-2.459a14.218,14.218,0,0,0-.518-3.483C36.179,87,35.636,86.263,33.56,86.282Zm-6.73,20.694c-0.837.717-1.723,0.4-2.416,0.615a8.113,8.113,0,0,0-3.106,2.869c-2.652,4.379-.685,11.143,2.588,12.5,0.295,0.33,3.362,1.3,4.486.82,0.653-.277,1.405-1.1,2.243-1.23,0.331,0.4,1.243-1.052,1.553-1.434,0.5-.618,2.467-4.42,1.9-6.556C32.859,109.984,31.1,107.573,26.83,106.976Z" transform="translate(-2.813 -41)"/>
</svg>
