<svg xmlns="http://www.w3.org/2000/svg" width="89" height="90.313" viewBox="0 0 89 90.313">
  <metadata><?xpacket begin="﻿" id="W5M0MpCehiHzreSzNTczkc9d"?>
<x:xmpmeta xmlns:x="adobe:ns:meta/" x:xmptk="Adobe XMP Core 5.6-c142 79.160924, 2017/07/13-01:06:39        ">
   <rdf:RDF xmlns:rdf="http://www.w3.org/1999/02/22-rdf-syntax-ns#">
      <rdf:Description rdf:about=""/>
   </rdf:RDF>
</x:xmpmeta>
                                                                                                    
                                                                                                    
                                                                                                    
                                                                                                    
                                                                                                    
                                                                                                    
                                                                                                    
                                                                                                    
                                                                                                    
                                                                                                    
                                                                                                    
                                                                                                    
                                                                                                    
                                                                                                    
                                                                                                    
                                                                                                    
                                                                                                    
                                                                                                    
                                                                                                    
                                                                                                    
                           
<?xpacket end="w"?></metadata>
<defs>
    <style>
      .cls-1 {
        fill: none;
        stroke: #fff;
        stroke-width: 2px;
        fill-rule: evenodd;
      }
    </style>
  </defs>
  <path id="Color_Fill_1" data-name="Color Fill 1" class="cls-1" d="M71.437,63.533c5.251,0.093,7.38-3.183,7.276-8.623-3.194-.1-6.345.462-7.107,2.759H71.437V54.91c5.218,0.02,7.383-3.279,7.276-8.8-4.334-.1-4.916,1.115-7.276,2.759V46.115c5.291,0.1,7.379-3.158,7.276-8.623-3.4-.1-6.02.545-7.107,2.759H71.437V39.389c1.952-1.358,3.145-5.575,1.861-8.623-0.667-1.584-2.154-2.457-3.046-3.794a0.485,0.485,0,0,0-.169.172c-2.338,1.546-4.668,5.407-3.215,9.313,0.514,1.382,1.91,2.1,2.031,3.794H68.729V39.906c-2.39-1.608-2.869-2.418-7.107-2.414-0.11,5.432,2.016,8.727,7.276,8.623v2.759H68.729c-1.332-2.085-3.666-2.789-7.107-2.759-0.105,5.483,2.087,8.812,7.276,8.8V57.5H68.729c-1.335-2.089-3.626-2.621-7.107-2.587-0.109,5.414,2.045,8.721,7.276,8.623V80.262c0,1.264.3,5.057-.169,5.346-1.219,1.218-3.219,1.681-4.907,2.414A37.042,37.042,0,0,1,49.1,91.3V63.361c7.128,0.094,10.093-4.454,9.983-11.9-3.61-.069-6.111.242-8.122,1.725-0.694.511-1.126,1.387-1.861,1.9V51.461c7.23,0.1,10.093-4.388,9.983-11.9-4.682-.115-8.311.741-9.814,3.794H49.1V39.561c7.3,0.106,10.091-4.343,9.983-11.9-3.957-.079-6.455.588-8.63,2.242-0.537.409-.8,1.14-1.354,1.552V30.421c2.673-1.764,4.4-7.471,2.707-11.555-0.97-2.341-2.947-3.584-4.23-5.519H47.409V13.52c-3.209,2.127-6.607,7.685-4.4,13.107,0.693,1.7,2.595,2.761,2.707,4.829H45.548c-1.78-2.857-4.986-3.815-9.645-3.794a13.678,13.678,0,0,0-.169,3.622c0.462,0.75.326,1.923,0.677,2.759,1.4,3.337,4.5,5.569,9.307,5.519v3.794H45.548V43.183c-2.835-2.718-4.186-3.628-9.814-3.622-0.111,7.446,2.825,12,9.983,11.9v3.794H45.548V54.91c-0.825-.557-1.381-1.524-2.2-2.069-1.923-1.282-4.365-1.376-7.614-1.38-0.108,7.44,2.9,11.936,9.983,11.9V91.3c-8.353.194-14.607-3.056-20.136-5.864,0.57-1.761.169-4.8,0.169-6.9v-15c5.237,0.086,7.381-3.18,7.276-8.623-3.4-.1-6.02.545-7.107,2.759H25.75V54.91c5.121-.03,7.385-3.158,7.276-8.623-4.8-.1-4.657.766-7.276,2.587V46.115c5.284,0.1,7.381-3.153,7.276-8.623-4.739-.1-4.709.972-7.276,2.759V39.389c2.387-1.6,3.129-6.758,1.354-9.658l-2.538-2.759H24.4v0.172a8.348,8.348,0,0,0-3.215,9.14c0.477,1.461,1.827,2.182,2.031,3.794H23.043c-1.321-2.064-3.674-2.619-7.107-2.587-0.048,4.106,1.16,6.9,3.892,8.106,0.921,0.408,2.489.143,3.384,0.69a6.361,6.361,0,0,1,.169,2.587H23.043c-1.286-2.01-3.628-2.784-6.938-2.759a7.943,7.943,0,0,0-.169,2.242c0.377,0.632.22,1.727,0.508,2.414,1.049,2.5,3.512,4.032,6.938,4.139V57.67H23.043c-0.785-2.311-3.917-2.806-7.107-2.759-0.106,5.339,2.117,8.712,7.276,8.623v20.35H23.043a10.927,10.927,0,0,0-2.369-1.725,39.537,39.537,0,0,1-4.23-4.139l-1.692-1.552A53.119,53.119,0,0,1,4.768,55.945C3.092,49.612,4.1,40.107,5.783,34.905,10.523,20.269,18.4,11.677,31.842,5.932A35.689,35.689,0,0,1,46.055,3h5.076c4.111,0.951,8.009,1.119,11.506,2.587,12.145,5.1,20.55,13.663,25.551,26.041,1.067,2.641,1.495,5.717,2.2,8.623a33.646,33.646,0,0,1,.169,10.693l-0.169,3.1-1.354,6.036a50.447,50.447,0,0,1-6.261,12.934c-0.764,1.108-1.919,2.041-2.707,3.1-1.54,2.077-6.156,6.948-8.63,7.761V63.533Z" transform="translate(-2.906 -2)"/>
</svg>
