<svg xmlns="http://www.w3.org/2000/svg" width="89" height="90" viewBox="0 0 89 90">
  <metadata><?xpacket begin="﻿" id="W5M0MpCehiHzreSzNTczkc9d"?>
<x:xmpmeta xmlns:x="adobe:ns:meta/" x:xmptk="Adobe XMP Core 5.6-c142 79.160924, 2017/07/13-01:06:39        ">
   <rdf:RDF xmlns:rdf="http://www.w3.org/1999/02/22-rdf-syntax-ns#">
      <rdf:Description rdf:about=""/>
   </rdf:RDF>
</x:xmpmeta>
                                                                                                    
                                                                                                    
                                                                                                    
                                                                                                    
                                                                                                    
                                                                                                    
                                                                                                    
                                                                                                    
                                                                                                    
                                                                                                    
                                                                                                    
                                                                                                    
                                                                                                    
                                                                                                    
                                                                                                    
                                                                                                    
                                                                                                    
                                                                                                    
                                                                                                    
                                                                                                    
                           
<?xpacket end="w"?></metadata>
<defs>
    <style>
      .cls-1 {
        fill: none;
        stroke: #fff;
        stroke-width: 2px;
        fill-rule: evenodd;
      }
    </style>
  </defs>
  <path id="Color_Fill_1" data-name="Color Fill 1" class="cls-1" d="M46.771,6.976A57.373,57.373,0,0,1,78.477,15.6c2.4,1.424,7.768,3.9,7.787,7.144a3.316,3.316,0,0,1-2.225.739C74.013,13.346,50.207,5.541,30.084,12.889A63.518,63.518,0,0,0,17.29,19.294c-2.007,1.315-3.233,3.984-6.4,4.188a3.1,3.1,0,0,1-.834-2.463c2.356-1.328,4.131-3.511,6.4-4.927A74.268,74.268,0,0,1,30.918,9.44l9.456-1.971C42.212,7.089,45.311,7.8,46.771,6.976ZM44.824,20.526c11.865-.256,19.265,2.4,25.865,6.651,1.825,1.174,4.848,2.356,5.006,4.927a3.649,3.649,0,0,1-2.5.739C65.484,25.5,49.233,20.324,34.812,25.7a42.584,42.584,0,0,0-7.787,3.942c-1.871,1.214-2.384,3.081-5.562,3.2a2.577,2.577,0,0,1-.834-1.971c3.961-3.158,8.025-6.152,13.35-8.129a57.665,57.665,0,0,1,6.675-1.724C42,20.7,43.794,21.111,44.824,20.526ZM44.546,34.075c7.643-.188,12.145.9,16.409,3.449,1.747,1.045,3.835,1.631,3.894,4.188a3.316,3.316,0,0,1-2.225.739C58.558,38.554,49.24,35,40.93,38.016c-2.879,1.044-5.593,4.245-8.622,4.434a2.792,2.792,0,0,1-.834-2.217c2.445-1.388,4.383-3.547,7.231-4.681ZM49.83,60.434c0.03,6.441.979,15.9-.278,21.679a1.993,1.993,0,0,0-1.112.493,1.907,1.907,0,0,1-1.669-.985c-0.792-1.123-.278-4.29-0.278-5.912V60.434c-8.9-1.541-5.763-14.626,3.337-12.317C56.479,49.8,57.421,59.56,49.83,60.434Zm-2.781-9.361c-0.625.482-1.8,0.851-2.225,1.478-1.226,1.8.223,4.256,1.669,4.681,1.143,0.831,2.605.3,3.894,0,0.636-.866,1.231-1.09,1.391-2.464,0.49-.7-0.04-1.416-0.278-2.217C50.065,51.7,49.664,51.067,47.049,51.073ZM17.012,69.8c-0.312,2.4-1.848,4.878-2.781,6.9-1.352,2.924-1.816,5.665-3.059,8.622-0.845,2.011-2.079,4.027-2.5,6.405H87.655c-0.235-1.853-1.27-3.443-1.947-4.927l-6.4-17c-7.013.028-16.429,0.844-22.806-.246V69.056a2.406,2.406,0,0,1-.278-1.478l0.556-.246c1.256-.849,4.542-0.493,6.675-0.493,5.762,0,12.837-.675,18.078.246,3.2,6.5,5.455,13.8,8.344,20.447,0.7,1.614,3.14,6,.834,6.9-1.225.672-4.62,0.246-6.4,0.246H26.19c-6.736,0-14.938.808-21.137-.246C3.8,92.024,6.094,88.945,7,86.793c2.763-6.564,4.464-13.556,7.787-19.708,5.449-.6,12.161-0.246,18.078-0.246,2.136,0,5.415-.355,6.675.493a0.86,0.86,0,0,1,.278.493c0.429,0.578.163,1.055,0,1.725H39.262c-1.218.674-4.626,0.246-6.4,0.246H17.012Zm5.006,6.651v0.739a4.338,4.338,0,0,1-3.059.493,6.081,6.081,0,0,1-.556-2.464c0.585-.6.52-1.328,1.391-1.724C20.951,72.684,23.9,73,25.912,73H43.155a2.017,2.017,0,0,1,1.391,1.971c-0.922.883-.684,1.25-2.781,1.232-0.766.349-3.9,0-5.562,0C31.53,76.2,26.24,76.035,22.018,76.447ZM51.777,73H76.808v0.246h0.278c0.295,2.309,1.621,4.016,2.225,6.159H51.777V73Zm-7.231,6.9c-0.106,2.094.255,3.444,1.947,3.942a3.138,3.138,0,0,0,1.669.493v4.188H13.674c0.127-.948,3-8.45,3.338-8.622H44.546ZM78.2,82.605h1.947a9.128,9.128,0,0,1,1.947,4.927c-2.378,1.35-5.842.985-9.734,0.985H52.333a2.063,2.063,0,0,0-1.113-.246,3.431,3.431,0,0,1-.556-2.217,0.86,0.86,0,0,0,.278-0.493H51.5c1.366-.755,5.279-0.246,7.231-0.246H77.086V85.069h0.278a11.517,11.517,0,0,1,0-1.971A1.065,1.065,0,0,0,78.2,82.605Z" transform="translate(-3.688 -5.969)"/>
</svg>
