<svg xmlns="http://www.w3.org/2000/svg" width="162" height="140" viewBox="0 0 162 140">
  <defs>
    <style>
      .cls-1 {
        fill: none;
        stroke: #fff;
        stroke-width: 2px;
        fill-rule: evenodd;
      }
    </style>
  </defs>
  <path id="Color_Fill_2" data-name="Color Fill 2" class="cls-1" d="M59,11h82c0.31,0.709,14.432,25.455,15,26,0.143,0.138,12.711,24.422,13,25,0.3,0.6,10.843,16.08,11,17,0.129,0.757-12.788,22.431-15,26-6.4,10.321-11.907,21.045-18,31-1.342,2.193-4.57,12-6,13H59c-0.306-.944-14.239-25.548-15-26-0.613-.364-7.927-16.679-13-25-2.584-4.239-10.492-15.47-11-17-0.248-.748,10.834-18.338,11-19,0.109-.434,7.9-16.67,13-25C48.868,29.048,58.75,11.714,59,11Zm7,12c-0.5.633-7.418,13.127-11,19-5.087,8.341-13.832,24.7-14,25s-6.856,11.5-7,12c-0.052.181,6.161,10.992,8,14,6.745,11.03,18.751,32.551,19,33,0.127,0.228,4.728,11.016,5,11h68c0.449-.522,10.545-17.581,11-19,0.368-1.149,12.3-24.273,13-25,0.742-.769,8.1-11.4,8-12-0.132-.82-7.8-13.729-8-14-0.283-.391-18.962-32.879-19-33-0.2-.638-3.69-10.093-5-11H66Z" transform="translate(-19 -10)"/>
</svg>
