<svg xmlns="http://www.w3.org/2000/svg" width="89" height="52" viewBox="0 0 89 52">
  <metadata><?xpacket begin="﻿" id="W5M0MpCehiHzreSzNTczkc9d"?>
<x:xmpmeta xmlns:x="adobe:ns:meta/" x:xmptk="Adobe XMP Core 5.6-c142 79.160924, 2017/07/13-01:06:39        ">
   <rdf:RDF xmlns:rdf="http://www.w3.org/1999/02/22-rdf-syntax-ns#">
      <rdf:Description rdf:about=""/>
   </rdf:RDF>
</x:xmpmeta>
                                                                                                    
                                                                                                    
                                                                                                    
                                                                                                    
                                                                                                    
                                                                                                    
                                                                                                    
                                                                                                    
                                                                                                    
                                                                                                    
                                                                                                    
                                                                                                    
                                                                                                    
                                                                                                    
                                                                                                    
                                                                                                    
                                                                                                    
                                                                                                    
                                                                                                    
                                                                                                    
                           
<?xpacket end="w"?></metadata>
<defs>
    <style>
      .cls-1 {
        fill: none;
        stroke: #fff;
        stroke-width: 2px;
        fill-rule: evenodd;
      }
    </style>
  </defs>
  <path id="Color_Fill_1" data-name="Color Fill 1" class="cls-1" d="M47.135,12c4.28,1.09,8.5,4.751,12.063,6.934,5.529,3.391,11.266,5.736,16.815,9.123,4.835,2.951,9.738,6.221,14.987,8.758v0.365H90.635c-2.1,2.039-5.085,2.8-7.677,4.379-7.235,4.414-14.908,8.251-22.3,12.773C56.769,56.713,51.983,61.049,47.135,62c-3.2-2.9-7.928-4.269-11.7-6.569-6.567-4.006-13.551-8.035-20.105-12.043C11.862,41.263,6.455,39.933,4,36.816c4.039-1.195,7.915-4.477,11.332-6.569,6.536-4,13.367-7.363,19.74-11.313C38.634,16.725,44.593,15.222,47.135,12Zm0,3.284c-1.263,1.55-4.1,2.636-5.849,3.649V19.3c2.005,0.571,5.033,3.441,6.58,2.919,1.823-.414,5.106-2.107,5.849-3.649C51.113,17.912,49.67,16.031,47.135,15.284Zm-7.311,4.379c-1.777,1.6-5.481,2.177-6.58,4.379,2.4,0.651,3.324,2.256,6.214,2.555,1.583-1.408,5.229-1.708,6.214-3.649C43.269,22.366,41.694,20.807,39.824,19.664Zm14.987,0c-1.353,1.659-4.505,2.1-5.483,4.014,2.924,0.74,4.663,2.663,8.042,2.919a17.129,17.129,0,0,1,5.118-2.555V23.678Zm-7.676,4.379A13.209,13.209,0,0,1,42.017,26.6v0.365h1.462v0.365h0.365l1.1-.73c3.411-.84,6.815,1.832,9.139.365C51.482,26.347,49.565,24.825,47.135,24.043Zm-15.719.365c-1.576,1.5-4.2,2.679-6.214,3.649l0.366,0.73c1.292,0.64,4.54,2.583,5.849,1.825,2.223-.677,3.535-2.267,5.849-2.919V27.327C34.788,27.012,33.126,25.522,31.416,24.408Zm32.168,0c-1.029,1.975-3.785,1.973-5.483,3.284h0.366a15.33,15.33,0,0,0,6.58,3.649c1.246-1.238,3.619-2,5.118-2.919C68.5,26.762,65.642,25.606,63.584,24.408ZM46.038,28.057c-0.368.253-1.462,0.47-1.828,0.73a6.815,6.815,0,0,0-3.29,2.919c4.388,0.063,4.331,2.624,6.945,4.014,1.673-2.538,3.672-2.666,6.214-4.379l-3.655-2.919Zm-7.676.365a17.031,17.031,0,0,1-5.483,2.919v0.365h5.849a14.613,14.613,0,0,1,3.29-2.919V28.422H38.361Zm14.622,0c1.822,2.867,4.189,3.41,9.139,3.284V31.342C58.8,30.287,57.862,28.452,52.983,28.422Zm-29.975.73C21.84,30.605,18.69,32.2,16.794,32.8a1.32,1.32,0,0,0,.731.365,8.766,8.766,0,0,0,5.483,2.919c1.359-1.9,3.888-2.708,5.483-4.379C26.632,30.839,25.24,29.531,23.008,29.152Zm48.252,0c-1.036,1.323-3.763,2.388-5.483,2.919a1.319,1.319,0,0,0,.731.365c1.509,1.88,4.368,2.477,5.849,4.379,2.124-1.061,3.864-2.867,6.214-3.649V32.8C75.709,32.079,74.1,29.959,71.261,29.152ZM31.05,32.436c-1.431,1.848-4.431,3.667-6.58,4.744v0.365c2.016,0.325,5.252,3.365,6.58,2.555a22.986,22.986,0,0,0,6.58-7.3H31.416V32.436H31.05ZM39.458,32.8c-1.7,2.773-4.228,6.259-6.945,8.029v0.365h0.366a27.57,27.57,0,0,0,6.945,4.014c1.842-2.781,5.388-5.095,6.58-8.394H46.038C45.353,34.1,42.95,32.744,39.458,32.8Zm13.891,0a1.867,1.867,0,0,1-1.1.365A14.744,14.744,0,0,1,48.6,36.451a1.25,1.25,0,0,0,.366.73c1.146,3.261,4.973,4.991,6.58,8.029,1.943-1.052,5.592-2.295,6.945-4.014-2.4-1.563-5.959-5.572-6.945-8.393H53.349Zm4.021,0v0.73a28.372,28.372,0,0,1,6.58,6.934,1.254,1.254,0,0,0,.731-0.365A17.034,17.034,0,0,0,70.9,37.181C65.43,34.43,66.387,32.794,57.37,32.8Zm-42.038.73a13.863,13.863,0,0,1-5.483,3.284,1.319,1.319,0,0,0,.731.365,11.541,11.541,0,0,0,6.58,3.284c1.069-1.465,2.966-1.808,3.655-3.649A40.526,40.526,0,0,1,15.332,33.531ZM79.3,33.9c-1.1,1.409-3.469,2.467-5.118,3.284v0.73a9.332,9.332,0,0,1,4.386,2.919c2.671-.65,4.674-2.474,6.945-3.649a1.319,1.319,0,0,0-.731-0.365A10.92,10.92,0,0,0,79.3,33.9Zm-56.66,4.379c-1.2,1.466-3.43,1.936-4.752,3.284h0.366A12.606,12.606,0,0,0,25.2,45.209c1.025-1.31,3.368-2.745,4.752-3.649V41.195C26.943,40.772,25.69,38.793,22.643,38.275Zm24.492,0c-1.637,2.663-3.962,5.961-6.58,7.664V46.3c2.164,0.729,5.106,4.63,6.945,4.014,2.032-.586,6.092-2.909,6.945-4.744C51.717,43.734,50.324,39.423,47.135,38.275Zm24.857,0c-1.938,1.41-5.139,1.385-6.214,3.649h0.366c0.832,1.16,4.1,3.632,5.118,3.284a16.651,16.651,0,0,0,6.214-3.649C75.669,40.424,74.331,38.913,71.992,38.275ZM31.05,42.29c-1.126,1.61-3.267,2.773-5.118,3.649V46.3H26.3c0.825,0.811,6.313,4.01,6.58,3.649,1.757-.945,4.628-2.163,5.483-4.014C35.571,45.045,34.559,42.808,31.05,42.29Zm31.8,0.365a18.172,18.172,0,0,1-6.214,3.284,1.318,1.318,0,0,0,.731.365c1.429,1.72,3.823,2.057,5.118,4.014,2.216-.98,5.284-2.365,6.945-4.014a22.416,22.416,0,0,1-5.118-3.649H62.853ZM39.458,47.034c-1.212,1.725-3.488,2.717-5.483,3.649a1.319,1.319,0,0,0,.731.365,13.733,13.733,0,0,0,6.58,3.649c1.276-1.265,3.28-1.856,4.387-3.284C43.465,50.12,41.782,48.24,39.458,47.034Zm15.718,0c-1.348,1.719-4.167,3.037-6.214,4.014a1.249,1.249,0,0,0,.365.73A11.79,11.79,0,0,0,55.542,54.7c1.433-1.7,4.47-1.921,5.483-4.014C59.156,49.482,57.506,47.789,55.177,47.034Zm-8.042,5.109c-1.047,1.3-3.3,2.429-4.752,3.284v0.365h0.366c4.189,4.28,6.277,2.173,10.6,0a1.318,1.318,0,0,0-.731-0.365Z" transform="translate(-3 -11)"/>
</svg>
