<svg xmlns="http://www.w3.org/2000/svg" width="1643.16" height="1901.28" viewBox="0 0 1643.16 1901.28">
  <metadata><?xpacket begin="﻿" id="W5M0MpCehiHzreSzNTczkc9d"?>
<x:xmpmeta xmlns:x="adobe:ns:meta/" x:xmptk="Adobe XMP Core 5.6-c142 79.160924, 2017/07/13-01:06:39        ">
   <rdf:RDF xmlns:rdf="http://www.w3.org/1999/02/22-rdf-syntax-ns#">
      <rdf:Description rdf:about=""/>
   </rdf:RDF>
</x:xmpmeta>
                                                                                                    
                                                                                                    
                                                                                                    
                                                                                                    
                                                                                                    
                                                                                                    
                                                                                                    
                                                                                                    
                                                                                                    
                                                                                                    
                                                                                                    
                                                                                                    
                                                                                                    
                                                                                                    
                                                                                                    
                                                                                                    
                                                                                                    
                                                                                                    
                                                                                                    
                                                                                                    
                           
<?xpacket end="w"?></metadata>
<defs>
    <style>
      .cls-1 {
        fill: #fff;
        fill-rule: evenodd;
      }
    </style>
  </defs>
  <path id="Color_Fill_1" data-name="Color Fill 1" class="cls-1" d="M109,0h908c0.56,27.084-1.7,59.45-7,83q-1,12.5-2,25c-4.54,19.539-5.3,42.01-10,61-4.75,19.206-3.953,37.253-9,56-15.2,56.454-23.658,115.024-41,168-13.567,41.442-20.884,82.8-37,122-10.164,24.725-17.579,50.875-28,76q-26.367,63.57-54,126c-10.858,24.637-24.182,51.317-38,74-3.526,5.788-4.481,12.207-8,18-12.37,20.361-22.381,42.418-35,63-32.993,53.811-66.123,107.058-102,158-17.437,24.76-38.206,47.8-56,72-23.815,32.39-51.991,60.23-76,92l-10,9c-8.354,11.05-20.267,19.77-28,30-8.814,11.66-19.78,20.78-30,31-9.9,9.9-18.7,20.46-30,29q-8,8.505-16,17c-17.9,13.54-32.253,31.6-50,45-25.5,19.25-48.343,42.13-74,61-28.575,21.01-56.689,41.46-86,62-17.994,12.61-35.9,24.95-55,37-8.221,5.19-16.186,13.72-26,17V0ZM1751,0V1642H521c-0.025-19.91,4.6-42.32,9-60l3-24c5.826-22.51,8.859-48.03,15-70,5.185-18.55,5.784-35.69,11-54,22.591-79.3,39.185-161.33,69-234,14.017-34.16,22.1-68.49,36-102,23.915-57.65,49.261-113.87,74-170a527.471,527.471,0,0,1,31-59c12.307-20.2,19.8-41.961,32-62,22.815-37.465,45.892-75.481,69-112,119.32-188.565,269.11-350.917,450-478,30.23-21.238,61.32-43.012,93-63,24.38-15.383,50.5-28.08,75-43,5.79-3.525,12.21-4.481,18-8,34.56-20.992,73.29-36.138,112-53,17.95-7.818,37.56-16.391,56-24,12.2-5.032,23.65-6.947,36-12C1722.19,9.011,1736.43,1.4,1751,0ZM550,1701c47.755-.55,80.218,3.07,94,36,14.148,33.8,11.329,114.61-7,140-6.636,9.19-19.053,16.19-31,20-9.2,2.93-19.56,3-31,3-77.05.02-87-31.14-87-107,0-20.14.794-39.26,7-54,6.234-14.81,17.088-26.87,32-33Q538.5,1703.5,550,1701Zm1194,4c-0.33,3.33-.67,6.67-1,10-27.84-1.32-63.49-3.72-88,2-4.3,6.54-8.78,10.57-11,20-1.14,4.81-.39,13.87,0,16,2.97,16.4,1.52,25.92,13,33,6.27,3.87,13.58,2.92,22,5,23.01,5.68,54.42,4.81,66,22,4.09,6.07,6.67,16.95,7,26,0.85,23.44-1.55,43.95-15,53-19.84,13.35-76.07,6.12-103,4,0.33-3.33.67-6.67,1-10,27.49,2.06,77.86,8.25,96-6,8.09-6.36,5.73-17.18,8-30,1.11-6.27-.23-19.77-3-26-6.52-14.66-22.61-12.7-40-17-24.85-6.14-51.77-5.33-61-27-2.65-6.21-3.89-14.05-4-22-0.28-20.95,1.06-40.41,13-49C1664.55,1694.22,1715.2,1704.26,1744,1705ZM128,1897V1704c38.31-.66,98.485-9.94,126,7,37.175,22.88,41.842,128.73,14,167C245.471,1908.97,176.117,1897.41,128,1897Zm230-75v74H316V1704c37.967-1.37,101.064-9.87,127,8,13.344,9.19,17.015,26.07,17,49-0.007,11.06-.745,20.87-5,28-4.107,6.88-11.958,13.07-20,16-3.916,1.43-8.1.86-11,3,31.154,3.13,34.043,61.43,44,88H422v-2c-10.555-15.82-7.142-59.08-22-69C391.814,1819.53,370.971,1821.74,358,1822Zm1133-6v80h-12V1705c37.88-4.73,98.98-8.48,114,17,4.19,7.11,5.92,18.57,6,29,0.2,24.54-.65,48.18-15,58C1564.56,1822.3,1520.63,1816.41,1491,1816ZM806,1704h40v123c0,20.86,2.34,47.51-2,65-10.084,5.99-37.017,5.36-50,2-19.617-32.11-35.359-69.18-53-103-3.265-6.26-12.782-35.55-17-38v7c3.113,5.01,1,29.84,1,38v98H684V1769c0-19.19-2.756-45.69,3-60,6.971-4.2,35.74-9.89,46-3,11.414,4.14,15.589,23.59,21,34,12.22,23.52,24.084,47.15,35,72,4.808,10.95,12.538,21.52,16,34h2v-8c-3.057-4.92-1-28.99-1-37v-97Zm199,3q-1,13.995-2,28H944c-6.361,0-18.63-1.74-23,1-2.927.95-3.511,1.76-5,4-4.211,5.49-2.128,33.89-2,44h79v27H914c-0.087,17.73-.889,37.91,1,54,3.3,2.47,3.335,4.43,9,5,4.2,2.63,15.849,1,22,1h57v2c2.94,4.61,2.06,18.77,2,25-35.275,2.72-106.534,9.99-122-13-10.093-15-5-70.02-5-95,0-21.83-4.313-56.22,5-70C898.546,1697.01,969.663,1704.28,1005,1707Zm256,189h-13q-3.495-89.985-7-180a18.263,18.263,0,0,0-6-1c-2.71,13.58-9.94,27.79-15,40-10.97,26.48-19.07,53.97-29,80-3.95,10.36-7.08,20.51-11,30-1.65,4-1.39,11.2-5,13h-22c-7.91-15-11.16-32.42-18-49-9.8-23.76-18.84-49.91-28-74-3.47-9.12-9.34-39.34-19-40q-4.005,90.495-8,181h-13v-1c5.2-8.57-.57-34.11,2-46,6.16-28.49-1.14-64.48,5-93,3.56-16.55-2.44-36.13,3-50,5.9-2,16.42-1.08,24-1,7.75,14.67,11.27,31.69,18,48,10.51,25.48,19.52,53.51,30,79,3.75,9.11,7.31,35.57,18,36,14.34-39.51,28.23-79.28,43-118,4.31-11.3,7.96-22.42,12-33,1.5-3.92,1.57-10.3,5-12h23c1.22,2.28,1.64,2.25,2,6Q1256.5,1803.49,1261,1896Zm186,0h-13q-11.505-33.495-23-67h-87v1h-1c-2.66,23.52-18.32,42.6-22,66h-14v-1c7.19-9.96,8.09-25.09,13-37,13.32-32.27,23.71-67.71,37-100,5.12-12.43,8.57-25.19,13-37,1.57-4.19,2.35-14.15,6-16h23c15.95,38.2,25.96,79.01,42,118,5.89,14.33,9.81,29.9,16,45C1440.49,1876.5,1445.55,1885.81,1447,1896Zm44-182v93c26.94,0.4,75.76,3.46,87-11,7.36-9.47,5.8-19.32,8-35,1.25-8.91-.62-25.91-5-33C1568.13,1707.2,1523.57,1713.62,1491,1714Zm-163,105h79v-2c-5.08-7.04-5.7-17.3-9-26-6.19-16.35-12.37-34.85-19-51-3.7-9-2.34-24.86-15-25-9.03,24.08-15.73,48.43-25,73C1335.4,1797.53,1329.74,1808.05,1328,1819ZM171,1736v129c18.248,0.27,42.936,2.53,54-5,18.836-12.82,19.125-94.52,5-114C219.974,1732.17,194.138,1735.7,171,1736Zm187-1v54c18.1,0.48,50.374,3.17,55-10,7.842-8.36,2.534-27.85,0-37C399.2,1733.3,380.663,1734.92,358,1735Zm201,1c-1.856,1.29-5.26,1.63-7,3-18.925,5.91-19,36.94-19,62,0,31.4.909,56.21,26,63,4.216,1.14,15.237,2.47,21,1,8.668-2.21,15.978-7.14,20-14,11.965-20.4,8.971-91.31-4-107C589.213,1735.79,574.375,1735.71,559,1736Z" transform="translate(-109)"/>
</svg>
