<svg xmlns="http://www.w3.org/2000/svg" width="89" height="88.531" viewBox="0 0 89 88.531">
  <metadata><?xpacket begin="﻿" id="W5M0MpCehiHzreSzNTczkc9d"?>
<x:xmpmeta xmlns:x="adobe:ns:meta/" x:xmptk="Adobe XMP Core 5.6-c142 79.160924, 2017/07/13-01:06:39        ">
   <rdf:RDF xmlns:rdf="http://www.w3.org/1999/02/22-rdf-syntax-ns#">
      <rdf:Description rdf:about=""/>
   </rdf:RDF>
</x:xmpmeta>
                                                                                                    
                                                                                                    
                                                                                                    
                                                                                                    
                                                                                                    
                                                                                                    
                                                                                                    
                                                                                                    
                                                                                                    
                                                                                                    
                                                                                                    
                                                                                                    
                                                                                                    
                                                                                                    
                                                                                                    
                                                                                                    
                                                                                                    
                                                                                                    
                                                                                                    
                                                                                                    
                           
<?xpacket end="w"?></metadata>
<defs>
    <style>
      .cls-1 {
        fill: none;
        stroke: #fff;
        stroke-width: 2px;
        fill-rule: evenodd;
      }
    </style>
  </defs>
  <path id="Color_Fill_1" data-name="Color Fill 1" class="cls-1" d="M31.695-.609h27.82c2.8,0,9.339-.609,11.128.441C80.9,5.852,85.994,16.879,89.56,29.581c1.681,5.986,2.169,16.561.668,22.918-0.584,2.474-.376,4.556-1.113,6.831-3.563,11-8.264,20.313-17.36,25.782-2.874,1.728-9.723,1.321-14.021,1.322H53.505c-3.1.659-7.361,0.44-10.683,0.441H38.817c-2.092.444-5.2-.286-7.567,0.22C23.6,88.732,16.163,85.517,13,81.366a43.639,43.639,0,0,1-7.567-15.2C1.069,50.585,8.231,34.1,17.673,28.479c5.447-3.243,19.86-2.017,28.488-1.983v-0.22c-0.885-1.162-.944-2.995-1.558-4.407A54.2,54.2,0,0,0,40.82,14.6C37.789,9.835,33.523,7.4,29.692,3.578l0.223-2.865A15.563,15.563,0,0,0,31.695-.609ZM84.441,46.548c-6.472.02-13.724,0.477-19.808-.22a6.049,6.049,0,0,1-1.113-1.543c-0.751-.906-0.269-2.064,0-3.085,3.724-2.409,14.826-1.35,20.921-1.322a38.455,38.455,0,0,0-2-12.781A23.3,23.3,0,0,1,81.1,23.631c-6.445.033-16.841,0.9-22.256-.441a5.24,5.24,0,0,1-1.113-3.526A1.117,1.117,0,0,0,57.957,19c0.683-.451,1.153-1.294,2-1.543H78.21V17.24c-1.089-1.078-1.547-2.695-2.448-3.967a27.307,27.307,0,0,0-6.454-6.39,7.681,7.681,0,0,0-1.558-1.322H41.932v0.22c9.811,9.39,17.372,35.47,11.128,54.429-1.808,5.489-3.848,10.883-6.9,15.2-1.312,1.858-3.185,3.391-4.451,5.289h1.113c0.833-.5,2.992-0.22,4.229-0.22l8.68-.22,12.463-.441c2.784-.943,8.743-7.421,9.57-10.357H59.737v-0.22c-1.563-.45-2.066-1.664-2-3.746,0.739-.924.749-1.731,2.226-1.983,1.093-.675,4.225-0.22,5.787-0.22H80.88A43.823,43.823,0,0,0,84.441,46.548ZM34.365,32.886a36.69,36.69,0,0,1,4.451,10.357,16.569,16.569,0,0,1,.223,5.289c-0.416,2.122.078,3.878-.445,5.729-1.868,6.611-5.035,12.324-12.018,13.883-3.05.681-5.818-1.372-7.122-2.644-5.392-5.261-6.528-15.031-1.78-21.816,1.273-1.819,2.7-3.735,5.787-3.746a2.625,2.625,0,0,0,1.113.441c0.82,1.2,1.357,1.512,1.335,3.746a14.251,14.251,0,0,1-1.335,1.763c-1.173.824-2.073,1.279-2.671,2.644-2.476,5.649-.038,10.195,2.893,13.222h1.558c0.971-.89,2.324-1.363,3.116-2.424,1.755-2.352,2.594-5.464,3.338-8.814,1.269-5.71-2.254-13.156-4.9-15.2-1.31-1.016-3.284-2.859-6.009-1.763C6.2,39.864,8.072,74.6,22.792,80.7c6.107,2.531,11.764-2.166,14.689-5.068,8.608-8.542,13.739-25.8,10.238-42.75H34.365Z" transform="translate(-3.125)"/>
</svg>
