<svg xmlns="http://www.w3.org/2000/svg" width="89" height="90.344" viewBox="0 0 89 90.344">
  <defs>
    <style>
      .cls-1 {
        fill: none;
        stroke: #fff;
        stroke-width: 2px;
        fill-rule: evenodd;
      }
    </style>
  </defs>
  <path id="Color_Fill_1" data-name="Color Fill 1" class="cls-1" d="M88,36h24V60h25c0.056,1.052.079,17.139,0,25H112v9c-1,.148-9.662,7.437-12,11-4-6.138-11.982-11.3-12-12-0.055-2.1-.129-4.435,0-8H63V60c0.435,0.078,17.139-.079,25,0V36ZM57,88c12.842,0.7,28.32,4.558,36,11,3.076,2.58,5.731,9.6,6,13a7.228,7.228,0,0,0,2,0c2.248-17.789,23.84-23.472,43-24v2c-9.5,11.438-10.635,29.137-30,34-6.78,1.7-10.094-3.658-15-3-6.4.859-13.139,5.04-20,0C69.376,116.721,57.949,100.711,57,88ZM80,99c3.8,4.939,9.917,7.243,14,12,2.082,2.426,5.172,6.224,5,9-0.015.236,2.042,0.062,2,0,1.847-10.461,13.119-15.028,19-21-0.333,0-4.667,1-5,1-2.7,1.35-5.315,4.348-6,5-2.747,2.615-5.94,5.047-7,9-0.064.239-2.278-.191-4,0C93.791,106.936,88.976,101.29,80,99Z" transform="translate(-56 -35)"/>
</svg>
